<?xml version="1.0" encoding="UTF-8" standalone="no"?>
<!-- Created with Inkscape (http://www.inkscape.org/) -->

<svg
   xmlns:dc="http://purl.org/dc/elements/1.1/"
   xmlns:cc="http://creativecommons.org/ns#"
   xmlns:rdf="http://www.w3.org/1999/02/22-rdf-syntax-ns#"
   xmlns:svg="http://www.w3.org/2000/svg"
   xmlns="http://www.w3.org/2000/svg"
   xmlns:sodipodi="http://sodipodi.sourceforge.net/DTD/sodipodi-0.dtd"
   xmlns:inkscape="http://www.inkscape.org/namespaces/inkscape"
   version="1.1"
   id="svg2598"
   xml:space="preserve"
   width="800"
   height="800"
   viewBox="0 0 800 800"
   sodipodi:docname="good-bad-publicdomainvectors.org.svg"
   inkscape:version="0.92.4 (5da689c313, 2019-01-14)"><metadata
     id="metadata2604"><rdf:RDF><cc:Work
         rdf:about=""><dc:format>image/svg+xml</dc:format><dc:type
           rdf:resource="http://purl.org/dc/dcmitype/StillImage" /><dc:title></dc:title></cc:Work></rdf:RDF></metadata><defs
     id="defs2602"><clipPath
       clipPathUnits="userSpaceOnUse"
       id="clipPath2614"><path
         d="M 0,600 H 600 V 0 H 0 Z"
         id="path2612"
         inkscape:connector-curvature="0" /></clipPath></defs><sodipodi:namedview
     pagecolor="#ffffff"
     bordercolor="#666666"
     borderopacity="1"
     objecttolerance="10"
     gridtolerance="10"
     guidetolerance="10"
     inkscape:pageopacity="0"
     inkscape:pageshadow="2"
     inkscape:window-width="724"
     inkscape:window-height="480"
     id="namedview2600"
     showgrid="false"
     inkscape:zoom="0.295"
     inkscape:cx="400"
     inkscape:cy="400"
     inkscape:window-x="0"
     inkscape:window-y="0"
     inkscape:window-maximized="0"
     inkscape:current-layer="g2606" /><g
     id="g2606"
     inkscape:groupmode="layer"
     inkscape:label="good-bad-publicdomainvectors.org"
     transform="matrix(1.3333333,0,0,-1.3333333,0,800)"><g
       id="g2608"><g
         id="g2610"
         clip-path="url(#clipPath2614)"><path
           d="m 354.862,18.246 c -37.601,25.388 -18.958,96.02 -18.958,96.02 l 4.878,5.041 c -11.061,-3.304 -22.381,-7.341 -30.647,-11.878 l 0.718,-92.616 0.092,-2.931 h -0.024 c 0.892,0 22.072,-0.852 48.918,3.733 -0.588,0.298 -1.171,0.461 -1.736,0.778 -1.124,0.628 -2.205,1.155 -3.241,1.853 m 49.32,304.865 c -1.947,5.613 -4.653,10.793 -6.618,16.182 -2.156,5.282 -3.497,10.529 -2.039,18.28 0.18,0.953 0.57,2.505 0.904,3.776 0.054,0.21 0.112,0.426 0.169,0.644 0.125,0.461 0.229,0.855 0.3,1.114 1.582,5.748 4.034,13.388 6.162,20.881 2.491,8.764 4.532,17.318 4.196,22.368 -0.417,6.28 -6.435,15.102 -12.41,18.558 -0.94,0.544 -1.88,0.955 -2.796,1.202 -0.515,-0.822 -0.972,-1.807 -1.346,-3.021 -3.515,-11.435 -4.733,-31.863 -5.136,-42.173 -0.073,-0.13 -0.089,-0.292 -0.024,-0.478 -0.135,-3.595 -0.168,-5.861 -0.168,-5.861 0,0 -0.778,3.264 -1.968,8.128 -1.38,1.271 -2.804,2.448 -4.274,3.534 -0.339,-5.644 -0.488,-10.289 -0.55,-12.669 2.799,0.596 4.927,1.122 6.1,1.554 0,0 4.173,-24.498 7.425,-26.552 -8.264,3.3 -15.373,16.77 -21.578,15.28 -7.182,-1.725 -18.554,-6.927 -28.744,-10.924 l 33.357,-3.061 -7.469,-10.226 c 4.274,-6.576 14.529,0.373 17.819,0.005 3.291,-0.368 7.746,-5.221 4.453,-11.075 -0.087,0.108 -0.259,0.225 -0.496,0.348 -0.528,-4.446 -4.797,-11.97 -7.116,-12.939 -0.012,-0.073 -0.046,-0.156 -0.088,-0.238 -0.009,-0.019 -0.014,-0.036 -0.024,-0.055 -0.043,-0.078 -0.105,-0.16 -0.171,-0.245 -0.025,-0.031 -0.044,-0.058 -0.07,-0.088 -0.07,-0.082 -0.155,-0.17 -0.248,-0.259 -0.035,-0.035 -0.07,-0.069 -0.109,-0.105 -0.098,-0.091 -0.205,-0.181 -0.321,-0.276 -0.048,-0.04 -0.099,-0.079 -0.151,-0.121 -0.122,-0.095 -0.251,-0.191 -0.386,-0.29 -0.062,-0.043 -0.127,-0.088 -0.194,-0.133 -0.142,-0.099 -0.29,-0.199 -0.452,-0.303 -0.069,-0.046 -0.144,-0.092 -0.219,-0.139 -0.168,-0.105 -0.338,-0.212 -0.52,-0.32 -0.074,-0.045 -0.155,-0.09 -0.231,-0.134 -0.195,-0.114 -0.39,-0.228 -0.599,-0.344 -0.065,-0.035 -0.133,-0.072 -0.198,-0.106 -0.715,-0.391 -1.508,-0.793 -2.366,-1.202 -0.117,-0.055 -0.228,-0.11 -0.346,-0.167 -0.207,-0.094 -0.42,-0.191 -0.635,-0.287 -0.17,-0.078 -0.339,-0.156 -0.513,-0.234 -0.202,-0.088 -0.409,-0.178 -0.616,-0.267 -0.194,-0.084 -0.39,-0.169 -0.589,-0.253 -0.203,-0.085 -0.411,-0.171 -0.616,-0.254 -0.214,-0.089 -0.428,-0.176 -0.646,-0.264 -0.204,-0.081 -0.409,-0.162 -0.616,-0.243 -0.228,-0.089 -0.46,-0.177 -0.694,-0.267 -0.203,-0.078 -0.409,-0.154 -0.616,-0.23 -0.246,-0.091 -0.491,-0.181 -0.738,-0.269 -0.203,-0.073 -0.405,-0.146 -0.611,-0.219 -0.257,-0.09 -0.519,-0.177 -0.78,-0.267 -0.201,-0.068 -0.398,-0.135 -0.597,-0.201 -0.286,-0.095 -0.573,-0.185 -0.862,-0.276 -0.178,-0.058 -0.357,-0.116 -0.537,-0.171 -0.329,-0.102 -0.659,-0.2 -0.99,-0.298 -0.147,-0.043 -0.289,-0.088 -0.434,-0.128 -0.479,-0.138 -0.956,-0.273 -1.437,-0.399 -0.015,-0.004 -0.032,-0.008 -0.047,-0.011 -0.461,-0.122 -0.922,-0.24 -1.382,-0.351 -0.147,-0.036 -0.291,-0.066 -0.437,-0.102 -0.33,-0.076 -0.662,-0.153 -0.991,-0.224 -0.175,-0.038 -0.35,-0.072 -0.524,-0.108 -0.297,-0.062 -0.593,-0.122 -0.889,-0.177 -0.188,-0.038 -0.373,-0.069 -0.56,-0.101 -0.282,-0.05 -0.561,-0.098 -0.843,-0.143 -0.188,-0.03 -0.377,-0.058 -0.567,-0.085 -0.269,-0.039 -0.537,-0.077 -0.803,-0.11 -0.192,-0.023 -0.382,-0.047 -0.57,-0.067 -0.261,-0.028 -0.522,-0.054 -0.78,-0.077 -0.184,-0.016 -0.368,-0.032 -0.551,-0.045 -0.258,-0.018 -0.511,-0.031 -0.766,-0.043 -0.175,-0.009 -0.349,-0.017 -0.522,-0.022 -0.257,-0.008 -0.508,-0.008 -0.756,-0.007 -0.162,10e-4 -0.325,-0.002 -0.482,0.002 -0.272,0.007 -0.533,0.022 -0.795,0.039 -0.128,0.008 -0.261,0.011 -0.386,0.022 -0.385,0.031 -0.759,0.073 -1.119,0.126 -12.072,1.831 -25.12,19.749 -26.214,20.114 -1.101,0.364 0.558,6.6 4.761,7.869 20.998,6.342 6.625,14.111 3.177,15.757 -1.01,-0.285 -1.99,-0.547 -2.899,-0.742 -0.566,-0.12 -1.102,-0.208 -1.613,-0.271 -22.421,-9.669 -11.583,-42.735 -5.312,-58.352 34.425,-11.903 55.43,-69.942 54.009,-74.299 -12.51,33.81 -30.776,43.544 -40.722,46.209 3.295,-6.998 3.593,-16.117 -7.33,-25.436 -7.386,6.33 -13.294,7.509 -18.115,6.322 l 0.211,-27.134 c 12.864,5.606 34.448,12.938 44.707,4.514 9.315,-7.647 -5.124,-25.468 -20.482,-38.056 -8.907,-8.074 -18.575,-14.319 -23.849,-15.009 l 0.115,-14.892 c 5.395,3.416 14.783,9.453 16.324,9.634 0.104,0.012 0.173,0 0.203,-0.043 0.51,-0.707 -10.926,-12.392 -16.434,-21.527 l 0.21,-27.196 c 10.03,10.3 41.042,29.42 60.374,42.13 22.04,34.619 4.222,48.665 25.271,90.66 0.018,0.037 0.034,0.071 0.05,0.107 -0.099,0.544 -0.044,1.1 -0.106,1.675 l -12.035,-3.48 v 1.899 c 0,0 6.021,3.95 11.904,8.126 0.02,0.293 -0.129,0.586 -0.097,0.891 0.01,0.003 -0.074,0.005 -0.071,0.01 0.002,-0.309 0.023,-0.606 0,-0.901 1.12,0.796 2.266,1.6 3.328,2.386 0.183,0.29 0.331,0.572 0.507,0.861 14.956,27.553 11.257,47.701 4.965,65.835 m -8.386,-77.286 c 0.322,0.659 0.585,1.312 0.933,1.988 l -1.142,-0.329 c 0.061,-0.573 0.134,-1.119 0.209,-1.659 M 379.93,396.703 c -0.34,-3.647 -0.598,-7.213 -0.796,-10.458 1.47,-1.085 2.895,-2.263 4.275,-3.534 -0.956,3.91 -2.178,8.849 -3.479,13.992 M 539.117,558.381 C 524.174,593 303.42,579.902 303.42,579.902 l 3.489,0.113 v -0.014 l 0.188,0.014 0.189,-55.649 c 0.008,0.008 -0.038,0.015 -0.03,0.024 8.159,7.957 18.848,15.088 29.313,20.067 0.016,0.008 0.021,0.014 0.036,0.022 0.637,0.303 1.264,0.598 1.896,0.884 0.047,0.02 0.087,0.038 0.131,0.059 0.606,0.272 1.211,0.539 1.813,0.796 0.062,0.026 0.123,0.05 0.184,0.076 0.586,0.249 1.168,0.492 1.751,0.727 0.07,0.028 0.139,0.054 0.21,0.081 0.569,0.226 1.138,0.449 1.701,0.662 0.106,0.039 0.21,0.075 0.316,0.115 0.529,0.196 1.053,0.389 1.578,0.571 0.13,0.047 0.262,0.088 0.393,0.133 0.495,0.169 0.987,0.338 1.474,0.494 0.149,0.048 0.294,0.09 0.442,0.137 0.468,0.147 0.935,0.294 1.396,0.428 0.167,0.048 0.331,0.091 0.498,0.139 0.436,0.123 0.873,0.248 1.303,0.362 0.191,0.049 0.376,0.091 0.565,0.139 0.402,0.102 0.805,0.204 1.2,0.295 0.215,0.05 0.426,0.09 0.638,0.137 0.362,0.078 0.726,0.161 1.084,0.229 0.235,0.046 0.464,0.083 0.697,0.124 0.327,0.06 0.657,0.121 0.979,0.174 0.257,0.041 0.508,0.07 0.764,0.106 0.286,0.039 0.577,0.085 0.859,0.118 0.274,0.032 0.538,0.052 0.806,0.078 0.256,0.024 0.514,0.055 0.765,0.072 0.275,0.02 0.542,0.027 0.812,0.04 0.232,0.012 0.471,0.028 0.699,0.034 0.307,0.007 0.605,0 0.906,-0.002 0.179,-0.003 0.364,0.003 0.538,-0.003 0.472,-0.014 0.933,-0.042 1.379,-0.083 -0.545,-0.235 -1.123,-0.507 -1.718,-0.798 4.002,0.709 7.635,0.966 10.645,0.684 -7.312,-6.585 -33.648,-17.081 -9.507,-25.126 24.14,-8.046 43.073,5.808 54.046,-0.777 -20.848,-9.506 -18.204,-15.315 -16.01,-18.243 2.195,-2.926 46.073,-17.969 46.073,-17.969 0,0 -5.215,-0.149 -11.39,-1.153 2.8,-0.978 4.558,-1.58 4.558,-1.58 0,0 -10.241,-0.292 -19.012,-2.822 -5.437,-3.07 -7.99,-7.822 -2.17,-15.171 5.906,-7.458 17.423,2.85 25.472,-2.272 8.049,-5.122 26.265,-52.098 29.189,-56.489 2.924,-4.388 -5.807,-61.265 -5.807,-61.265 0,0 -2.436,2.178 -5.822,4.091 -0.606,-4.182 -1.011,-6.824 -1.011,-6.824 0,0 -7.481,6.697 -14.464,6.924 -3.003,-3.164 -5.074,-9.465 -5.009,-20.889 0.008,-1.445 20.917,7.053 20.839,5.424 -2.028,-42.696 -17.037,-63.996 -30.407,-76.625 4.916,-0.193 10.821,0.424 17.922,2.831 9.77,4.477 21.495,12.205 35.602,25.123 0.346,-0.814 0.661,-1.635 0.962,-2.458 1.912,1.634 3.866,3.354 5.871,5.191 C 513.733,243.133 453.443,179.93 409.607,121.854 380.19,82.883 358.188,46.224 372.971,17.93 c 0.594,-1.135 1.245,-2.257 1.96,-3.364 25.161,-1.485 65.88,-1.671 68.198,-1.831 21.863,-1.507 88.894,-10.875 88.894,25.001 0,35.874 20.22,464.644 7.094,520.645 m -231.419,-106.24 0.456,-56.874 c -0.036,-0.008 -0.062,-0.017 -0.097,-0.024 -0.034,-2.437 -0.065,-4.874 -0.099,-7.311 l 0.081,-10.112 c 0.084,-0.721 0.23,-1.355 0.347,-2.142 0.153,-0.83 0.355,-1.835 0.611,-2.912 0.212,-0.804 0.45,-1.596 0.705,-2.327 0.204,-0.587 0.329,-1.175 0.506,-1.756 0.303,-0.816 0.638,-1.573 1.007,-2.232 0.086,-0.152 0.167,-0.306 0.261,-0.454 0.152,-0.24 0.309,-0.465 0.471,-0.663 0.02,-0.024 0.04,-0.045 0.061,-0.069 0.158,-0.188 0.324,-0.352 0.494,-0.494 0.033,-0.025 0.063,-0.055 0.097,-0.081 0.194,-0.151 0.395,-0.274 0.601,-0.356 3.525,-1.365 10.814,10.477 11.495,9.793 0.941,-1.877 -0.378,-7.404 -0.409,-10.979 17.165,3.87 41.632,7.76 53.868,10.336 -0.674,2.8 -2.159,8.925 -3.924,15.979 -3.573,14.289 -8.268,32.273 -9.58,33.582 -1.73,1.733 -27.803,28.609 -40.168,35.566 -0.697,-9.918 5.859,-27.102 5.859,-27.102 0,0 -6.772,9.706 -12.417,18.222 1.245,-9.582 5.549,-20.955 5.549,-20.955 l -0.035,0.004 v -0.004 c 0,0 -9.906,14.245 -15.74,23.365 m 15.139,-174.209 1.354,-3.752 c -0.299,0.228 -0.497,0.362 -0.497,0.362 10e-4,-0.004 0.002,-0.009 0.005,-0.014 -0.003,0.002 -0.018,0.014 -0.018,0.014 1.279,-3.839 5.358,-29.794 -0.011,-29.978 -0.575,-0.02 -1.259,0.256 -2.066,0.887 -0.27,0.211 -0.552,0.46 -0.848,0.752 -5.297,5.193 -8.527,6.807 -11.74,5.829 l -0.086,10.964 c 0.025,0.058 0.081,0.114 0.102,0.172 0.075,0.004 0.239,0.01 0.239,0.015 v 0.046 c 0,0.027 -0.041,0.059 -0.044,0.086 4.987,4.032 10.705,10.46 13.61,14.617"
           style="fill:#ff0000;fill-opacity:1;fill-rule:nonzero;stroke:none"
           id="path2616"
           inkscape:connector-curvature="0" /><path
           d="m 310.946,11.882 h -0.025 -0.043 l -0.743,95.943 0.719,-92.983 z m 53.606,295.449 c 0.145,0.043 0.287,0.088 0.434,0.13 -0.147,-0.042 -0.289,-0.087 -0.434,-0.13 m 1.961,0.598 c -0.177,-0.057 -0.357,-0.115 -0.537,-0.17 0.18,0.055 0.36,0.113 0.537,0.17 m 4.204,1.464 c -0.203,-0.078 -0.409,-0.155 -0.616,-0.231 0.207,0.076 0.413,0.153 0.616,0.231 m -7.649,-2.47 c 0.015,0.004 0.032,0.007 0.047,0.012 -0.015,-0.005 -0.032,-0.008 -0.047,-0.012 m 8.959,2.98 c -0.204,-0.081 -0.409,-0.163 -0.616,-0.243 0.207,0.08 0.412,0.162 0.616,0.243 m -4.056,-1.496 c -0.2,-0.068 -0.397,-0.135 -0.596,-0.2 0.199,0.065 0.396,0.132 0.596,0.2 m 1.392,0.487 c -0.203,-0.074 -0.405,-0.147 -0.611,-0.219 0.206,0.072 0.408,0.145 0.611,0.219 m -16.48,-3.626 c 0.173,0.005 0.347,0.014 0.522,0.021 -0.175,-0.007 -0.349,-0.016 -0.522,-0.021 m 1.288,0.065 c 0.183,0.013 0.367,0.028 0.551,0.046 -0.184,-0.018 -0.368,-0.033 -0.551,-0.046 m 7.078,1.138 c 0.146,0.034 0.29,0.066 0.437,0.101 -0.147,-0.035 -0.291,-0.067 -0.437,-0.101 m -10.785,-1.148 c 0.125,-0.01 0.258,-0.014 0.386,-0.021 -0.128,0.007 -0.261,0.011 -0.386,0.021 m 9.27,0.815 c 0.174,0.035 0.349,0.07 0.524,0.107 -0.175,-0.037 -0.35,-0.072 -0.524,-0.107 m -3.662,-0.615 c -0.192,-0.024 -0.382,-0.047 -0.57,-0.067 0.188,0.02 0.378,0.043 0.57,0.067 m 1.37,0.193 c -0.188,-0.029 -0.377,-0.057 -0.567,-0.085 0.19,0.028 0.379,0.056 0.567,0.085 m 1.403,0.245 c -0.188,-0.037 -0.373,-0.068 -0.56,-0.102 0.187,0.034 0.372,0.065 0.56,0.102 m 15.649,4.98 c -0.202,-0.09 -0.409,-0.179 -0.616,-0.269 0.206,0.09 0.414,0.179 0.616,0.269 m 7.753,4.807 c 0.042,0.083 0.076,0.164 0.088,0.238 -0.012,-0.074 -0.046,-0.155 -0.088,-0.238 m -3.113,70.497 c -0.339,-5.645 -0.488,-10.289 -0.549,-12.668 0.061,2.379 0.209,7.024 0.548,12.669 0,-10e-4 0.001,-10e-4 0.001,-10e-4 m 2.6,-71.144 c 0.092,0.089 0.178,0.177 0.248,0.26 -0.07,-0.083 -0.155,-0.17 -0.248,-0.26 m 14.864,46.891 c -0.057,-0.216 -0.115,-0.434 -0.169,-0.643 0.059,0.225 0.115,0.441 0.169,0.643 m 6.169,-35.155 c 5.935,-13.482 17.768,-34.752 -3.559,-69.561 14.955,27.555 11.266,47.7 4.974,65.835 -1.947,5.613 -4.653,10.792 -6.618,16.183 1.556,-3.816 3.536,-7.648 5.203,-12.457 m -6.98,-81.028 c 0.006,-0.036 0.018,-0.071 0.023,-0.107 -21.05,-41.995 -3.267,-56.041 -25.307,-90.66 -19.344,-12.716 -50.383,-33.732 -60.397,-44.028 l -0.015,1.898 c 10.031,10.3 41.044,29.42 60.376,42.13 22.039,34.619 4.221,48.665 25.27,90.66 0.018,0.037 0.034,0.071 0.05,0.107 m -69.674,-84.131 c -1.554,-0.192 -10.935,-6.223 -16.324,-9.635 v 0.001 c 5.395,3.416 14.783,9.452 16.324,9.634 m 26.014,143.584 c -0.162,0 -0.325,-0.002 -0.482,10e-4 0.157,-0.003 0.32,-10e-4 0.482,-10e-4 m 20.546,4.903 c 0.205,0.085 0.413,0.17 0.616,0.256 -0.203,-0.086 -0.411,-0.171 -0.616,-0.256 m 5.879,2.771 c 0.209,0.117 0.404,0.23 0.599,0.343 -0.195,-0.113 -0.39,-0.226 -0.599,-0.343 m -0.198,-0.105 c -0.715,-0.391 -1.508,-0.794 -2.366,-1.203 0.857,0.409 1.651,0.812 2.366,1.203 m -3.347,-1.658 c 0.215,0.097 0.429,0.194 0.635,0.289 -0.206,-0.095 -0.42,-0.192 -0.635,-0.289 m 5.566,3.004 c -0.142,-0.101 -0.29,-0.2 -0.451,-0.304 0.16,0.104 0.309,0.203 0.451,0.304 m 1.052,0.819 c -0.098,-0.09 -0.205,-0.181 -0.321,-0.275 0.116,0.094 0.223,0.185 0.321,0.275 m -1.723,-1.262 c -0.168,-0.107 -0.337,-0.212 -0.52,-0.32 0.181,0.108 0.352,0.213 0.52,0.32 m 0.865,0.576 c 0.135,0.099 0.264,0.194 0.386,0.29 -0.122,-0.096 -0.251,-0.191 -0.386,-0.29 m 1.457,1.383 c -0.044,-0.078 -0.106,-0.161 -0.172,-0.246 0.066,0.085 0.128,0.168 0.172,0.246 m 13.572,-69.868 c 0.322,0.659 0.585,1.312 0.933,1.988 l 0.166,0.046 c -0.383,-0.735 -0.724,-1.438 -1.085,-2.157 -0.005,0.04 -0.009,0.083 -0.014,0.123 m -57.301,299.538 c 0.047,0.02 0.089,0.038 0.132,0.058 -0.043,-0.02 -0.085,-0.038 -0.132,-0.058 m 23.97,6.324 c -0.301,0.002 -0.599,0.01 -0.906,10e-4 0.307,0.009 0.605,10e-4 0.906,-10e-4 m -16.28,-3.236 c 0.13,0.046 0.262,0.087 0.393,0.132 -0.131,-0.045 -0.263,-0.086 -0.393,-0.132 m 14.675,3.204 c -0.27,-0.013 -0.537,-0.02 -0.812,-0.04 0.275,0.02 0.542,0.027 0.812,0.04 m -16.569,-3.89 c 0.106,0.038 0.21,0.075 0.316,0.114 -0.106,-0.039 -0.21,-0.076 -0.316,-0.114 m -3.663,-1.471 c -0.061,-0.025 -0.122,-0.049 -0.184,-0.076 0.062,0.027 0.123,0.051 0.184,0.076 m 1.752,0.726 c 0.07,0.029 0.139,0.054 0.209,0.083 -0.07,-0.029 -0.139,-0.054 -0.209,-0.083 m -5.837,-2.563 c 0.016,0.008 0.032,0.015 0.049,0.023 -0.017,-0.008 -0.033,-0.015 -0.049,-0.023 m 27.839,7.143 c -0.446,0.042 -0.907,0.071 -1.378,0.086 0.471,-0.015 0.932,-0.044 1.378,-0.086 m -16.33,-2.523 c 0.149,0.048 0.294,0.09 0.442,0.137 -0.148,-0.047 -0.293,-0.089 -0.442,-0.137 m 1.838,0.565 c 0.167,0.049 0.331,0.091 0.498,0.139 -0.167,-0.048 -0.331,-0.09 -0.498,-0.139 m -42.981,-25.533 -0.433,55.891 0.404,0.016 0.298,-55.65 c 0.007,0.009 0.016,0.015 0.024,0.024 -0.097,-0.094 -0.197,-0.186 -0.293,-0.281 m 46.547,26.467 c 0.215,0.051 0.426,0.091 0.638,0.138 -0.212,-0.047 -0.423,-0.087 -0.638,-0.138 m -1.765,-0.434 c 0.191,0.05 0.377,0.092 0.565,0.139 -0.188,-0.047 -0.374,-0.089 -0.565,-0.139 m 6.786,1.322 c 0.274,0.034 0.538,0.053 0.806,0.078 -0.268,-0.025 -0.532,-0.044 -0.806,-0.078 m -3.299,-0.52 c 0.237,0.046 0.464,0.082 0.697,0.124 -0.233,-0.043 -0.46,-0.078 -0.697,-0.124 m 1.676,0.296 c 0.257,0.042 0.508,0.071 0.764,0.107 -0.256,-0.036 -0.507,-0.065 -0.764,-0.107 m -47.152,-180.8 c 0.204,-0.588 0.329,-1.176 0.506,-1.756 -0.483,1.308 -0.891,2.739 -1.21,4.082 0.211,-0.805 0.448,-1.595 0.704,-2.326 m 1.513,-3.988 c 0.088,-0.152 0.167,-0.308 0.262,-0.456 -0.09,0.143 -0.176,0.301 -0.262,0.456 m -3.175,11.367 c 0.085,-0.719 0.229,-1.355 0.348,-2.142 -0.23,1.248 -0.345,2.089 -0.347,2.094 z m 3.967,-12.553 c -0.02,0.023 -0.04,0.045 -0.06,0.066 0.02,-0.021 0.04,-0.043 0.06,-0.066 m -4.578,87.301 c 5.772,-9.065 16.009,-23.696 16.009,-23.787 v -0.004 c 0,0 -9.907,14.245 -15.739,23.366 l 0.613,-56.875 c -0.036,-0.009 -0.141,-0.016 -0.176,-0.024 -0.034,-2.437 -0.104,-4.874 -0.138,-7.311 l 0.067,7.335 z m 5.17,-87.877 c -0.034,0.025 -0.064,0.055 -0.097,0.082 0.033,-0.027 0.063,-0.057 0.097,-0.082 M 323.67,244.564 c -0.574,-0.02 -1.259,0.256 -2.066,0.887 0.807,-0.631 1.492,-0.907 2.066,-0.887 m 0.024,29.978 c 0,0 0.198,-0.133 0.497,-0.362 l 0.011,-0.029 c -0.304,0.234 -0.48,0.362 -0.504,0.377 -0.002,0.005 -0.003,0.01 -0.004,0.014 m -14.491,-11.374 c -0.021,-0.058 0.068,-0.114 0.068,-0.171 v 0.186 c 4.721,4.038 10.795,10.603 13.716,14.801 l -0.135,-0.052 c -2.904,-4.157 -8.631,-10.585 -13.617,-14.617 0.003,-0.027 0.036,-0.059 0.036,-0.086 v -0.046 c 0,-0.005 0.006,-0.011 -0.068,-0.015 m 37.542,57.012 c 0.535,-1.708 -11.743,1.451 -13.052,5.437 l 15.26,4.612 c 0,0 -3.561,-2.961 -3.744,-4.413 -0.124,-0.983 1.118,-4.296 1.536,-5.636 m 52.463,-62.904 c -0.156,-0.289 -0.302,-0.572 -0.463,-0.861 -1.016,-0.754 -1.759,-1.524 -2.833,-2.287 -5.831,-4.122 -12.266,-8.225 -12.266,-8.225 v -1.899 l 11.807,3.483 v -0.003 l 1.374,0.375 c -0.007,-0.016 -0.052,-0.032 -0.06,-0.046 l 0.147,0.046 c -0.384,-0.735 -0.735,-1.438 -1.095,-2.157 -21.049,-41.995 -3.272,-56.041 -25.312,-90.66 -19.344,-12.716 -50.386,-33.732 -60.398,-44.028 l -0.017,1.898 c -0.004,-0.005 -0.012,-0.012 -0.018,-0.016 l -0.201,27.212 c 5.508,9.135 16.95,20.82 16.441,21.527 -0.031,0.042 -0.359,0.055 -0.46,0.043 -1.556,-0.192 -10.681,-5.984 -16.583,-9.393 v 0.087 h 0.517 l -0.116,14.728 c -0.321,-0.043 -0.631,-0.195 -0.919,-0.195 0,0 0.494,16.163 0.547,19.704 h -0.243 l -0.564,2.361 h 0.844 c 0.051,-1.18 0.111,-0.762 0.176,-0.923 0.517,-1.296 1.365,-2.722 1.365,-2.722 l 1.597,3.645 h 3.396 l 2.871,-0.288 c 0.529,0.029 1.825,-1.425 1.825,-1.425 l 0.99,1.248 9.706,0.513 c -1.711,-3.09 -3.79,-6.217 -6.24,-8.943 -1.089,0.83 -3.103,2.437 -3.103,1.188 0,-1.481 -0.781,-4.752 -0.781,-4.752 l -0.284,-0.391 c -1.251,-0.975 -2.581,-1.826 -3.979,-2.542 -1.327,0.955 -3.147,2.226 -3.231,2.082 -0.083,-0.141 -0.606,-2.214 -1.084,-3.74 -0.971,-0.245 -1.768,-0.42 -2.891,-0.514 -0.145,-0.01 -0.399,-0.025 -0.399,-0.035 v -3.132 c 0,0 0.268,0.011 0.422,0.022 4.896,0.343 14.529,6.049 23.846,13.684 15.357,12.588 29.789,30.409 20.475,38.056 -10.261,8.424 -31.848,1.092 -44.713,-4.514 l -0.212,27.134 c 4.821,1.187 10.729,0.008 18.114,-6.322 10.922,9.319 10.624,18.438 7.329,25.436 9.946,-2.665 28.213,-12.399 40.722,-46.209 1.421,4.357 -19.582,62.396 -54.009,74.299 -6.271,15.616 -17.109,48.684 5.313,58.352 0.51,0.063 1.046,0.151 1.612,0.272 0.909,0.195 1.889,0.454 2.899,0.74 3.448,-1.646 17.821,-9.415 -3.177,-15.756 -4.203,-1.269 -5.862,-7.505 -4.761,-7.87 1.094,-0.363 14.142,-18.282 26.214,-20.112 0.36,-0.054 0.734,-0.096 1.119,-0.128 0.125,-0.01 0.258,-0.014 0.386,-0.021 0.262,-0.016 0.523,-0.032 0.795,-0.039 0.157,-0.003 0.32,-10e-4 0.482,-10e-4 0.248,-10e-4 0.499,-10e-4 0.756,0.006 0.173,0.005 0.347,0.014 0.522,0.021 0.255,0.013 0.508,0.025 0.766,0.044 0.183,0.013 0.367,0.028 0.551,0.046 0.258,0.022 0.519,0.048 0.78,0.077 0.188,0.02 0.378,0.043 0.57,0.067 0.266,0.033 0.534,0.07 0.803,0.108 0.19,0.028 0.379,0.056 0.567,0.085 0.279,0.045 0.561,0.094 0.843,0.143 0.187,0.034 0.372,0.065 0.56,0.102 0.296,0.056 0.592,0.115 0.889,0.177 0.174,0.035 0.349,0.07 0.524,0.107 0.329,0.071 0.661,0.148 0.991,0.226 0.146,0.034 0.29,0.066 0.437,0.101 0.46,0.111 0.921,0.228 1.382,0.351 0.015,0.004 0.032,0.007 0.047,0.012 0.481,0.126 0.958,0.26 1.437,0.396 0.145,0.043 0.287,0.088 0.434,0.13 0.331,0.098 0.661,0.195 0.99,0.298 0.18,0.055 0.36,0.113 0.537,0.17 0.289,0.092 0.576,0.183 0.862,0.278 0.199,0.065 0.396,0.132 0.596,0.2 0.261,0.089 0.524,0.177 0.781,0.268 0.206,0.072 0.408,0.145 0.611,0.219 0.247,0.087 0.492,0.176 0.738,0.268 0.207,0.076 0.413,0.153 0.616,0.231 0.234,0.088 0.466,0.177 0.694,0.267 0.207,0.08 0.412,0.162 0.616,0.243 0.218,0.087 0.432,0.175 0.646,0.262 0.205,0.085 0.413,0.17 0.616,0.256 0.199,0.083 0.395,0.168 0.589,0.251 0.206,0.09 0.414,0.179 0.616,0.269 0.174,0.077 0.343,0.155 0.513,0.232 0.215,0.097 0.429,0.194 0.635,0.289 0.118,0.056 0.229,0.111 0.346,0.166 0.857,0.409 1.651,0.812 2.366,1.203 0.066,0.034 0.133,0.07 0.198,0.105 0.209,0.117 0.404,0.23 0.599,0.343 0.076,0.045 0.157,0.09 0.231,0.135 0.181,0.108 0.352,0.213 0.52,0.32 0.075,0.045 0.15,0.093 0.22,0.139 0.16,0.104 0.309,0.203 0.451,0.304 0.067,0.044 0.132,0.089 0.194,0.133 0.135,0.099 0.264,0.194 0.386,0.29 0.052,0.039 0.103,0.081 0.151,0.121 0.116,0.094 0.223,0.185 0.321,0.275 0.039,0.035 0.074,0.071 0.109,0.105 0.092,0.089 0.178,0.177 0.248,0.26 0.026,0.029 0.045,0.056 0.07,0.086 0.066,0.085 0.128,0.168 0.172,0.246 0.009,0.018 0.014,0.036 0.023,0.055 0.042,0.083 0.076,0.164 0.088,0.238 0.048,0.277 -0.104,0.492 -0.498,0.622 -4.39,1.463 -16.948,-1.116 -15.119,2.177 1.83,3.291 2.904,4.213 0.398,9.792 -3.109,6.919 21.366,1.825 22.832,0 3.293,5.854 -1.163,10.707 -4.454,11.075 -3.29,0.369 -13.545,-6.58 -17.819,-0.005 l 7.469,10.226 -33.357,3.061 c 10.19,3.998 21.562,9.199 28.744,10.922 6.205,1.492 13.315,-11.977 21.578,-15.278 -3.252,2.053 -7.425,26.552 -7.425,26.552 -1.173,-0.433 -3.301,-0.957 -6.099,-1.553 0.061,2.379 0.209,7.024 0.548,12.669 0,-10e-4 0.001,-10e-4 0.001,-10e-4 v 10e-4 c 0.198,3.244 0.456,6.81 0.796,10.458 0.791,8.496 2.023,17.419 3.94,23.658 1.634,5.308 4.745,6.677 8.18,5.755 0.916,-0.247 1.856,-0.659 2.796,-1.202 5.975,-3.457 11.993,-12.278 12.41,-18.559 0.336,-5.049 -1.705,-13.603 -4.196,-22.368 -2.128,-7.493 -4.58,-15.133 -6.162,-20.881 -0.106,-0.383 -0.203,-0.748 -0.3,-1.115 -0.054,-0.202 -0.11,-0.418 -0.169,-0.643 -0.368,-1.419 -0.671,-2.698 -0.874,-3.776 -1.283,-6.812 -0.038,-12.661 2.009,-18.279 1.556,-3.816 3.536,-7.648 5.203,-12.457 5.935,-13.482 17.768,-34.752 -3.559,-69.561 m -91.27,-57.499 c -0.061,1.612 -0.447,1.515 -1.624,1.659 1.285,0.847 2.373,1.512 3.082,1.419 0,0 1.914,0.177 1.979,-1.59 0.083,-2.195 -0.674,-5.092 1.884,0.277 2.558,5.366 8.854,3.897 9.637,3.168 0.785,-0.729 0.923,-4.855 0.923,-4.855 l 2.329,4.241 c 0,0 10.29,2.784 11.386,1.686 0.365,-0.365 -0.279,-4.169 -2.117,-9.117 -2.422,-0.908 -5.558,-1.724 -8.972,-2.439 l -3.333,2.594 -0.235,-3.299 c -1.352,-0.246 -2.719,-0.477 -4.078,-0.696 l -5.815,-0.781 -0.892,3.218 -1.151,-3.481 -1.458,-0.199 -1.642,-0.223 0.834,2.527 0.03,-0.111 c -0.455,2.562 -0.735,5.16 -0.767,6.002 m 16.679,74.374 c -1.179,0.234 -0.688,0.362 -0.71,0.377 1.282,-3.878 5.235,-29.781 -0.134,-29.964 -0.574,-0.02 -1.31,0.256 -2.117,0.887 -0.269,0.212 -0.578,0.46 -0.876,0.752 -5.295,5.193 -8.538,6.807 -11.752,5.829 l 0.037,10.869 c 0.016,0.032 0.206,0.065 0.206,0.096 v 0.186 c 4.721,4.038 10.795,10.603 13.716,14.801 l -0.065,-0.052 c 0.011,0.016 -0.018,0.036 -0.005,0.052 l 1.541,-3.833 c -0.014,0.011 0.159,0.019 0.159,0.029 z m -6.693,175.581 c -0.467,3.596 -0.502,6.943 0.299,9.34 0.617,1.852 2.954,1.399 6.259,-0.461 12.365,-6.956 38.438,-33.833 40.168,-35.565 1.312,-1.311 6.007,-19.295 9.58,-33.582 1.765,-7.054 3.25,-13.181 3.924,-15.979 -12.236,-2.576 -36.703,-6.468 -53.868,-10.336 0.031,3.573 1.35,9.102 0.409,10.979 -0.681,0.684 -7.97,-11.16 -11.495,-9.793 -0.22,0.085 -0.415,0.213 -0.601,0.355 -0.034,0.025 -0.064,0.055 -0.097,0.082 -0.178,0.149 -0.344,0.312 -0.495,0.494 -0.02,0.023 -0.04,0.045 -0.06,0.066 -0.145,0.181 -0.283,0.365 -0.405,0.552 -0.024,0.035 -0.041,0.075 -0.065,0.112 -0.09,0.143 -0.176,0.301 -0.262,0.456 -0.326,0.565 -0.62,1.151 -0.862,1.757 -0.063,0.157 -0.096,0.316 -0.145,0.475 -0.483,1.308 -0.891,2.739 -1.21,4.082 -0.252,0.955 -0.463,1.927 -0.601,2.844 -0.002,0.025 0.018,0.044 0.015,0.067 -0.23,1.248 -0.322,2.089 -0.322,2.094 v 0.048 c 0,0.234 -0.073,0.473 -0.085,0.733 -0.056,1.183 -0.117,2.401 -0.111,3.585 0.004,0.856 0.018,1.712 0.03,2.568 0.016,1.077 0.026,2.152 0.042,3.227 l -0.058,7.335 -0.445,57.3 c 5.773,-9.065 15.978,-23.696 16.041,-23.787 -0.017,0.046 -4.339,11.388 -5.58,20.952 M 280.496,54.073 c -8.997,-8.239 -38.317,14.313 -38.317,14.313 0.038,0.014 0.071,0.065 0.109,0.08 -0.066,0.051 -0.109,0.095 -0.109,0.095 6.94,2.554 9.239,17.387 9.252,32.686 10e-4,8.07 -0.635,16.238 -1.556,22.821 7.372,-2.329 18.435,-5.849 27.608,-10.945 -3.837,5.889 -35.543,30.522 -42.193,35.668 -0.381,0.295 -0.72,0.526 -0.933,0.69 -0.116,0.105 -0.252,0.206 -0.371,0.31 -10.355,9.565 -23.528,21.451 -27.581,37.256 -6.293,24.541 -21.014,51.755 -26.501,62.727 -1.373,2.747 -1.852,7.439 -1.815,13.187 0.082,15.747 4.077,39.516 4.119,52.914 0.002,1.185 -0.027,2.288 -0.095,3.294 0,0 0.003,0.011 0.006,0.011 -0.004,0.04 -0.005,0.084 -0.007,0.124 0,0 6.571,12.787 9.499,30.343 0.182,1.089 0.277,2.101 0.302,3.054 0.195,10.466 -8.366,13.403 -8.557,26.772 -0.091,4.851 0.924,11.081 3.878,19.566 18.575,53.346 108.393,72.932 108.393,72.932 L 299.826,243.1 v 0.008 -0.045 c 0,-1.377 -1.299,-2.727 -2.064,-3.98 l -8.589,-3.516 c -4.416,-0.047 -9.573,0.055 -11.392,0.736 -3.428,1.286 -18.609,8.976 -18.609,8.976 -4.389,-2.193 -4.812,-10.466 0.124,-9.369 4.938,1.097 18.189,-4.572 19.835,-4.456 4.398,-8.115 14.207,-4.457 16.402,-2.264 1.213,1.214 2.556,4.437 3.516,7.081 0.14,0.14 0.288,0.28 0.432,0.42 l -0.007,0.278 c 0,0 0.29,-0.002 0.289,-0.004 -0.095,-0.089 -0.187,-0.182 -0.282,-0.274 l 0.674,-25.409 -0.512,-0.103 c -0.427,-0.094 -0.921,-0.643 -0.921,-0.643 0,0 -0.611,-1.141 -1.3,-3.15 l -6.947,-0.706 h -15.363 c -7.034,0 -20.398,-7.754 -35.208,-11.595 l 60.613,0.118 10e-4,-0.33 h 0.002 l 0.487,0.221 v 0.103 l -0.242,-0.253 -0.042,-4.435 c 10e-4,0 -0.058,0.29 -0.057,0.29 l -0.066,0.533 h 0.116 c 10e-4,0 0.002,-0.388 0.005,-0.38 -0.038,-0.003 -0.082,-0.262 -0.116,-0.275 l 0.202,-9.722 c -0.268,-0.128 -0.507,-0.249 -0.724,-0.249 h -37.336 l 7.475,-4.431 30.165,-5.611 c 0.181,-0.124 0.37,-0.087 0.582,-0.181 l 1.028,-57.07 h -0.003 l -22.734,-1.537 22.217,-2.877 1.614,-57.412 c -4.208,2.924 -11.677,12.485 -22.595,2.486 M 179.218,215.042 c -1.195,-1.366 -9.224,1.709 -10.931,2.733 -1.709,1.026 3.928,24.256 3.928,24.256 0,0 8.2,-25.623 7.003,-26.989 m -12.181,18.791 c 1.367,5.198 -13.27,18.105 -18.395,23.914 -5.124,5.807 3.075,37.921 3.656,39.97 l 3.419,-11.957 c 0,0 -4.684,-17.423 -3.419,-23.87 1.263,-6.447 17.814,-18.225 14.739,-28.057 m -14.522,87.887 c 1.366,2.938 14.522,-26.054 14.522,-26.054 0,0 -4.046,-14.689 -7.261,-1.479 -3.215,13.209 -8.628,24.598 -7.261,27.533 m 0.51,56.729 c 0.013,2.705 0.389,5.345 0.597,7.905 0.347,2.548 0.655,5.012 1.162,7.314 0.234,1.153 0.442,2.277 0.685,3.356 0.281,1.071 0.555,2.107 0.818,3.1 0.469,1.993 1.155,3.763 1.653,5.345 0.555,1.577 1.144,2.918 1.581,4.024 0.485,1.084 0.934,1.905 1.209,2.48 0.285,0.569 0.435,0.874 0.435,0.874 0,0 -0.32,-1.321 -0.881,-3.632 -0.232,-1.151 -0.513,-2.548 -0.836,-4.151 -0.239,-1.626 -0.626,-3.421 -0.868,-5.419 -0.135,-0.995 -0.276,-2.029 -0.424,-3.1 -0.115,-1.073 -0.235,-2.184 -0.359,-3.326 -0.141,-1.138 -0.245,-2.31 -0.306,-3.513 -0.094,-1.198 -0.187,-2.423 -0.283,-3.668 -0.094,-2.496 -0.235,-5.07 -0.229,-7.686 -0.084,-2.618 0.025,-5.271 0.13,-7.923 -0.007,-1.328 0.159,-2.646 0.228,-3.966 0.111,-1.314 0.135,-2.636 0.335,-3.924 0.174,-1.291 0.324,-2.577 0.454,-3.85 0.103,-1.279 0.398,-2.506 0.582,-3.735 0.222,-1.222 0.393,-2.437 0.646,-3.603 0.26,-1.169 0.517,-2.31 0.766,-3.423 0.125,-0.557 0.248,-1.107 0.368,-1.649 0.155,-0.531 0.308,-1.054 0.459,-1.569 0.294,-1.035 0.58,-2.035 0.853,-2.995 0.142,-0.48 0.264,-0.957 0.413,-1.411 0.167,-0.448 0.329,-0.884 0.489,-1.311 0.306,-0.861 0.599,-1.678 0.874,-2.446 0.513,-1.558 1.1,-2.853 1.59,-3.927 0.95,-2.157 1.47,-3.43 1.47,-3.43 0,0 -0.808,1.081 -2.184,3.037 -0.342,0.493 -0.721,1.038 -1.134,1.631 -0.427,0.588 -0.742,1.3 -1.16,2.023 -0.404,0.733 -0.829,1.514 -1.279,2.336 -0.221,0.416 -0.447,0.842 -0.681,1.279 -0.208,0.443 -0.392,0.912 -0.598,1.384 -0.763,1.906 -1.794,3.925 -2.422,6.203 -0.359,1.128 -0.73,2.289 -1.108,3.473 -0.389,1.185 -0.589,2.439 -0.901,3.692 -0.623,2.511 -1.065,5.141 -1.428,7.829 -0.23,1.338 -0.282,2.703 -0.422,4.067 -0.095,1.366 -0.294,2.733 -0.304,4.108 -0.06,2.748 -0.123,5.497 0.01,8.197 m 14.57,22.782 c 3.293,0 9.061,10.591 9.061,10.591 0,0 -9.619,-53.636 0,-76.194 -14.69,22.558 -12.352,65.603 -9.061,65.603 m 2.265,28.137 c 0.042,1.193 0.01,2.951 0.143,5.182 0.111,1.112 0.234,2.343 0.369,3.683 0.068,0.671 0.14,1.369 0.214,2.093 0.129,0.717 0.263,1.461 0.402,2.227 0.138,0.767 0.281,1.56 0.428,2.375 0.139,0.818 0.293,1.657 0.538,2.499 0.458,1.69 0.87,3.489 1.428,5.329 0.634,1.816 1.24,3.731 1.971,5.675 0.829,1.902 1.59,3.918 2.551,5.905 1.938,3.968 4.149,8.092 6.849,12.093 0.673,1.002 1.322,2.035 2.033,3.035 0.73,0.984 1.463,1.976 2.204,2.974 l 1.114,1.504 1.189,1.453 c 0.798,0.972 1.6,1.948 2.405,2.928 3.339,3.813 6.85,7.599 10.626,11.104 3.718,3.573 7.668,6.885 11.617,10.068 3.986,3.13 7.995,6.109 11.986,8.827 3.981,2.732 7.908,5.256 11.693,7.543 3.771,2.319 7.421,4.364 10.793,6.241 6.767,3.712 12.536,6.563 16.563,8.529 3.984,1.951 6.263,3.067 6.263,3.067 l 2.931,-6.172 c 0,0 -2.347,-1.03 -6.453,-2.831 -4.068,-1.781 -9.842,-4.339 -16.633,-7.7 -3.381,-1.705 -7.044,-3.558 -10.832,-5.674 -3.804,-2.086 -7.753,-4.396 -11.762,-6.909 -4.02,-2.498 -8.064,-5.246 -12.095,-8.148 -3.991,-2.95 -7.996,-6.031 -11.774,-9.37 -3.841,-3.275 -7.424,-6.829 -10.85,-10.424 -0.827,-0.926 -1.649,-1.848 -2.468,-2.765 l -1.227,-1.375 -1.149,-1.422 c -0.765,-0.948 -1.526,-1.889 -2.281,-2.823 -0.735,-0.949 -1.411,-1.932 -2.112,-2.883 -2.811,-3.811 -5.144,-7.759 -7.211,-11.577 -1.027,-1.913 -1.856,-3.86 -2.751,-5.7 -0.801,-1.881 -1.473,-3.742 -2.176,-5.508 -0.626,-1.791 -1.107,-3.549 -1.631,-5.202 -0.278,-0.823 -0.465,-1.648 -0.636,-2.45 -0.178,-0.802 -0.353,-1.58 -0.523,-2.335 -0.168,-0.757 -0.332,-1.487 -0.49,-2.194 -0.104,-0.715 -0.203,-1.404 -0.3,-2.067 -0.189,-1.329 -0.362,-2.548 -0.52,-3.65 -0.227,-2.213 -0.268,-3.967 -0.359,-5.156 -0.074,-1.194 -0.113,-1.83 -0.113,-1.83 0,0 0.012,0.637 0.036,1.831 m 109.367,62.438 c -13.975,-3.345 -37.956,-7.901 -82.524,-45.045 10.017,29.629 73.401,65.805 77.432,62.881 4.027,-2.922 5.092,-17.836 5.092,-17.836 m 0.027,29.33 c 0,0 -1.978,-0.872 -5.434,-2.402 -3.438,-1.509 -8.32,-3.672 -14.093,-6.442 -5.774,-2.767 -12.433,-6.158 -19.373,-10.13 -3.479,-1.973 -7.008,-4.123 -10.548,-6.378 -3.518,-2.284 -7.061,-4.66 -10.476,-7.21 -1.741,-1.234 -3.38,-2.59 -5.071,-3.877 -1.626,-1.36 -3.292,-2.669 -4.85,-4.069 -1.568,-1.391 -3.131,-2.766 -4.586,-4.214 -1.506,-1.403 -2.896,-2.88 -4.266,-4.332 -1.4,-1.431 -2.611,-2.973 -3.89,-4.413 -1.184,-1.508 -2.362,-2.98 -3.432,-4.464 -2.102,-2.994 -3.961,-5.929 -5.401,-8.788 -0.71,-1.432 -1.45,-2.783 -1.957,-4.153 -0.524,-1.36 -1.147,-2.613 -1.486,-3.872 -0.386,-1.243 -0.778,-2.403 -1.086,-3.49 -0.244,-1.103 -0.469,-2.116 -0.67,-3.031 -0.101,-0.46 -0.196,-0.893 -0.283,-1.303 -0.053,-0.415 -0.102,-0.803 -0.147,-1.165 -0.091,-0.725 -0.169,-1.341 -0.232,-1.84 -0.126,-1.002 -0.192,-1.536 -0.192,-1.536 0,0 0.04,0.536 0.115,1.541 0.039,0.505 0.086,1.126 0.141,1.857 0.027,0.364 0.057,0.757 0.089,1.176 0.068,0.415 0.141,0.855 0.218,1.319 0.159,0.933 0.334,1.964 0.526,3.087 0.253,1.109 0.591,2.295 0.918,3.574 0.283,1.294 0.844,2.586 1.311,3.99 0.447,1.419 1.125,2.822 1.776,4.312 1.318,2.977 3.058,6.056 5.051,9.214 1.012,1.566 2.138,3.122 3.27,4.724 1.225,1.526 2.391,3.167 3.74,4.693 1.323,1.549 2.67,3.126 4.13,4.63 1.413,1.553 2.932,3.031 4.461,4.53 1.521,1.508 3.145,2.922 4.737,4.392 1.653,1.392 3.263,2.861 4.967,4.206 3.35,2.767 6.834,5.365 10.3,7.868 3.485,2.473 6.968,4.838 10.404,7.017 6.855,4.389 13.447,8.169 19.168,11.267 5.717,3.103 10.56,5.542 13.937,7.23 3.35,1.684 5.265,2.646 5.265,2.646 z M 450.799,263.552 c -10.245,-4.695 -18.339,-5.816 -24.756,-5.565 13.371,12.63 28.381,33.931 30.408,76.627 0.078,1.628 -20.83,-6.87 -20.839,-5.424 -0.107,18.973 5.672,23.821 11.842,23.621 6.984,-0.228 14.464,-6.924 14.464,-6.924 0,0 0.405,2.641 1.011,6.824 2.209,15.243 7.09,50.998 4.797,54.442 -2.924,4.389 -21.14,51.365 -29.19,56.489 -8.049,5.121 -19.566,-5.187 -25.472,2.271 -7.942,10.028 -0.293,15.224 9.003,17.905 8.771,2.53 19.012,2.82 19.012,2.82 0,0 -1.758,0.603 -4.558,1.581 -11.275,3.934 -39.757,14.046 -41.516,16.39 -2.194,2.927 -4.838,8.737 16.01,18.243 -10.972,6.584 -29.907,-7.269 -54.045,0.775 -22.879,7.625 -5.098,21.88 5.694,27.175 0.595,0.292 1.173,0.563 1.718,0.798 -0.446,0.042 -0.907,0.071 -1.378,0.086 -0.175,0.004 -0.36,0 -0.539,10e-4 -0.301,0.002 -0.599,0.01 -0.906,10e-4 -0.229,-0.004 -0.467,-0.022 -0.699,-0.033 -0.27,-0.013 -0.537,-0.02 -0.812,-0.04 -0.251,-0.017 -0.509,-0.05 -0.765,-0.073 -0.268,-0.025 -0.532,-0.044 -0.806,-0.078 -0.282,-0.031 -0.573,-0.077 -0.859,-0.117 -0.256,-0.036 -0.507,-0.065 -0.764,-0.107 -0.322,-0.051 -0.652,-0.114 -0.979,-0.172 -0.233,-0.042 -0.46,-0.078 -0.697,-0.124 -0.358,-0.07 -0.722,-0.152 -1.084,-0.23 -0.212,-0.047 -0.423,-0.087 -0.638,-0.138 -0.395,-0.091 -0.797,-0.193 -1.2,-0.295 -0.188,-0.047 -0.374,-0.089 -0.565,-0.139 -0.43,-0.112 -0.867,-0.237 -1.303,-0.361 -0.167,-0.048 -0.331,-0.09 -0.498,-0.139 -0.461,-0.135 -0.928,-0.281 -1.396,-0.428 -0.148,-0.047 -0.293,-0.089 -0.442,-0.137 -0.487,-0.157 -0.979,-0.324 -1.474,-0.494 -0.131,-0.045 -0.263,-0.086 -0.393,-0.132 -0.525,-0.183 -1.049,-0.376 -1.578,-0.572 -0.106,-0.039 -0.21,-0.076 -0.316,-0.114 -0.563,-0.213 -1.132,-0.436 -1.702,-0.662 -0.07,-0.029 -0.139,-0.054 -0.209,-0.083 -0.583,-0.233 -1.166,-0.477 -1.752,-0.726 -0.061,-0.025 -0.122,-0.049 -0.184,-0.076 -0.603,-0.258 -1.209,-0.524 -1.817,-0.797 -0.043,-0.02 -0.085,-0.038 -0.132,-0.058 -0.631,-0.286 -1.266,-0.581 -1.903,-0.883 -0.017,-0.008 -0.033,-0.015 -0.049,-0.023 -10.465,-4.979 -21.183,-12.111 -29.341,-20.067 -0.097,-0.094 -0.197,-0.186 -0.293,-0.281 L 306.476,580 303.743,579.901 77.17,572.047 c 0,0 -17.126,-538.584 5.788,-549.515 47.693,-19.773 226.908,-10.65 227.963,-10.65 h -0.043 l -0.743,95.83 c 8.266,4.535 19.586,8.432 30.647,11.735 l -4.878,-5.11 c 0,0 -18.643,-70.667 18.958,-96.057 1.036,-0.698 2.117,-1.381 3.241,-2.011 0.565,-0.316 1.149,-0.629 1.736,-0.928 3.264,-1.65 6.864,-3.016 10.863,-4.019 -0.7,0.978 -1.343,1.966 -1.945,2.965 -0.148,0.244 -0.289,0.488 -0.431,0.732 -0.328,0.57 -0.639,1.14 -0.937,1.715 -15.703,30.42 10.737,70.258 43.096,112.199 41.807,54.181 93.472,111.869 76.878,157.284 -0.301,0.823 -0.616,1.643 -0.962,2.459 -14.107,-12.919 -25.832,-20.647 -35.602,-25.124 M 300.721,190.68 c -0.038,-0.002 -0.082,-0.125 -0.116,-0.141 l -0.005,0.248 h 0.116 c 10e-4,0 0.002,-0.115 0.005,-0.107 m 95.075,55.145 c 0.005,-0.04 0.009,-0.083 0.014,-0.123 -0.005,0.036 -0.017,0.071 -0.023,0.107 0.002,0.004 0.003,0.01 0.009,0.016 m -96.033,-8.86 c -0.095,-0.089 -0.187,-0.182 -0.282,-0.274 l -0.007,0.278 c 0,0 0.29,-0.002 0.289,-0.004 m 0.835,-46.431 h 0.002 v -0.02 h -0.002 c -0.14,-0.001 -0.233,-0.002 -0.233,-0.002 0,0 0.093,0.007 0.233,0.022 m -52.541,126.655 c 2.562,3.417 0,8.883 0,8.883 -0.375,0.957 9.395,-2.219 9.565,-2.733 0.171,-0.512 -2.39,-4.611 -9.565,-6.15 m 17.975,2.221 c 1.098,0.365 -0.281,10.749 -3.844,13.309 -3.56,2.558 -4.632,16.792 -4.632,16.792 l 1.155,1.999 c 1.695,0.571 2.566,1.042 2.181,1.581 -1.898,2.658 -27.179,0.357 -47.249,-1.015 v 0.053 c -9.445,-0.304 -15.709,-0.148 -18.846,1.008 0,0 16.84,-7.842 13.549,-8.392 -0.901,-0.149 2.766,0.138 8.627,0.696 l 3.316,-5.799 c -4.273,-6.576 -12.454,-10.602 -15.746,-10.97 -3.293,-0.368 -3.302,-5.116 -0.011,-10.97 1.466,1.825 22.397,14.031 19.839,6.89 -4.671,-11.216 4.581,-8.536 6.414,-11.83 1.557,-5.366 -10.9,-4.202 -15.29,-5.664 -4.388,-1.462 9.956,-3.605 22.144,-2.89 23.304,1.367 27.296,14.838 28.393,15.202"
           style="fill:#000000;fill-opacity:1;fill-rule:nonzero;stroke:none"
           id="path2618"
           inkscape:connector-curvature="0" /></g></g></g></svg>