<?xml version="1.0" encoding="utf-8"?>
<svg version="1.1" id="Layer_1" xmlns="http://www.w3.org/2000/svg" xmlns:xlink="http://www.w3.org/1999/xlink" x="0px" y="0px"
	 viewBox="0 0 1734 1734" enable-background="new 0 0 1734 1734" xml:space="preserve">
<g>
	<g>
		<path fill="#FF0000" enable-background="new    " d="M1142.389,721.165c-15.724-61.228-65.174-100.001-133.205-107.354
			c-5.914-0.639-11.664-0.949-17.272-0.949c-59.136,0-101.212,34.534-125.268,81.733c-25.131-49.26-68.029-81.21-130.577-81.209
			c-4.139,0-8.369,0.14-12.681,0.424c-62.209,4.101-115.65,41.3-132.487,113.816c-30.287,130.445,113.069,263.789,275.745,393.51
			C1039.647,992.297,1174.62,846.67,1142.389,721.165z"/>
		<path d="M915.786,798.426c0-21.594-14.031-39.911-33.472-46.333c-4.816-1.591-9.964-2.453-15.313-2.453
			c-5.692,0-11.157,0.975-16.236,2.767c-18.962,6.69-32.55,24.767-32.55,46.019c0,15.375,7.113,29.088,18.227,38.03
			c4.083,3.285,6.227,8.414,5.77,13.634l-10.821,123.598c-0.502,5.736,4.019,10.67,9.776,10.67h49.996
			c5.744,0,10.26-4.912,9.779-10.636l-10.318-122.755c-0.449-5.338,1.815-10.564,6.063-13.826
			C908.3,828.224,915.786,814.2,915.786,798.426z"/>
	</g>
	<g>
		<path d="M878.66,44.006c4.079,1.802,12.333,9.37,13.168,19.291c0.399,4.744,0.632,4.44,10.101,4.67
			c15.386,0.629,27.609,15.507,30.516,26.275c10.191,37.078-23.825,71.533-30.563,79.737c-9.494,11.443-21.35,14.06-20.86,32.361
			c0.556,13.252,1.216,14.319,0.451,17.122c-0.6,2.249-2.4,3.96-2.898,6.252c-0.589,2.614-0.275,5.309-0.322,7.961
			c0.039,3.911-0.258,8.077,1.627,11.654c0.946,1.925,2.771,3.602,2.639,5.905c-0.253,3.226-3.266,5.203-4.179,8.175
			c-1.149,3.692-0.4,271.133-1.221,273.422c-2.188,6.102-16.214,7.402-17.477,0.624c-1.108-5.996,1.872-15.043-8.662-15.494
			c-0.212-0.005-45.96-2.485-46.326-2.512c-3.679-0.386-4.411-1.668-4.535-5.431c-0.159-18.414-3.854-19.59,25.147-17.805
			c6.243,0.498,5.229,3.427,6.18,5.903c1.506,3.923,5.229,3.221,6.575,1.056c2.29-3.682,2.298-22.989-0.248-25.281
			c-1.784-1.607-6.07-1.701-7.02-0.127c-0.382,0.632-0.315,1.423-0.408,2.156c-0.431,3.409-4.289,4.841-7.295,4.88
			c-0.355,0.006-19.089,0.276-21.739-1.47c-1.933-1.366-1.519-3.754-1.645-13.49c0.044-2.624-0.571-8.761,5.585-9.13
			c2.323-0.157,23.588,0.198,28.07,0.484c20.614,0.507,22.114,0.36,23.907-1.409c2.709-2.674,1.884,8.236,1.903-192.743
			c-0.015-7.393-3.18-7.228-3.713-10.867c-0.53-3.42,3.101-4.915,4.232-9.149c1.237-4.48,1.492-14.171-0.733-18.728
			c-1.929-4.208-4.74-4.094-3.51-10.855c5.957-31.398-9.094-24.801-36.59-64.789c-21.86-31.143-18.15-70.688,7.396-80.884
			c3.984-1.787,8.36-2.348,12.659-2.823c2.399-0.219,4.92,0.597,7.225-0.343c0.429-0.175,0.589-7.179,0.781-8.002
			c2.831-12.099,14.122-19.451,25.535-18.524C874.602,42.285,876.666,43.124,878.66,44.006 M872.86,46.293
			c-10.729-1.553-18.93,5.379-21.749,12.186c-4.494,10.855,3.617,13.266,10.631,19.351c6.395,5.547,6.064,4.441,17.839-3.382
			c2.377-1.579,4.816-3.218,6.42-5.579c4.265-6.279-1.219-15.552-6.378-19.542C877.688,47.743,875.348,46.639,872.86,46.293
			 M862.363,179.062c4.551,3.567,7.699,4.783,14.285-1.296c17.723-16.36,7.765-6.058,18.937-18.249
			c14.142-15.583,29.818-42.366,22.181-61.768c-8.885-22.413-32.043-15.315-41.996-0.813c-1.022,1.489-4.107,6.919-6.943,7.334
			c-1.643,0.24-2.505-0.984-3.514-2.209C827.438,53.12,785.349,114.211,862.363,179.062z"/>
		<path d="M665.256,69.031c4.407,0.685,14.338,5.859,17.712,15.225c1.614,4.479,1.76,4.125,10.965,1.896
			c15.025-3.374,30.682,7.833,36.277,17.482c19.44,33.177-4.499,75.262-8.884,84.93c-6.209,13.51-16.984,19.107-11.774,36.657
			c3.967,12.657,4.88,13.516,4.867,16.422c0.003,2.328-1.294,4.446-1.181,6.789c0.108,2.677,1.108,5.2,1.749,7.773
			c1.05,3.768,1.841,7.868,4.587,10.836c1.412,1.615,3.609,2.762,4.078,5.021c0.59,3.182-1.808,5.871-1.92,8.978
			c-0.155,3.864,69.788,261.997,69.588,264.422c-0.534,6.46-13.746,11.346-16.72,5.126c-2.622-5.505-2.085-15.015-12.377-12.725
			c-0.207,0.05-45.037,9.495-45.398,9.564c-3.654,0.579-4.693-0.47-5.786-4.073c-4.919-17.745-8.793-17.925,19.682-23.707
			c6.159-1.135,5.938,1.956,7.497,4.103c2.47,3.4,5.884,1.758,6.624-0.681c1.259-4.15-3.73-22.8-6.783-24.356
			c-2.14-1.09-6.304-0.071-6.814,1.694c-0.205,0.709,0.064,1.456,0.164,2.188c0.466,3.404-2.89,5.786-5.783,6.602
			c-0.342,0.098-18.367,5.207-21.379,4.207c-2.22-0.819-2.439-3.233-5.081-12.605c-0.637-2.546-2.819-8.314,3.031-10.264
			c2.203-0.753,22.836-5.914,27.239-6.797c20.043-4.846,21.453-5.376,22.728-7.549c1.925-3.284,3.952,7.468-48.047-186.668
			c-1.928-7.137-4.942-6.159-6.399-9.535c-1.397-3.166,1.724-5.55,1.719-9.932c0.036-4.648-2.227-14.074-5.556-17.901
			c-2.952-3.565-5.638-2.728-6.199-9.577c-2.372-31.87-15.203-21.603-52.112-53.111c-29.176-24.424-35.827-63.581-13.79-80.043
			c3.385-2.758,7.468-4.432,11.497-6.003c2.261-0.833,4.907-0.697,6.89-2.201c0.369-0.28-1.29-7.087-1.317-7.931
			c-0.397-12.42,8.607-22.444,19.87-24.501C660.891,68.419,663.102,68.695,665.256,69.031 M660.246,72.742
			c-10.765,1.277-16.893,10.095-17.854,17.4c-1.532,11.649,6.927,11.878,15.277,15.94c7.612,3.703,7.007,2.72,16.356-7.884
			c1.888-2.141,3.819-4.355,4.757-7.051c2.495-7.169-5.203-14.706-11.219-17.226C665.284,72.893,662.739,72.431,660.246,72.742
			 M684.47,203.703c5.319,2.268,8.675,2.627,13.463-4.949c12.885-20.389,5.932-7.861,13.569-22.528
			c9.627-18.712,17.836-48.64,5.438-65.404c-14.383-19.35-34.915-6.5-40.776,10.084c-0.602,1.702-2.176,7.746-4.808,8.881
			c-1.525,0.658-2.675-0.302-3.966-1.224C618.138,91.092,593.295,160.994,684.47,203.703z"/>
		<path d="M465.601,148.437c4.434-0.479,15.366,1.949,21.049,10.122c2.718,3.909,2.768,3.529,11.082-1.006
			c13.639-7.148,31.664-0.375,39.565,7.497c27.365,27.015,15.133,73.862,13.4,84.335c-2.5,14.657-11.46,22.852-1.885,38.455
			c7.108,11.199,8.212,11.793,8.951,14.603c0.605,2.248-0.099,4.63,0.616,6.863c0.797,2.558,2.416,4.736,3.701,7.056
			c1.989,3.368,3.815,7.124,7.236,9.279c1.782,1.194,4.201,1.734,5.238,3.795c1.394,2.921-0.226,6.139,0.469,9.169
			c0.851,3.773,135.22,235.008,135.654,237.401c1.156,6.378-10.341,14.517-14.823,9.279c-3.958-4.638-5.9-13.963-15.248-9.088
			c-0.187,0.102-41.045,20.828-41.375,20.988c-3.379,1.505-4.654,0.761-6.643-2.436c-9.344-15.867-13.133-15.038,12.875-27.993
			c5.656-2.69,6.242,0.353,8.303,2.023c3.266,2.645,6.139,0.175,6.222-2.373c0.142-4.334-9.504-21.058-12.855-21.771
			c-2.349-0.499-6.107,1.563-6.143,3.4c-0.014,0.738,0.439,1.39,0.725,2.071c1.331,3.168-1.294,6.337-3.877,7.873
			c-0.305,0.183-16.394,9.784-19.562,9.597c-2.357-0.217-3.193-2.491-8.17-10.86c-1.274-2.294-4.875-7.301,0.272-10.699
			c1.933-1.298,20.527-11.623,24.551-13.616c18.105-9.868,19.331-10.745,20-13.174c1.009-3.67,5.75,6.191-94.723-167.872
			c-3.71-6.395-6.368-4.67-8.649-7.554c-2.169-2.697,0.228-5.807-0.91-10.039c-1.169-4.499-5.794-13.019-9.999-15.853
			c-3.775-2.679-6.152-1.176-8.467-7.646c-10.54-30.17-20.276-16.932-64.082-37.814c-34.503-16.04-51.062-52.142-34.037-73.746
			c2.556-3.54,6.066-6.213,9.552-8.774c1.968-1.389,4.559-1.943,6.086-3.909c0.284-0.366-3.08-6.512-3.324-7.32
			c-3.598-11.894,2.504-23.906,12.852-28.809C461.226,148.975,463.433,148.669,465.601,148.437 M461.722,153.317
			c-10.068,4.02-13.705,14.123-12.742,21.428c1.536,11.648,9.765,9.68,18.882,11.443c8.311,1.607,7.472,0.814,13.758-11.849
			c1.269-2.556,2.562-5.195,2.77-8.042c0.554-7.571-8.832-12.859-15.295-13.735C466.627,152.159,464.049,152.372,461.722,153.317
			 M519.016,273.546c5.725,0.814,9.059,0.293,11.723-8.265c7.169-23.029,3.696-9.128,7.276-25.273
			c4.456-20.566,4.64-51.599-11.675-64.583c-18.901-14.968-35.407,2.758-36.776,20.294c-0.141,1.8-0.097,8.045-2.346,9.823
			c-1.303,1.03-2.662,0.4-4.148-0.156C425.798,181.941,419.893,255.891,519.016,273.546z"/>
		<path d="M293.3,276.811c4.159-1.611,15.346-2.095,22.952,4.329c3.637,3.072,3.587,2.692,10.444-3.84
			c11.324-10.435,30.488-8.557,40.158-2.999c33.424,19.012,33.735,67.429,34.771,77.993c1.378,14.805-5.155,25.039,8.132,37.633
			c9.764,8.977,10.984,9.265,12.426,11.789c1.166,2.015,1.103,4.497,2.372,6.47c1.432,2.265,3.56,3.949,5.401,5.857
			c2.793,2.738,5.528,5.894,9.391,7.09c2.03,0.692,4.507,0.587,6.042,2.31c2.102,2.46,1.37,5.988,2.826,8.735
			c1.798,3.424,191.437,192.002,192.476,194.202c2.768,5.862-6.231,16.699-11.917,12.799c-5.023-3.456-9.313-11.961-17.081-4.831
			c-0.154,0.147-34.255,30.741-34.533,30.982c-2.874,2.328-4.299,1.94-7.047-0.634c-13.133-12.908-16.577-11.127,5.191-30.372
			c4.767-4.062,6.121-1.275,8.544-0.195c3.839,1.709,5.975-1.42,5.396-3.902c-0.985-4.223-14.631-17.881-18.052-17.701
			c-2.398,0.125-5.495,3.09-5.054,4.874c0.177,0.717,0.784,1.229,1.236,1.813c2.106,2.715,0.391,6.456-1.707,8.609
			c-0.247,0.256-13.303,13.693-16.411,14.333c-2.332,0.401-3.729-1.58-10.702-8.376c-1.824-1.886-6.599-5.791-2.507-10.405
			c1.531-1.754,16.819-16.54,20.191-19.506c14.935-14.218,15.891-15.382,15.909-17.901c0.025-3.806,7.156,4.492-134.944-137.635
			c-5.238-5.217-7.359-2.862-10.31-5.058c-2.793-2.043-1.283-5.669-3.477-9.462c-2.293-4.043-8.966-11.075-13.762-12.724
			c-4.339-1.611-6.247,0.456-10.157-5.194c-17.989-26.414-23.967-11.107-71.686-19.94c-37.479-6.564-62.818-37.15-51.964-62.424
			c1.553-4.081,4.251-7.572,6.955-10.947c1.541-1.851,3.901-3.057,4.866-5.351c0.18-0.427-4.66-5.493-5.106-6.21
			c-6.554-10.558-3.768-23.74,4.957-31.154C289.214,278.463,291.267,277.596,293.3,276.811 M290.816,282.529
			c-8.684,6.489-9.583,17.189-6.762,23.996c4.498,10.854,11.938,6.823,21.2,6.166c8.444-0.599,7.428-1.148,10.223-15.006
			c0.564-2.798,1.13-5.681,0.594-8.485c-1.424-7.456-11.859-10.135-18.328-9.308C295.255,280.141,292.82,281.014,290.816,282.529
			 M377.276,383.833c5.741-0.696,8.826-2.062,9.184-11.018c0.964-24.1,1.207-9.774,0.487-26.295
			c-1.018-21.019-8.873-51.042-27.992-59.36c-22.131-9.566-33.487,11.828-30.271,29.121c0.33,1.775,1.988,7.796,0.276,10.095
			c-0.992,1.332-2.467,1.076-4.047,0.923C263.526,319.475,276.961,392.434,377.276,383.833z"/>
		<path d="M160.096,445.406c3.6-2.632,14.281-5.995,23.29-1.758c4.308,2.026,4.161,1.672,9.094-6.413
			c8.238-13.01,27.234-16.156,38.013-13.29c37.206,9.714,50.037,56.4,53.773,66.336c5.163,13.943,1.501,25.52,17.595,34.246
			c11.755,6.144,13.008,6.107,15.054,8.171c1.648,1.644,2.229,4.059,3.965,5.636c1.969,1.817,4.46,2.893,6.733,4.26
			c3.407,1.922,6.865,4.262,10.906,4.418c2.14,0.143,4.505-0.599,6.434,0.667c2.667,1.832,2.873,5.43,4.991,7.706
			c2.623,2.842,234.608,135.913,236.18,137.768c4.191,4.946-1.697,17.743-8.198,15.447c-5.747-2.038-12.091-9.143-17.749-0.246
			c-0.111,0.181-25.132,38.56-25.338,38.864c-2.174,2.993-3.65,2.986-6.971,1.212c-16.026-9.069-18.892-6.457-2.846-30.681
			c3.553-5.158,5.582-2.815,8.202-2.4c4.151,0.658,5.404-2.918,4.202-5.166c-2.044-3.824-18.76-13.485-22.018-12.426
			c-2.284,0.742-4.508,4.407-3.62,6.016c0.357,0.646,1.075,0.985,1.663,1.431c2.737,2.078,2.048,6.135,0.579,8.757
			c-0.173,0.311-9.306,16.67-12.143,18.092c-2.149,0.991-4.011-0.561-12.506-5.32c-2.25-1.35-7.873-3.886-5.114-9.401
			c1.025-2.091,11.965-20.329,14.454-24.067c10.746-17.599,11.368-18.971,10.733-21.409c-0.961-3.683,8.075,2.486-165.969-98.019
			c-6.41-3.683-7.849-0.86-11.267-2.217c-3.227-1.251-2.706-5.143-5.807-8.239c-3.261-3.312-11.527-8.378-16.586-8.729
			c-4.609-0.433-5.916,2.058-11.156-2.388c-24.213-20.858-26.025-4.526-74.404-0.706c-37.9,3.36-70.292-19.625-66.35-46.848
			c0.444-4.344,2.147-8.414,3.885-12.374c1.01-2.187,2.977-3.962,3.315-6.428c0.063-0.459-5.923-4.099-6.539-4.677
			c-9.063-8.502-9.784-21.956-3.275-31.375C156.577,448.059,158.336,446.691,160.096,445.406 M159.177,451.572
			c-6.709,8.515-4.807,19.083-0.321,24.928c7.154,9.32,13.297,3.501,22.074,0.469c8.001-2.764,6.878-3.031,5.99-17.141
			c-0.179-2.849-0.379-5.78-1.622-8.349c-3.305-6.833-14.078-6.72-20.113-4.248C162.847,448.116,160.72,449.59,159.177,451.572
			 M268.91,527.046c5.365-2.158,7.992-4.276,6.02-13.019c-5.306-23.528-1.364-9.753-6.335-25.525
			c-6.424-20.039-21.782-47.006-42.402-50.093c-23.853-3.512-29.285,20.092-21.702,35.963c0.778,1.629,3.938,7.016,2.88,9.68
			c-0.613,1.543-2.105,1.678-3.67,1.939C142.379,494.322,174.24,561.317,268.91,527.046z"/>
		<path d="M75.067,642.731c2.796-3.474,12.243-9.487,22.041-7.726c4.686,0.842,4.452,0.538,7.125-8.548
			c4.59-14.699,22.125-22.654,33.278-22.676c38.452-0.247,62.93,41.528,69.11,50.158c8.596,12.132,8.055,24.262,25.859,28.525
			c12.945,2.893,14.145,2.532,16.655,3.996c2.017,1.162,3.204,3.344,5.289,4.417c2.372,1.245,5.057,1.64,7.606,2.372
			c3.788,0.975,7.735,2.34,11.678,1.445c2.104-0.415,4.197-1.745,6.387-1.021c3.051,1.08,4.181,4.501,6.815,6.152
			c3.269,2.066,261.791,70.56,263.79,71.946c5.328,3.693,2.953,17.577-3.92,17.043c-6.078-0.481-14.046-5.702-17.208,4.356
			c-0.06,0.204-14.295,43.75-14.416,44.098c-1.325,3.454-2.753,3.829-6.42,2.975c-17.827-4.612-19.92-1.347-10.69-28.899
			c2.097-5.901,4.663-4.164,7.302-4.441c4.179-0.439,4.465-4.217,2.722-6.077c-2.964-3.165-21.611-8.17-24.484-6.304
			c-2.014,1.308-3.214,5.424-1.94,6.748c0.512,0.532,1.293,0.673,1.977,0.952c3.181,1.299,3.566,5.396,2.826,8.309
			c-0.086,0.345-4.674,18.51-7.046,20.618c-1.82,1.513-4.019,0.496-13.457-1.902c-2.523-0.721-8.61-1.716-7.373-7.757
			c0.449-2.285,6.296-22.733,7.733-26.988c5.825-19.78,6.071-21.267,4.827-23.457c-1.881-3.308,8.443,0.312-185.683-51.724
			c-7.145-1.898-7.804,1.201-11.457,0.774c-3.441-0.373-3.945-4.268-7.742-6.455c-4.007-2.355-13.302-5.109-18.28-4.139
			c-4.564,0.774-5.182,3.519-11.394,0.58c-28.786-13.881-26.31,2.365-72.052,18.575c-35.739,13.055-72.977-0.764-76.214-28.079
			c-0.696-4.31-0.104-8.683,0.55-12.958c0.409-2.374,1.85-4.598,1.539-7.068c-0.058-0.459-6.782-2.427-7.527-2.825
			c-10.954-5.866-15.133-18.675-11.284-29.459C72.354,646.205,73.699,644.428,75.067,642.731 M75.775,648.925
			c-4.277,9.961,0.296,19.677,6.142,24.162c9.322,7.151,13.75-0.06,21.443-5.26c7.013-4.741,5.859-4.708,1.35-18.107
			c-0.91-2.705-1.862-5.485-3.728-7.645c-4.961-5.745-15.338-2.847-20.527,1.103C78.425,644.637,76.752,646.611,75.775,648.925
			 M201.303,693.427c4.624-3.473,6.613-6.199,2.445-14.134c-11.215-21.353-3.842-9.068-12.726-23.015
			c-11.391-17.693-33.206-39.767-53.922-37.411c-23.949,2.781-23.086,26.987-11.655,40.355c1.173,1.372,5.62,5.758,5.287,8.605
			c-0.193,1.649-1.599,2.165-3.043,2.823C70.613,694.567,118.728,751.033,201.303,693.427z"/>
		<path d="M44.006,855.34c1.802-4.079,9.37-12.333,19.291-13.168c4.744-0.399,4.44-0.632,4.67-10.101
			c0.629-15.386,15.507-27.609,26.275-30.516c37.078-10.191,71.533,23.825,79.737,30.563c11.443,9.494,14.06,21.35,32.361,20.86
			c13.252-0.556,14.319-1.216,17.122-0.451c2.249,0.6,3.96,2.4,6.252,2.898c2.614,0.589,5.309,0.275,7.961,0.322
			c3.911-0.039,8.077,0.258,11.654-1.627c1.925-0.946,3.602-2.771,5.905-2.639c3.226,0.253,5.203,3.266,8.175,4.179
			c3.692,1.149,271.133,0.4,273.422,1.221c6.102,2.188,7.402,16.214,0.624,17.477c-5.996,1.108-15.043-1.872-15.494,8.662
			c-0.005,0.212-2.485,45.96-2.512,46.326c-0.386,3.679-1.668,4.411-5.431,4.535c-18.414,0.159-19.59,3.854-17.805-25.147
			c0.498-6.243,3.427-5.229,5.903-6.18c3.923-1.506,3.221-5.229,1.056-6.575c-3.682-2.29-22.989-2.298-25.281,0.248
			c-1.607,1.784-1.701,6.07-0.127,7.02c0.632,0.382,1.423,0.315,2.156,0.408c3.409,0.431,4.841,4.289,4.88,7.295
			c0.006,0.355,0.276,19.089-1.47,21.739c-1.366,1.933-3.754,1.519-13.49,1.645c-2.624-0.044-8.761,0.571-9.13-5.585
			c-0.157-2.323,0.198-23.588,0.484-28.07c0.507-20.614,0.36-22.114-1.409-23.907c-2.674-2.709,8.236-1.884-192.743-1.903
			c-7.393,0.015-7.228,3.18-10.867,3.713c-3.42,0.53-4.915-3.101-9.149-4.232c-4.48-1.237-14.171-1.492-18.728,0.733
			c-4.208,1.929-4.094,4.74-10.855,3.51c-31.398-5.957-24.801,9.094-64.789,36.59c-31.143,21.86-70.688,18.15-80.884-7.396
			c-1.787-3.984-2.348-8.36-2.823-12.659c-0.219-2.399,0.597-4.92-0.343-7.225c-0.175-0.429-7.179-0.589-8.002-0.781
			c-12.099-2.831-19.451-14.122-18.524-25.535C42.285,859.398,43.124,857.334,44.006,855.34 M46.293,861.14
			c-1.553,10.729,5.379,18.93,12.186,21.749c10.855,4.494,13.266-3.617,19.351-10.631c5.547-6.395,4.441-6.064-3.382-17.839
			c-1.579-2.377-3.218-4.816-5.579-6.42c-6.279-4.265-15.552,1.219-19.542,6.378C47.743,856.312,46.639,858.652,46.293,861.14
			 M179.062,871.637c3.567-4.551,4.783-7.699-1.296-14.285c-16.36-17.723-6.058-7.765-18.249-18.937
			c-15.583-14.142-42.366-29.818-61.768-22.181c-22.413,8.885-15.315,32.043-0.813,41.996c1.489,1.022,6.919,4.107,7.334,6.943
			c0.24,1.643-0.984,2.505-2.209,3.514C53.12,906.562,114.211,948.651,179.062,871.637z"/>
		<path d="M69.031,1068.744c0.685-4.407,5.859-14.338,15.225-17.712c4.479-1.614,4.125-1.76,1.896-10.965
			c-3.374-15.024,7.833-30.682,17.482-36.277c33.177-19.44,75.262,4.499,84.93,8.884c13.51,6.209,19.107,16.984,36.657,11.774
			c12.657-3.967,13.516-4.88,16.422-4.867c2.328-0.003,4.446,1.294,6.789,1.181c2.677-0.108,5.2-1.108,7.773-1.749
			c3.768-1.05,7.868-1.841,10.836-4.587c1.615-1.412,2.762-3.609,5.021-4.078c3.182-0.59,5.871,1.808,8.978,1.92
			c3.864,0.155,261.997-69.788,264.422-69.588c6.46,0.534,11.346,13.746,5.126,16.72c-5.505,2.622-15.015,2.085-12.725,12.377
			c0.05,0.207,9.495,45.037,9.564,45.398c0.579,3.654-0.47,4.693-4.073,5.786c-17.745,4.919-17.925,8.793-23.707-19.682
			c-1.135-6.159,1.956-5.938,4.103-7.497c3.4-2.47,1.758-5.884-0.681-6.624c-4.15-1.259-22.8,3.73-24.356,6.783
			c-1.09,2.14-0.071,6.304,1.694,6.814c0.709,0.205,1.456-0.064,2.188-0.164c3.404-0.466,5.786,2.89,6.602,5.783
			c0.098,0.342,5.207,18.367,4.207,21.379c-0.819,2.22-3.233,2.439-12.605,5.081c-2.546,0.637-8.314,2.819-10.264-3.031
			c-0.753-2.203-5.914-22.836-6.797-27.239c-4.846-20.043-5.376-21.453-7.549-22.728c-3.284-1.925,7.468-3.952-186.668,48.047
			c-7.137,1.928-6.159,4.942-9.535,6.399c-3.166,1.397-5.55-1.724-9.932-1.719c-4.648-0.036-14.074,2.227-17.901,5.556
			c-3.565,2.953-2.728,5.638-9.577,6.199c-31.87,2.372-21.603,15.203-53.111,52.112c-24.424,29.176-63.581,35.827-80.043,13.79
			c-2.758-3.385-4.432-7.468-6.003-11.497c-0.833-2.261-0.697-4.907-2.201-6.89c-0.28-0.369-7.087,1.29-7.931,1.317
			c-12.42,0.397-22.444-8.607-24.501-19.87C68.419,1073.109,68.695,1070.898,69.031,1068.744 M72.742,1073.754
			c1.277,10.765,10.095,16.893,17.4,17.854c11.649,1.531,11.878-6.927,15.94-15.277c3.703-7.612,2.72-7.006-7.884-16.356
			c-2.141-1.888-4.355-3.819-7.051-4.757c-7.169-2.495-14.706,5.203-17.226,11.219C72.893,1068.716,72.431,1071.261,72.742,1073.754
			 M203.703,1049.53c2.268-5.32,2.627-8.675-4.949-13.463c-20.389-12.885-7.861-5.932-22.528-13.569
			c-18.712-9.627-48.64-17.836-65.404-5.438c-19.35,14.383-6.5,34.915,10.084,40.776c1.702,0.602,7.746,2.176,8.881,4.808
			c0.658,1.525-0.302,2.675-1.224,3.966C91.092,1115.862,160.994,1140.705,203.703,1049.53z"/>
		<path d="M148.437,1268.399c-0.479-4.434,1.949-15.366,10.122-21.049c3.909-2.718,3.529-2.767-1.006-11.082
			c-7.148-13.639-0.375-31.664,7.497-39.565c27.015-27.365,73.862-15.133,84.335-13.4c14.657,2.5,22.852,11.46,38.455,1.885
			c11.199-7.108,11.793-8.212,14.603-8.951c2.248-0.605,4.63,0.099,6.863-0.616c2.558-0.797,4.736-2.416,7.056-3.701
			c3.368-1.989,7.124-3.815,9.279-7.236c1.194-1.782,1.734-4.201,3.795-5.238c2.921-1.394,6.139,0.227,9.169-0.469
			c3.773-0.851,235.008-135.22,237.401-135.654c6.378-1.156,14.517,10.341,9.279,14.823c-4.638,3.958-13.963,5.9-9.088,15.248
			c0.102,0.187,20.828,41.045,20.988,41.375c1.505,3.379,0.761,4.654-2.436,6.643c-15.867,9.344-15.038,13.133-27.993-12.875
			c-2.69-5.656,0.353-6.242,2.023-8.303c2.645-3.266,0.175-6.139-2.373-6.222c-4.334-0.142-21.058,9.504-21.771,12.855
			c-0.499,2.349,1.563,6.107,3.4,6.143c0.738,0.014,1.39-0.439,2.071-0.725c3.168-1.331,6.337,1.294,7.873,3.877
			c0.183,0.305,9.784,16.394,9.597,19.562c-0.217,2.357-2.491,3.193-10.86,8.17c-2.294,1.274-7.301,4.875-10.699-0.272
			c-1.298-1.933-11.623-20.527-13.616-24.551c-9.868-18.105-10.745-19.331-13.174-20c-3.67-1.009,6.191-5.75-167.872,94.723
			c-6.395,3.71-4.67,6.367-7.554,8.649c-2.697,2.169-5.807-0.228-10.039,0.91c-4.499,1.169-13.019,5.794-15.853,9.999
			c-2.679,3.775-1.176,6.152-7.646,8.467c-30.17,10.54-16.932,20.276-37.814,64.083c-16.04,34.503-52.142,51.062-73.746,34.037
			c-3.54-2.556-6.213-6.066-8.774-9.552c-1.389-1.968-1.943-4.559-3.909-6.086c-0.366-0.284-6.512,3.08-7.32,3.325
			c-11.894,3.598-23.906-2.505-28.809-12.852C148.975,1272.774,148.669,1270.567,148.437,1268.399 M153.317,1272.278
			c4.02,10.068,14.123,13.705,21.428,12.742c11.648-1.536,9.68-9.765,11.443-18.882c1.607-8.311,0.814-7.472-11.849-13.758
			c-2.556-1.269-5.195-2.562-8.042-2.77c-7.571-0.554-12.859,8.832-13.735,15.295
			C152.159,1267.373,152.372,1269.951,153.317,1272.278 M273.546,1214.984c0.814-5.725,0.293-9.059-8.265-11.723
			c-23.029-7.169-9.128-3.696-25.273-7.276c-20.566-4.456-51.599-4.639-64.583,11.675c-14.968,18.901,2.758,35.407,20.294,36.776
			c1.8,0.141,8.045,0.097,9.823,2.346c1.03,1.303,0.4,2.662-0.156,4.148C181.941,1308.202,255.891,1314.107,273.546,1214.984z"/>
		<path d="M276.811,1440.7c-1.611-4.159-2.095-15.346,4.329-22.952c3.072-3.637,2.692-3.587-3.84-10.444
			c-10.435-11.324-8.557-30.488-2.999-40.158c19.012-33.424,67.429-33.735,77.993-34.771c14.805-1.378,25.039,5.155,37.633-8.132
			c8.977-9.764,9.265-10.984,11.789-12.426c2.015-1.166,4.497-1.103,6.47-2.372c2.265-1.432,3.949-3.56,5.857-5.401
			c2.738-2.793,5.894-5.528,7.09-9.391c0.692-2.03,0.587-4.507,2.31-6.042c2.46-2.102,5.988-1.37,8.735-2.826
			c3.424-1.798,192.002-191.437,194.202-192.476c5.862-2.768,16.699,6.231,12.799,11.917c-3.456,5.023-11.961,9.313-4.831,17.081
			c0.147,0.154,30.741,34.255,30.982,34.533c2.328,2.875,1.94,4.299-0.634,7.047c-12.908,13.133-11.127,16.577-30.372-5.191
			c-4.062-4.767-1.275-6.121-0.195-8.544c1.709-3.839-1.42-5.975-3.902-5.396c-4.223,0.985-17.881,14.631-17.701,18.052
			c0.125,2.398,3.09,5.495,4.874,5.054c0.717-0.177,1.229-0.784,1.813-1.236c2.715-2.106,6.456-0.391,8.609,1.707
			c0.256,0.247,13.693,13.303,14.333,16.411c0.401,2.332-1.58,3.729-8.376,10.703c-1.886,1.824-5.791,6.599-10.405,2.507
			c-1.754-1.531-16.54-16.819-19.506-20.191c-14.218-14.935-15.382-15.891-17.901-15.909c-3.806-0.025,4.492-7.156-137.635,134.944
			c-5.217,5.238-2.862,7.359-5.058,10.309c-2.043,2.793-5.669,1.283-9.462,3.477c-4.043,2.293-11.075,8.966-12.724,13.762
			c-1.611,4.339,0.456,6.247-5.194,10.157c-26.414,17.989-11.107,23.967-19.94,71.686c-6.564,37.479-37.15,62.818-62.424,51.964
			c-4.081-1.553-7.572-4.251-10.947-6.955c-1.851-1.541-3.057-3.901-5.351-4.866c-0.427-0.18-5.493,4.66-6.21,5.106
			c-10.558,6.554-23.74,3.768-31.154-4.958C278.463,1444.786,277.596,1442.733,276.811,1440.7 M282.529,1443.183
			c6.489,8.684,17.189,9.583,23.996,6.762c10.854-4.498,6.823-11.938,6.166-21.2c-0.599-8.444-1.148-7.428-15.006-10.223
			c-2.798-0.564-5.681-1.13-8.485-0.594c-7.456,1.424-10.135,11.859-9.308,18.328
			C280.141,1438.745,281.014,1441.18,282.529,1443.183 M383.833,1356.724c-0.696-5.741-2.062-8.826-11.018-9.184
			c-24.1-0.964-9.774-1.207-26.295-0.487c-21.019,1.018-51.042,8.873-59.36,27.992c-9.566,22.131,11.828,33.487,29.121,30.271
			c1.775-0.33,7.796-1.988,10.095-0.276c1.332,0.992,1.076,2.467,0.923,4.047C319.475,1470.474,392.434,1457.039,383.833,1356.724z"
			/>
		<path d="M445.406,1573.904c-2.632-3.6-5.995-14.281-1.758-23.29c2.026-4.308,1.672-4.161-6.413-9.094
			c-13.01-8.238-16.156-27.234-13.29-38.013c9.714-37.206,56.4-50.037,66.336-53.773c13.943-5.163,25.52-1.501,34.246-17.595
			c6.144-11.755,6.107-13.008,8.171-15.054c1.644-1.648,4.059-2.229,5.636-3.965c1.817-1.969,2.893-4.46,4.26-6.733
			c1.922-3.407,4.262-6.865,4.418-10.906c0.143-2.14-0.599-4.505,0.667-6.434c1.832-2.667,5.43-2.873,7.706-4.991
			c2.842-2.623,135.913-234.608,137.768-236.18c4.946-4.191,17.743,1.697,15.447,8.198c-2.038,5.747-9.143,12.091-0.246,17.749
			c0.181,0.111,38.56,25.132,38.864,25.338c2.993,2.174,2.986,3.65,1.212,6.971c-9.069,16.026-6.457,18.892-30.681,2.846
			c-5.158-3.553-2.815-5.582-2.4-8.202c0.658-4.151-2.918-5.404-5.166-4.202c-3.824,2.044-13.485,18.76-12.426,22.018
			c0.742,2.284,4.407,4.508,6.016,3.62c0.646-0.357,0.985-1.075,1.431-1.663c2.078-2.737,6.135-2.048,8.757-0.579
			c0.311,0.172,16.67,9.305,18.092,12.142c0.991,2.149-0.561,4.011-5.32,12.506c-1.35,2.25-3.886,7.873-9.401,5.114
			c-2.091-1.025-20.329-11.966-24.067-14.454c-17.599-10.746-18.971-11.368-21.409-10.733c-3.683,0.961,2.486-8.075-98.019,165.969
			c-3.683,6.41-0.86,7.849-2.217,11.267c-1.251,3.227-5.143,2.706-8.239,5.807c-3.312,3.261-8.378,11.527-8.729,16.586
			c-0.433,4.609,2.058,5.916-2.388,11.156c-20.858,24.213-4.526,26.025-0.706,74.404c3.36,37.9-19.625,70.292-46.848,66.35
			c-4.344-0.444-8.414-2.147-12.374-3.885c-2.187-1.01-3.962-2.977-6.428-3.315c-0.459-0.063-4.099,5.923-4.677,6.539
			c-8.502,9.063-21.956,9.784-31.375,3.275C448.059,1577.423,446.691,1575.664,445.406,1573.904 M451.572,1574.823
			c8.515,6.709,19.083,4.807,24.928,0.321c9.32-7.154,3.501-13.297,0.469-22.074c-2.764-8.001-3.031-6.878-17.141-5.99
			c-2.849,0.179-5.78,0.379-8.349,1.622c-6.833,3.305-6.72,14.078-4.248,20.113C448.116,1571.153,449.59,1573.28,451.572,1574.823
			 M527.046,1465.09c-2.158-5.365-4.276-7.992-13.019-6.02c-23.528,5.306-9.753,1.364-25.525,6.335
			c-20.039,6.424-47.006,21.782-50.093,42.402c-3.512,23.853,20.092,29.285,35.963,21.702c1.629-0.778,7.016-3.938,9.68-2.88
			c1.543,0.613,1.678,2.105,1.939,3.67C494.322,1591.621,561.317,1559.76,527.046,1465.09z"/>
		<path d="M642.731,1658.933c-3.474-2.796-9.487-12.243-7.726-22.041c0.842-4.686,0.538-4.452-8.548-7.125
			c-14.699-4.59-22.654-22.125-22.676-33.278c-0.247-38.452,41.528-62.93,50.158-69.11c12.132-8.596,24.262-8.055,28.525-25.859
			c2.893-12.945,2.532-14.145,3.996-16.655c1.162-2.017,3.344-3.204,4.417-5.289c1.245-2.372,1.64-5.057,2.372-7.606
			c0.975-3.788,2.34-7.735,1.445-11.678c-0.415-2.104-1.745-4.197-1.021-6.387c1.08-3.051,4.501-4.181,6.152-6.815
			c2.066-3.269,70.56-261.791,71.946-263.79c3.693-5.328,17.577-2.953,17.043,3.92c-0.481,6.078-5.702,14.046,4.356,17.208
			c0.204,0.06,43.75,14.295,44.098,14.416c3.454,1.325,3.829,2.753,2.975,6.42c-4.612,17.827-1.347,19.92-28.899,10.69
			c-5.901-2.097-4.164-4.663-4.441-7.302c-0.439-4.179-4.217-4.465-6.077-2.722c-3.165,2.964-8.17,21.611-6.304,24.484
			c1.308,2.014,5.424,3.214,6.748,1.94c0.532-0.512,0.673-1.293,0.952-1.977c1.299-3.181,5.396-3.566,8.309-2.826
			c0.345,0.086,18.51,4.674,20.618,7.046c1.513,1.82,0.496,4.019-1.902,13.457c-0.721,2.523-1.716,8.61-7.757,7.373
			c-2.285-0.449-22.733-6.296-26.988-7.733c-19.78-5.825-21.267-6.071-23.457-4.827c-3.308,1.881,0.312-8.443-51.724,185.683
			c-1.898,7.145,1.201,7.804,0.774,11.457c-0.373,3.441-4.268,3.945-6.455,7.742c-2.355,4.007-5.109,13.302-4.139,18.28
			c0.774,4.564,3.519,5.182,0.58,11.394c-13.881,28.786,2.365,26.31,18.575,72.052c13.055,35.739-0.764,72.976-28.079,76.214
			c-4.31,0.696-8.683,0.104-12.958-0.55c-2.374-0.409-4.598-1.85-7.068-1.539c-0.459,0.058-2.427,6.782-2.825,7.527
			c-5.866,10.954-18.675,15.133-29.459,11.284C646.205,1661.646,644.428,1660.301,642.731,1658.933 M648.925,1658.225
			c9.961,4.277,19.677-0.296,24.162-6.142c7.151-9.322-0.06-13.75-5.26-21.443c-4.741-7.013-4.708-5.859-18.107-1.35
			c-2.705,0.91-5.485,1.862-7.645,3.728c-5.745,4.961-2.847,15.338,1.103,20.527
			C644.637,1655.575,646.611,1657.248,648.925,1658.225 M693.427,1532.697c-3.473-4.624-6.199-6.613-14.134-2.445
			c-21.353,11.215-9.068,3.842-23.015,12.726c-17.693,11.391-39.767,33.206-37.411,53.922c2.781,23.949,26.987,23.086,40.355,11.655
			c1.372-1.173,5.758-5.62,8.605-5.287c1.649,0.193,2.165,1.599,2.823,3.043C694.567,1663.387,751.033,1615.272,693.427,1532.697z"
			/>
		<path d="M855.34,1689.994c-4.079-1.802-12.333-9.37-13.168-19.291c-0.399-4.744-0.632-4.44-10.101-4.67
			c-15.386-0.629-27.609-15.507-30.516-26.276c-10.191-37.078,23.825-71.533,30.563-79.737c9.494-11.443,21.35-14.06,20.86-32.361
			c-0.556-13.252-1.216-14.319-0.451-17.122c0.6-2.249,2.4-3.96,2.898-6.252c0.589-2.614,0.275-5.309,0.322-7.961
			c-0.039-3.911,0.258-8.077-1.627-11.654c-0.946-1.925-2.771-3.602-2.639-5.905c0.253-3.226,3.266-5.203,4.179-8.175
			c1.149-3.692,0.4-271.133,1.221-273.422c2.188-6.102,16.214-7.402,17.477-0.624c1.108,5.996-1.872,15.043,8.662,15.494
			c0.212,0.005,45.96,2.485,46.326,2.511c3.679,0.386,4.411,1.668,4.535,5.432c0.159,18.414,3.854,19.59-25.147,17.805
			c-6.243-0.498-5.229-3.427-6.18-5.903c-1.506-3.923-5.229-3.221-6.575-1.056c-2.29,3.682-2.298,22.989,0.248,25.281
			c1.784,1.607,6.07,1.7,7.02,0.127c0.382-0.632,0.315-1.423,0.408-2.156c0.431-3.409,4.289-4.841,7.295-4.88
			c0.355-0.006,19.089-0.276,21.739,1.47c1.933,1.366,1.519,3.754,1.645,13.49c-0.044,2.624,0.571,8.761-5.585,9.13
			c-2.323,0.157-23.588-0.198-28.07-0.484c-20.614-0.507-22.114-0.36-23.907,1.409c-2.709,2.674-1.884-8.236-1.903,192.743
			c0.015,7.393,3.18,7.228,3.713,10.867c0.53,3.42-3.101,4.915-4.232,9.149c-1.237,4.48-1.492,14.171,0.733,18.729
			c1.929,4.208,4.74,4.094,3.51,10.855c-5.957,31.398,9.094,24.801,36.59,64.789c21.86,31.143,18.15,70.688-7.396,80.884
			c-3.984,1.787-8.36,2.348-12.659,2.823c-2.399,0.219-4.92-0.597-7.225,0.343c-0.429,0.175-0.589,7.179-0.781,8.002
			c-2.831,12.099-14.122,19.451-25.535,18.524C859.398,1691.715,857.334,1690.876,855.34,1689.994 M861.14,1687.707
			c10.729,1.553,18.93-5.379,21.749-12.186c4.494-10.855-3.617-13.266-10.631-19.351c-6.395-5.547-6.064-4.441-17.839,3.382
			c-2.377,1.579-4.816,3.218-6.42,5.579c-4.265,6.279,1.219,15.552,6.378,19.542C856.312,1686.257,858.652,1687.361,861.14,1687.707
			 M871.637,1554.938c-4.551-3.567-7.699-4.783-14.285,1.296c-17.723,16.36-7.765,6.058-18.937,18.249
			c-14.142,15.583-29.818,42.366-22.181,61.768c8.885,22.413,32.043,15.315,41.996,0.813c1.022-1.489,4.107-6.918,6.943-7.334
			c1.643-0.24,2.505,0.984,3.514,2.209C906.562,1680.88,948.651,1619.789,871.637,1554.938z"/>
		<path d="M1068.744,1664.969c-4.407-0.685-14.338-5.859-17.712-15.225c-1.614-4.479-1.76-4.125-10.965-1.896
			c-15.024,3.374-30.682-7.833-36.277-17.482c-19.44-33.177,4.499-75.262,8.884-84.93c6.209-13.51,16.984-19.107,11.774-36.657
			c-3.967-12.657-4.88-13.516-4.867-16.422c-0.003-2.328,1.294-4.446,1.181-6.789c-0.108-2.677-1.108-5.2-1.749-7.773
			c-1.05-3.768-1.841-7.868-4.587-10.836c-1.412-1.615-3.609-2.762-4.078-5.021c-0.59-3.182,1.808-5.871,1.92-8.978
			c0.155-3.864-69.788-261.998-69.588-264.422c0.534-6.46,13.746-11.346,16.72-5.126c2.622,5.505,2.085,15.015,12.377,12.725
			c0.207-0.05,45.037-9.495,45.398-9.564c3.654-0.579,4.693,0.47,5.786,4.073c4.919,17.745,8.793,17.925-19.682,23.707
			c-6.159,1.135-5.938-1.956-7.497-4.103c-2.47-3.4-5.884-1.758-6.624,0.681c-1.259,4.15,3.73,22.8,6.783,24.356
			c2.14,1.09,6.304,0.071,6.814-1.694c0.205-0.709-0.064-1.456-0.164-2.188c-0.466-3.404,2.89-5.786,5.783-6.602
			c0.342-0.098,18.367-5.207,21.379-4.207c2.22,0.819,2.439,3.233,5.081,12.605c0.637,2.546,2.819,8.314-3.031,10.264
			c-2.203,0.753-22.836,5.914-27.239,6.797c-20.043,4.846-21.453,5.376-22.728,7.549c-1.925,3.284-3.952-7.468,48.047,186.668
			c1.928,7.137,4.942,6.159,6.399,9.535c1.397,3.166-1.724,5.55-1.719,9.932c-0.036,4.648,2.227,14.074,5.556,17.901
			c2.953,3.565,5.638,2.728,6.199,9.577c2.372,31.87,15.203,21.603,52.112,53.111c29.176,24.424,35.827,63.581,13.79,80.043
			c-3.385,2.758-7.468,4.432-11.497,6.003c-2.261,0.833-4.907,0.697-6.89,2.201c-0.369,0.28,1.29,7.087,1.317,7.931
			c0.397,12.42-8.607,22.444-19.87,24.501C1073.109,1665.581,1070.898,1665.305,1068.744,1664.969 M1073.754,1661.258
			c10.765-1.277,16.893-10.095,17.854-17.4c1.531-11.649-6.927-11.878-15.277-15.94c-7.612-3.703-7.006-2.72-16.356,7.884
			c-1.888,2.141-3.819,4.355-4.757,7.051c-2.495,7.169,5.203,14.706,11.219,17.226
			C1068.716,1661.107,1071.261,1661.569,1073.754,1661.258 M1049.53,1530.297c-5.32-2.268-8.675-2.627-13.463,4.949
			c-12.885,20.389-5.932,7.861-13.569,22.528c-9.627,18.712-17.836,48.64-5.438,65.404c14.383,19.35,34.915,6.5,40.776-10.084
			c0.602-1.702,2.176-7.746,4.808-8.881c1.525-0.658,2.675,0.302,3.966,1.224C1115.862,1642.908,1140.705,1573.006,1049.53,1530.297
			z"/>
		<path d="M1268.399,1585.563c-4.434,0.479-15.366-1.949-21.049-10.122c-2.718-3.909-2.767-3.529-11.082,1.006
			c-13.639,7.148-31.664,0.375-39.565-7.497c-27.365-27.015-15.133-73.862-13.4-84.335c2.5-14.657,11.46-22.852,1.885-38.455
			c-7.108-11.199-8.212-11.792-8.951-14.603c-0.605-2.248,0.099-4.63-0.616-6.863c-0.797-2.558-2.416-4.735-3.701-7.056
			c-1.989-3.368-3.815-7.124-7.236-9.279c-1.782-1.194-4.201-1.734-5.238-3.795c-1.394-2.921,0.227-6.139-0.469-9.169
			c-0.851-3.773-135.22-235.008-135.654-237.401c-1.156-6.378,10.341-14.517,14.823-9.279c3.958,4.638,5.9,13.963,15.248,9.088
			c0.187-0.102,41.045-20.828,41.375-20.988c3.379-1.505,4.654-0.761,6.643,2.436c9.344,15.867,13.133,15.038-12.875,27.993
			c-5.656,2.69-6.242-0.353-8.303-2.023c-3.266-2.645-6.139-0.175-6.222,2.373c-0.142,4.334,9.504,21.058,12.855,21.771
			c2.349,0.499,6.107-1.563,6.143-3.4c0.014-0.738-0.439-1.39-0.725-2.071c-1.331-3.168,1.294-6.337,3.877-7.873
			c0.305-0.183,16.394-9.784,19.562-9.597c2.357,0.217,3.193,2.491,8.17,10.86c1.274,2.294,4.875,7.302-0.272,10.699
			c-1.933,1.298-20.527,11.623-24.551,13.616c-18.105,9.868-19.331,10.745-20,13.174c-1.009,3.67-5.75-6.191,94.723,167.872
			c3.71,6.395,6.367,4.67,8.649,7.554c2.169,2.697-0.228,5.807,0.91,10.039c1.169,4.499,5.794,13.018,9.999,15.853
			c3.775,2.679,6.152,1.176,8.467,7.646c10.54,30.17,20.276,16.932,64.083,37.814c34.503,16.04,51.062,52.142,34.037,73.746
			c-2.556,3.54-6.066,6.213-9.552,8.774c-1.968,1.389-4.559,1.943-6.086,3.909c-0.284,0.366,3.08,6.512,3.325,7.32
			c3.598,11.894-2.505,23.906-12.852,28.809C1272.774,1585.025,1270.567,1585.331,1268.399,1585.563 M1272.278,1580.683
			c10.068-4.02,13.705-14.123,12.742-21.428c-1.536-11.648-9.765-9.68-18.882-11.443c-8.311-1.607-7.472-0.814-13.758,11.849
			c-1.269,2.556-2.562,5.195-2.77,8.042c-0.554,7.571,8.832,12.859,15.295,13.735
			C1267.373,1581.841,1269.951,1581.628,1272.278,1580.683 M1214.984,1460.454c-5.725-0.814-9.059-0.293-11.723,8.265
			c-7.169,23.029-3.696,9.128-7.276,25.273c-4.456,20.566-4.639,51.599,11.675,64.583c18.901,14.968,35.407-2.758,36.776-20.294
			c0.141-1.8,0.097-8.045,2.346-9.823c1.303-1.03,2.662-0.401,4.148,0.156C1308.202,1552.059,1314.107,1478.109,1214.984,1460.454z"
			/>
		<path d="M1440.7,1457.189c-4.159,1.611-15.346,2.095-22.952-4.329c-3.637-3.072-3.587-2.693-10.444,3.84
			c-11.324,10.434-30.488,8.557-40.158,2.999c-33.424-19.012-33.735-67.429-34.771-77.993c-1.378-14.805,5.155-25.039-8.132-37.633
			c-9.764-8.977-10.984-9.265-12.426-11.789c-1.166-2.015-1.103-4.498-2.372-6.47c-1.432-2.265-3.56-3.949-5.401-5.857
			c-2.793-2.738-5.528-5.894-9.391-7.09c-2.03-0.692-4.507-0.587-6.042-2.31c-2.102-2.46-1.37-5.988-2.826-8.735
			c-1.798-3.424-191.437-192.002-192.476-194.202c-2.768-5.862,6.231-16.699,11.917-12.799c5.023,3.456,9.313,11.961,17.081,4.832
			c0.154-0.147,34.255-30.741,34.533-30.982c2.875-2.328,4.299-1.94,7.047,0.634c13.133,12.908,16.577,11.127-5.191,30.372
			c-4.767,4.062-6.121,1.275-8.544,0.195c-3.839-1.709-5.975,1.42-5.396,3.902c0.985,4.223,14.631,17.88,18.052,17.701
			c2.398-0.125,5.495-3.09,5.054-4.874c-0.177-0.717-0.784-1.229-1.236-1.813c-2.106-2.715-0.391-6.456,1.707-8.609
			c0.247-0.256,13.303-13.693,16.411-14.333c2.332-0.401,3.729,1.58,10.703,8.376c1.824,1.886,6.599,5.791,2.507,10.405
			c-1.531,1.754-16.819,16.54-20.191,19.506c-14.935,14.218-15.891,15.382-15.909,17.901c-0.025,3.806-7.156-4.492,134.944,137.635
			c5.238,5.217,7.359,2.862,10.309,5.058c2.793,2.043,1.283,5.669,3.477,9.462c2.293,4.043,8.966,11.075,13.762,12.724
			c4.339,1.611,6.247-0.456,10.157,5.194c17.989,26.414,23.967,11.107,71.686,19.94c37.479,6.564,62.818,37.15,51.964,62.424
			c-1.553,4.081-4.251,7.572-6.955,10.947c-1.541,1.851-3.901,3.057-4.866,5.351c-0.18,0.427,4.66,5.493,5.106,6.21
			c6.554,10.558,3.768,23.74-4.958,31.154C1444.786,1455.537,1442.733,1456.404,1440.7,1457.189 M1443.183,1451.471
			c8.684-6.489,9.583-17.189,6.762-23.996c-4.498-10.854-11.938-6.823-21.2-6.166c-8.444,0.599-7.428,1.147-10.223,15.006
			c-0.564,2.798-1.13,5.681-0.594,8.485c1.424,7.456,11.859,10.135,18.328,9.308
			C1438.745,1453.859,1441.18,1452.986,1443.183,1451.471 M1356.724,1350.167c-5.741,0.696-8.826,2.062-9.184,11.018
			c-0.964,24.1-1.207,9.774-0.487,26.295c1.018,21.019,8.873,51.042,27.992,59.36c22.131,9.566,33.487-11.828,30.271-29.121
			c-0.33-1.775-1.988-7.796-0.276-10.095c0.992-1.332,2.467-1.076,4.047-0.923
			C1470.474,1414.525,1457.039,1341.566,1356.724,1350.167z"/>
		<path d="M1573.904,1288.594c-3.6,2.632-14.281,5.995-23.29,1.758c-4.308-2.026-4.161-1.672-9.094,6.413
			c-8.238,13.01-27.234,16.156-38.013,13.29c-37.206-9.714-50.037-56.4-53.773-66.336c-5.163-13.943-1.501-25.52-17.595-34.246
			c-11.755-6.144-13.008-6.107-15.054-8.171c-1.648-1.644-2.229-4.059-3.965-5.636c-1.969-1.817-4.46-2.893-6.733-4.26
			c-3.407-1.922-6.865-4.262-10.906-4.418c-2.14-0.143-4.505,0.599-6.434-0.667c-2.667-1.833-2.873-5.43-4.991-7.706
			c-2.623-2.842-234.608-135.912-236.18-137.768c-4.191-4.946,1.697-17.743,8.198-15.447c5.747,2.038,12.091,9.143,17.749,0.246
			c0.111-0.181,25.132-38.56,25.338-38.864c2.174-2.993,3.65-2.986,6.971-1.212c16.026,9.069,18.892,6.457,2.846,30.681
			c-3.553,5.158-5.582,2.815-8.202,2.4c-4.151-0.658-5.404,2.918-4.202,5.166c2.044,3.824,18.76,13.485,22.018,12.426
			c2.284-0.742,4.508-4.407,3.62-6.016c-0.357-0.646-1.075-0.985-1.663-1.431c-2.737-2.078-2.048-6.135-0.579-8.757
			c0.172-0.311,9.305-16.67,12.142-18.092c2.149-0.991,4.011,0.561,12.506,5.32c2.25,1.35,7.873,3.886,5.114,9.401
			c-1.025,2.091-11.966,20.329-14.454,24.067c-10.746,17.599-11.368,18.971-10.733,21.409c0.961,3.683-8.075-2.486,165.969,98.02
			c6.41,3.683,7.849,0.86,11.267,2.218c3.227,1.251,2.706,5.143,5.807,8.239c3.261,3.312,11.527,8.377,16.586,8.729
			c4.609,0.433,5.916-2.058,11.156,2.388c24.213,20.858,26.025,4.525,74.404,0.706c37.9-3.36,70.292,19.625,66.35,46.848
			c-0.444,4.344-2.147,8.414-3.885,12.374c-1.01,2.187-2.977,3.962-3.315,6.428c-0.063,0.459,5.923,4.099,6.539,4.677
			c9.063,8.502,9.784,21.956,3.275,31.375C1577.423,1285.941,1575.664,1287.309,1573.904,1288.594 M1574.823,1282.428
			c6.709-8.515,4.807-19.083,0.321-24.928c-7.154-9.32-13.297-3.501-22.074-0.469c-8.001,2.764-6.878,3.031-5.99,17.141
			c0.179,2.849,0.379,5.78,1.622,8.349c3.305,6.833,14.078,6.72,20.113,4.248C1571.153,1285.884,1573.28,1284.41,1574.823,1282.428
			 M1465.09,1206.954c-5.365,2.158-7.992,4.276-6.02,13.019c5.306,23.528,1.364,9.753,6.335,25.525
			c6.424,20.039,21.782,47.006,42.402,50.093c23.853,3.512,29.285-20.092,21.702-35.963c-0.778-1.629-3.938-7.016-2.88-9.68
			c0.613-1.543,2.105-1.678,3.67-1.939C1591.621,1239.678,1559.76,1172.683,1465.09,1206.954z"/>
		<path d="M1658.933,1091.269c-2.796,3.474-12.243,9.487-22.041,7.726c-4.686-0.842-4.452-0.538-7.125,8.548
			c-4.59,14.699-22.125,22.654-33.278,22.676c-38.452,0.247-62.93-41.528-69.11-50.159c-8.596-12.132-8.055-24.262-25.859-28.525
			c-12.945-2.892-14.145-2.532-16.655-3.996c-2.017-1.162-3.204-3.344-5.289-4.417c-2.372-1.245-5.057-1.64-7.606-2.372
			c-3.788-0.975-7.735-2.34-11.678-1.445c-2.104,0.416-4.197,1.745-6.387,1.021c-3.051-1.08-4.181-4.501-6.815-6.152
			c-3.269-2.066-261.791-70.56-263.79-71.946c-5.328-3.693-2.953-17.577,3.92-17.043c6.078,0.481,14.046,5.702,17.208-4.356
			c0.06-0.204,14.295-43.75,14.416-44.098c1.325-3.454,2.753-3.829,6.42-2.975c17.827,4.612,19.92,1.347,10.69,28.899
			c-2.097,5.901-4.663,4.164-7.302,4.441c-4.179,0.439-4.465,4.217-2.722,6.077c2.964,3.165,21.611,8.17,24.484,6.304
			c2.014-1.308,3.214-5.424,1.94-6.748c-0.512-0.532-1.293-0.673-1.977-0.952c-3.181-1.299-3.566-5.396-2.826-8.309
			c0.086-0.345,4.674-18.51,7.046-20.618c1.82-1.513,4.019-0.496,13.457,1.902c2.523,0.721,8.61,1.716,7.373,7.757
			c-0.449,2.285-6.296,22.733-7.733,26.988c-5.825,19.78-6.071,21.267-4.827,23.457c1.881,3.308-8.443-0.312,185.683,51.724
			c7.145,1.898,7.804-1.201,11.457-0.774c3.441,0.373,3.945,4.268,7.742,6.455c4.007,2.355,13.302,5.109,18.28,4.139
			c4.564-0.774,5.182-3.519,11.394-0.581c28.786,13.881,26.31-2.365,72.052-18.575c35.739-13.055,72.976,0.764,76.214,28.079
			c0.696,4.311,0.104,8.683-0.55,12.958c-0.409,2.374-1.85,4.598-1.539,7.068c0.058,0.459,6.782,2.427,7.527,2.825
			c10.954,5.866,15.133,18.675,11.284,29.459C1661.646,1087.795,1660.301,1089.572,1658.933,1091.269 M1658.225,1085.075
			c4.277-9.961-0.296-19.677-6.142-24.162c-9.322-7.151-13.75,0.06-21.443,5.26c-7.013,4.741-5.859,4.708-1.35,18.107
			c0.91,2.705,1.862,5.485,3.728,7.645c4.961,5.745,15.338,2.847,20.527-1.103
			C1655.575,1089.363,1657.248,1087.389,1658.225,1085.075 M1532.697,1040.573c-4.624,3.473-6.613,6.199-2.445,14.134
			c11.215,21.353,3.842,9.068,12.726,23.015c11.391,17.693,33.206,39.767,53.922,37.411c23.949-2.781,23.086-26.987,11.655-40.355
			c-1.173-1.372-5.62-5.758-5.287-8.605c0.193-1.649,1.599-2.165,3.043-2.823C1663.387,1039.433,1615.272,982.967,1532.697,1040.573
			z"/>
		<path d="M1689.994,878.66c-1.802,4.079-9.37,12.333-19.291,13.168c-4.744,0.399-4.44,0.632-4.67,10.101
			c-0.629,15.386-15.507,27.609-26.276,30.516c-37.078,10.191-71.533-23.825-79.737-30.563c-11.443-9.494-14.06-21.35-32.361-20.86
			c-13.252,0.556-14.319,1.216-17.122,0.451c-2.249-0.6-3.96-2.4-6.252-2.898c-2.614-0.589-5.309-0.275-7.961-0.322
			c-3.911,0.039-8.077-0.258-11.654,1.627c-1.925,0.946-3.602,2.771-5.905,2.639c-3.226-0.253-5.203-3.266-8.175-4.179
			c-3.692-1.149-271.133-0.4-273.422-1.221c-6.102-2.188-7.402-16.214-0.624-17.477c5.996-1.108,15.043,1.872,15.494-8.662
			c0.005-0.212,2.485-45.96,2.511-46.326c0.386-3.679,1.668-4.411,5.432-4.535c18.414-0.159,19.59-3.854,17.805,25.147
			c-0.498,6.243-3.427,5.229-5.903,6.18c-3.923,1.506-3.221,5.229-1.056,6.575c3.682,2.29,22.989,2.298,25.281-0.248
			c1.607-1.784,1.7-6.07,0.127-7.02c-0.632-0.382-1.423-0.315-2.156-0.408c-3.409-0.431-4.841-4.289-4.88-7.295
			c-0.006-0.355-0.276-19.089,1.47-21.739c1.366-1.933,3.754-1.519,13.49-1.645c2.624,0.044,8.761-0.571,9.13,5.585
			c0.157,2.323-0.198,23.588-0.484,28.07c-0.507,20.614-0.36,22.114,1.409,23.907c2.674,2.709-8.236,1.884,192.743,1.903
			c7.393-0.015,7.228-3.18,10.867-3.713c3.42-0.53,4.915,3.101,9.149,4.232c4.48,1.237,14.171,1.492,18.729-0.733
			c4.208-1.929,4.094-4.74,10.855-3.51c31.398,5.957,24.801-9.094,64.789-36.59c31.143-21.86,70.688-18.15,80.884,7.396
			c1.787,3.984,2.348,8.36,2.823,12.659c0.219,2.399-0.597,4.92,0.343,7.225c0.175,0.429,7.179,0.589,8.002,0.781
			c12.099,2.831,19.451,14.122,18.524,25.535C1691.715,874.602,1690.876,876.666,1689.994,878.66 M1687.707,872.86
			c1.553-10.729-5.379-18.93-12.186-21.749c-10.855-4.494-13.266,3.617-19.351,10.631c-5.547,6.395-4.441,6.064,3.382,17.839
			c1.579,2.377,3.218,4.816,5.579,6.42c6.279,4.265,15.552-1.219,19.542-6.378C1686.257,877.688,1687.361,875.348,1687.707,872.86
			 M1554.938,862.363c-3.567,4.551-4.783,7.699,1.296,14.285c16.36,17.723,6.058,7.765,18.249,18.937
			c15.583,14.142,42.366,29.818,61.768,22.181c22.413-8.885,15.315-32.043,0.813-41.996c-1.489-1.022-6.918-4.107-7.334-6.943
			c-0.24-1.643,0.984-2.505,2.209-3.514C1680.88,827.438,1619.789,785.349,1554.938,862.363z"/>
		<path d="M1664.969,665.256c-0.685,4.407-5.859,14.338-15.225,17.712c-4.479,1.614-4.125,1.76-1.896,10.965
			c3.374,15.025-7.833,30.682-17.482,36.277c-33.177,19.44-75.262-4.499-84.93-8.884c-13.51-6.209-19.107-16.984-36.657-11.774
			c-12.657,3.967-13.516,4.88-16.422,4.867c-2.328,0.003-4.446-1.294-6.789-1.181c-2.677,0.108-5.2,1.108-7.773,1.749
			c-3.768,1.05-7.868,1.841-10.836,4.587c-1.615,1.412-2.762,3.609-5.021,4.078c-3.182,0.59-5.871-1.808-8.978-1.92
			c-3.864-0.155-261.998,69.788-264.422,69.588c-6.46-0.534-11.346-13.746-5.126-16.72c5.505-2.622,15.015-2.085,12.725-12.377
			c-0.05-0.207-9.495-45.037-9.564-45.398c-0.579-3.654,0.47-4.693,4.073-5.786c17.745-4.919,17.925-8.793,23.707,19.682
			c1.135,6.159-1.956,5.938-4.103,7.497c-3.4,2.47-1.758,5.884,0.681,6.624c4.15,1.259,22.8-3.73,24.356-6.783
			c1.09-2.14,0.071-6.304-1.694-6.814c-0.709-0.205-1.456,0.064-2.188,0.164c-3.404,0.466-5.786-2.89-6.602-5.783
			c-0.098-0.342-5.207-18.367-4.207-21.379c0.819-2.22,3.233-2.439,12.605-5.081c2.546-0.637,8.314-2.819,10.264,3.031
			c0.753,2.203,5.914,22.836,6.797,27.239c4.846,20.043,5.376,21.453,7.549,22.728c3.284,1.925-7.468,3.952,186.668-48.047
			c7.137-1.928,6.159-4.942,9.535-6.399c3.166-1.397,5.55,1.724,9.932,1.719c4.648,0.036,14.074-2.227,17.901-5.556
			c3.565-2.952,2.728-5.638,9.577-6.199c31.87-2.372,21.603-15.203,53.111-52.112c24.424-29.176,63.581-35.827,80.043-13.79
			c2.758,3.385,4.432,7.468,6.003,11.497c0.833,2.261,0.697,4.907,2.201,6.89c0.28,0.369,7.087-1.29,7.931-1.317
			c12.42-0.397,22.444,8.607,24.501,19.87C1665.581,660.891,1665.305,663.102,1664.969,665.256 M1661.258,660.246
			c-1.277-10.765-10.095-16.893-17.4-17.854c-11.649-1.532-11.878,6.927-15.94,15.277c-3.703,7.612-2.72,7.007,7.884,16.356
			c2.141,1.888,4.355,3.819,7.051,4.757c7.169,2.495,14.706-5.203,17.226-11.219
			C1661.107,665.284,1661.569,662.739,1661.258,660.246 M1530.297,684.47c-2.268,5.319-2.627,8.675,4.949,13.463
			c20.389,12.885,7.861,5.932,22.528,13.569c18.712,9.627,48.64,17.836,65.404,5.438c19.35-14.383,6.5-34.915-10.084-40.776
			c-1.702-0.602-7.746-2.176-8.881-4.808c-0.658-1.525,0.302-2.675,1.224-3.966C1642.908,618.138,1573.006,593.295,1530.297,684.47z
			"/>
		<path d="M1585.563,465.601c0.479,4.434-1.949,15.366-10.122,21.049c-3.909,2.718-3.529,2.768,1.006,11.082
			c7.148,13.639,0.375,31.664-7.497,39.565c-27.015,27.365-73.862,15.133-84.335,13.4c-14.657-2.5-22.852-11.46-38.455-1.885
			c-11.199,7.108-11.792,8.212-14.603,8.951c-2.248,0.605-4.63-0.099-6.863,0.616c-2.558,0.797-4.735,2.416-7.056,3.701
			c-3.368,1.989-7.124,3.815-9.279,7.236c-1.194,1.782-1.734,4.201-3.795,5.238c-2.921,1.394-6.139-0.226-9.169,0.469
			c-3.773,0.851-235.008,135.22-237.401,135.654c-6.378,1.156-14.517-10.341-9.279-14.823c4.638-3.958,13.963-5.9,9.088-15.248
			c-0.102-0.187-20.828-41.045-20.988-41.375c-1.505-3.379-0.761-4.654,2.436-6.643c15.867-9.344,15.038-13.133,27.993,12.875
			c2.69,5.656-0.353,6.242-2.023,8.303c-2.645,3.266-0.175,6.139,2.373,6.222c4.334,0.142,21.058-9.504,21.771-12.855
			c0.499-2.349-1.563-6.107-3.4-6.143c-0.738-0.014-1.39,0.439-2.071,0.725c-3.168,1.331-6.337-1.294-7.873-3.877
			c-0.183-0.305-9.784-16.394-9.597-19.562c0.217-2.357,2.491-3.193,10.86-8.17c2.294-1.274,7.302-4.875,10.699,0.272
			c1.298,1.933,11.623,20.527,13.616,24.551c9.868,18.105,10.745,19.331,13.174,20c3.67,1.009-6.191,5.75,167.872-94.723
			c6.395-3.71,4.67-6.368,7.554-8.649c2.697-2.169,5.807,0.228,10.039-0.91c4.499-1.169,13.018-5.794,15.853-9.999
			c2.679-3.775,1.176-6.152,7.646-8.467c30.17-10.54,16.932-20.276,37.814-64.082c16.04-34.503,52.142-51.062,73.746-34.037
			c3.54,2.556,6.213,6.066,8.774,9.552c1.389,1.968,1.943,4.559,3.909,6.086c0.366,0.284,6.512-3.08,7.32-3.324
			c11.894-3.598,23.906,2.504,28.809,12.852C1585.025,461.226,1585.331,463.433,1585.563,465.601 M1580.683,461.722
			c-4.02-10.068-14.123-13.705-21.428-12.742c-11.648,1.536-9.68,9.765-11.443,18.882c-1.607,8.311-0.814,7.472,11.849,13.758
			c2.556,1.269,5.195,2.562,8.042,2.77c7.571,0.554,12.859-8.832,13.735-15.295C1581.841,466.627,1581.628,464.049,1580.683,461.722
			 M1460.454,519.016c-0.814,5.725-0.293,9.059,8.265,11.723c23.029,7.169,9.128,3.696,25.273,7.276
			c20.566,4.456,51.599,4.64,64.583-11.675c14.968-18.901-2.758-35.407-20.294-36.776c-1.8-0.141-8.045-0.097-9.823-2.346
			c-1.03-1.303-0.401-2.662,0.156-4.148C1552.059,425.798,1478.109,419.893,1460.454,519.016z"/>
		<path d="M1457.189,293.3c1.611,4.159,2.095,15.346-4.329,22.952c-3.072,3.637-2.693,3.587,3.84,10.444
			c10.434,11.324,8.557,30.488,2.999,40.158c-19.012,33.424-67.429,33.735-77.993,34.771c-14.805,1.378-25.039-5.155-37.633,8.132
			c-8.977,9.764-9.265,10.984-11.789,12.426c-2.015,1.166-4.498,1.103-6.47,2.372c-2.265,1.432-3.949,3.56-5.857,5.401
			c-2.738,2.793-5.894,5.528-7.09,9.391c-0.692,2.03-0.587,4.507-2.31,6.042c-2.46,2.102-5.988,1.37-8.735,2.826
			c-3.424,1.798-192.002,191.437-194.202,192.476c-5.862,2.768-16.699-6.231-12.799-11.917c3.456-5.023,11.961-9.313,4.832-17.081
			c-0.147-0.154-30.741-34.255-30.982-34.533c-2.328-2.874-1.94-4.299,0.634-7.047c12.908-13.133,11.127-16.577,30.372,5.191
			c4.062,4.767,1.275,6.121,0.195,8.544c-1.709,3.839,1.42,5.975,3.902,5.396c4.223-0.985,17.88-14.631,17.701-18.052
			c-0.125-2.398-3.09-5.495-4.874-5.054c-0.717,0.177-1.229,0.784-1.813,1.236c-2.715,2.106-6.456,0.391-8.609-1.707
			c-0.256-0.247-13.693-13.303-14.333-16.411c-0.401-2.332,1.58-3.729,8.376-10.702c1.886-1.824,5.791-6.599,10.405-2.507
			c1.754,1.531,16.54,16.819,19.506,20.191c14.218,14.935,15.382,15.891,17.901,15.909c3.806,0.025-4.492,7.156,137.635-134.944
			c5.217-5.238,2.862-7.359,5.058-10.31c2.043-2.793,5.669-1.283,9.462-3.477c4.043-2.293,11.075-8.966,12.724-13.762
			c1.611-4.339-0.456-6.247,5.194-10.157c26.414-17.989,11.107-23.967,19.94-71.686c6.564-37.479,37.15-62.818,62.424-51.964
			c4.081,1.553,7.572,4.251,10.947,6.955c1.851,1.541,3.057,3.901,5.351,4.866c0.427,0.18,5.493-4.66,6.21-5.106
			c10.558-6.554,23.74-3.768,31.154,4.957C1455.537,289.214,1456.404,291.267,1457.189,293.3 M1451.471,290.816
			c-6.489-8.684-17.189-9.583-23.996-6.762c-10.854,4.498-6.823,11.938-6.166,21.2c0.599,8.444,1.147,7.428,15.006,10.223
			c2.798,0.564,5.681,1.13,8.485,0.594c7.456-1.424,10.135-11.859,9.308-18.328C1453.859,295.255,1452.986,292.82,1451.471,290.816
			 M1350.167,377.276c0.696,5.741,2.062,8.826,11.018,9.184c24.1,0.964,9.774,1.207,26.295,0.487
			c21.019-1.018,51.042-8.873,59.36-27.992c9.566-22.131-11.828-33.487-29.121-30.271c-1.775,0.33-7.796,1.988-10.095,0.276
			c-1.332-0.992-1.076-2.467-0.923-4.047C1414.525,263.526,1341.566,276.961,1350.167,377.276z"/>
		<path d="M1288.594,160.096c2.632,3.6,5.995,14.281,1.758,23.29c-2.026,4.308-1.672,4.161,6.413,9.094
			c13.01,8.238,16.156,27.234,13.29,38.013c-9.714,37.206-56.4,50.037-66.336,53.773c-13.943,5.163-25.52,1.501-34.246,17.595
			c-6.144,11.755-6.107,13.008-8.171,15.054c-1.644,1.648-4.059,2.229-5.636,3.965c-1.817,1.969-2.893,4.46-4.26,6.733
			c-1.922,3.407-4.262,6.865-4.418,10.906c-0.143,2.14,0.599,4.505-0.667,6.434c-1.833,2.667-5.43,2.873-7.706,4.991
			c-2.842,2.623-135.912,234.608-137.768,236.18c-4.946,4.191-17.743-1.697-15.447-8.198c2.038-5.747,9.143-12.091,0.246-17.749
			c-0.181-0.111-38.56-25.132-38.864-25.338c-2.993-2.174-2.986-3.65-1.212-6.971c9.069-16.026,6.457-18.892,30.681-2.846
			c5.158,3.553,2.815,5.582,2.4,8.202c-0.658,4.151,2.918,5.404,5.166,4.202c3.824-2.044,13.485-18.76,12.426-22.018
			c-0.742-2.284-4.407-4.508-6.016-3.62c-0.646,0.357-0.985,1.075-1.431,1.663c-2.078,2.737-6.135,2.048-8.757,0.579
			c-0.311-0.173-16.67-9.306-18.092-12.143c-0.991-2.149,0.561-4.011,5.32-12.506c1.35-2.25,3.886-7.873,9.401-5.114
			c2.091,1.025,20.329,11.965,24.067,14.454c17.599,10.746,18.971,11.368,21.409,10.733c3.683-0.961-2.486,8.075,98.02-165.969
			c3.683-6.41,0.86-7.849,2.218-11.267c1.251-3.227,5.143-2.706,8.239-5.807c3.312-3.261,8.377-11.527,8.729-16.586
			c0.433-4.609-2.058-5.916,2.388-11.156c20.858-24.213,4.525-26.025,0.706-74.404c-3.36-37.9,19.625-70.292,46.848-66.35
			c4.344,0.444,8.414,2.147,12.374,3.885c2.187,1.01,3.962,2.977,6.428,3.315c0.459,0.063,4.099-5.923,4.677-6.539
			c8.502-9.063,21.956-9.784,31.375-3.275C1285.941,156.577,1287.309,158.336,1288.594,160.096 M1282.428,159.177
			c-8.515-6.709-19.083-4.807-24.928-0.321c-9.32,7.154-3.501,13.297-0.469,22.074c2.764,8.001,3.031,6.878,17.141,5.99
			c2.849-0.179,5.78-0.379,8.349-1.622c6.833-3.305,6.72-14.078,4.248-20.113C1285.884,162.847,1284.41,160.72,1282.428,159.177
			 M1206.954,268.91c2.158,5.365,4.276,7.992,13.019,6.02c23.528-5.306,9.753-1.364,25.525-6.335
			c20.039-6.424,47.006-21.782,50.093-42.402c3.512-23.853-20.092-29.285-35.963-21.702c-1.629,0.778-7.016,3.938-9.68,2.88
			c-1.543-0.613-1.678-2.105-1.939-3.67C1239.678,142.379,1172.683,174.24,1206.954,268.91z"/>
		<path d="M1091.269,75.067c3.474,2.796,9.487,12.243,7.726,22.041c-0.842,4.686-0.538,4.452,8.548,7.125
			c14.699,4.59,22.654,22.125,22.676,33.278c0.247,38.452-41.528,62.93-50.159,69.11c-12.132,8.596-24.262,8.055-28.525,25.859
			c-2.892,12.945-2.532,14.145-3.996,16.655c-1.162,2.017-3.344,3.204-4.417,5.289c-1.245,2.372-1.64,5.057-2.372,7.606
			c-0.975,3.788-2.34,7.735-1.445,11.678c0.416,2.104,1.745,4.197,1.021,6.387c-1.08,3.051-4.501,4.181-6.152,6.815
			c-2.066,3.269-70.56,261.791-71.946,263.79c-3.693,5.328-17.577,2.953-17.043-3.92c0.481-6.078,5.702-14.046-4.356-17.208
			c-0.204-0.06-43.75-14.295-44.098-14.416c-3.454-1.325-3.829-2.753-2.975-6.42c4.612-17.827,1.347-19.92,28.899-10.69
			c5.901,2.097,4.164,4.663,4.441,7.302c0.439,4.179,4.217,4.465,6.077,2.722c3.165-2.964,8.17-21.611,6.304-24.484
			c-1.308-2.014-5.424-3.214-6.748-1.94c-0.532,0.512-0.673,1.293-0.952,1.977c-1.299,3.181-5.396,3.566-8.309,2.826
			c-0.345-0.086-18.51-4.674-20.618-7.046c-1.513-1.82-0.496-4.019,1.902-13.457c0.721-2.523,1.716-8.61,7.757-7.373
			c2.285,0.449,22.733,6.296,26.988,7.733c19.78,5.825,21.267,6.071,23.457,4.827c3.308-1.881-0.312,8.443,51.724-185.683
			c1.898-7.145-1.201-7.804-0.774-11.457c0.373-3.441,4.268-3.945,6.455-7.742c2.355-4.007,5.109-13.302,4.139-18.28
			c-0.774-4.564-3.519-5.182-0.581-11.394c13.881-28.786-2.365-26.31-18.575-72.052c-13.055-35.739,0.764-72.977,28.079-76.214
			c4.311-0.696,8.683-0.104,12.958,0.55c2.374,0.409,4.598,1.85,7.068,1.539c0.459-0.058,2.427-6.782,2.825-7.527
			c5.866-10.954,18.675-15.133,29.459-11.284C1087.795,72.354,1089.572,73.699,1091.269,75.067 M1085.075,75.775
			c-9.961-4.277-19.677,0.296-24.162,6.142c-7.151,9.322,0.06,13.75,5.26,21.443c4.741,7.013,4.708,5.859,18.107,1.35
			c2.705-0.91,5.485-1.862,7.645-3.728c5.745-4.961,2.847-15.338-1.103-20.527C1089.363,78.425,1087.389,76.752,1085.075,75.775
			 M1040.573,201.303c3.473,4.624,6.199,6.613,14.134,2.445c21.353-11.215,9.068-3.842,23.015-12.726
			c17.693-11.391,39.767-33.206,37.411-53.922c-2.781-23.949-26.987-23.086-40.355-11.655c-1.372,1.173-5.758,5.62-8.605,5.287
			c-1.649-0.193-2.165-1.599-2.823-3.043C1039.433,70.613,982.967,118.728,1040.573,201.303z"/>
	</g>
</g>
<g id="Red_Heart">
</g>
</svg>
