<?xml version="1.0" encoding="UTF-8" standalone="no"?>
<svg
   xmlns:dc="http://purl.org/dc/elements/1.1/"
   xmlns:cc="http://creativecommons.org/ns#"
   xmlns:rdf="http://www.w3.org/1999/02/22-rdf-syntax-ns#"
   xmlns:svg="http://www.w3.org/2000/svg"
   xmlns="http://www.w3.org/2000/svg"
   viewBox="0 0 711.17065 782.60376"
   height="782.60376"
   width="711.17065"
   xml:space="preserve"
   id="svg2"
   version="1.1"><metadata
     id="metadata8"><rdf:RDF><cc:Work
         rdf:about=""><dc:format>image/svg+xml</dc:format><dc:type
           rdf:resource="http://purl.org/dc/dcmitype/StillImage" /></cc:Work></rdf:RDF></metadata><defs
     id="defs6" /><g
     transform="matrix(1.3333333,0,0,-1.3333333,0,782.60531)"
     id="g10"><g
       transform="scale(0.1)"
       id="g12"><path
         id="path14"
         style="fill:#a7a5a6;fill-opacity:1;fill-rule:nonzero;stroke:none"
         d="m 1607.94,0.0117188 c -4.41,0 -7.38,1.3476612 -8.82,4.1367212 -1.44,2.88281 -2.16,6.93356 -2.16,12.33206 V 123.492 c 0,4.77 0.9,8.278 2.97,10.617 1.98,2.25 4.68,3.512 8.01,3.512 3.42,0 6.12,-1.262 8.28,-3.601 2.07,-2.43 3.15,-5.938 3.15,-10.348 v -2.973 c 4.5,5.672 9.09,9.992 13.95,12.602 4.77,2.699 10.26,4.14 16.38,4.14 7.29,0 14.04,-2.07 20.16,-5.941 6.12,-3.961 10.98,-9.629 14.58,-17.281 3.51,-7.559 5.31,-16.469 5.31,-26.8167 0,-7.6523 -0.99,-14.7617 -3.06,-21.0625 -2.07,-6.3906 -4.86,-11.789 -8.46,-16.1093 -3.6,-4.3203 -7.92,-7.6485 -12.78,-9.9883 -4.95,-2.3438 -10.17,-3.5117 -15.75,-3.5117 -6.84,0 -12.51,1.4414 -17.19,4.3203 -4.59,2.789 -9,6.9297 -13.14,12.5078 v -37.168 c 0,-10.98044 -3.78,-16.3788812 -11.43,-16.3788812 M 1643.85,118.992 c -6.57,0 -12.15,-2.703 -16.65,-8.101 -4.5,-5.403 -6.75,-13.3207 -6.75,-23.7621 0,-9.8984 2.25,-17.5469 6.75,-22.9492 4.5,-5.4883 9.99,-8.2813 16.65,-8.2813 3.87,0 7.56,1.1719 10.98,3.6016 3.33,2.4297 6.03,5.9414 8.01,10.7109 2.07,4.8594 3.06,10.6211 3.06,17.3711 0,6.5664 -0.9,12.1485 -2.88,16.828 -1.89,4.68 -4.5,8.281 -7.92,10.891 -3.42,2.429 -7.11,3.691 -11.25,3.691" /><path
         id="path16"
         style="fill:#a7a5a6;fill-opacity:1;fill-rule:nonzero;stroke:none"
         d="m 1781.73,36.8203 c -3.24,0 -5.85,1.168 -8.01,3.6016 -2.07,2.5195 -3.15,5.8476 -3.15,10.3476 v 3.1524 c -2.88,-3.7813 -5.85,-6.9297 -9,-9.3633 -3.15,-2.6094 -6.57,-4.5 -10.26,-5.7578 C 1747.62,37.6289 1743.3,37 1738.62,37 c -5.76,0 -10.89,1.2617 -15.48,3.6914 -4.5,2.4297 -8.01,5.8477 -10.53,10.2578 -2.97,5.2227 -4.41,12.7813 -4.41,22.6797 V 122.77 c 0,4.859 0.99,8.64 3.15,11.07 2.16,2.43 5.04,3.691 8.55,3.691 3.6,0 6.48,-1.261 8.73,-3.781 2.16,-2.43 3.24,-6.121 3.24,-10.98 V 82.9883 c 0,-5.668 0.54,-10.5274 1.35,-14.3985 0.99,-3.9609 2.7,-6.9296 5.13,-9.1796 2.34,-2.25 5.58,-3.3282 9.72,-3.3282 4.05,0 7.83,1.2578 11.34,3.7774 3.51,2.4297 6.12,5.6719 7.74,9.6328 1.35,3.5078 1.98,11.25 1.98,23.1289 V 122.77 c 0,4.859 1.08,8.55 3.33,10.98 2.16,2.52 5.04,3.781 8.55,3.781 3.6,0 6.39,-1.261 8.55,-3.691 2.16,-2.43 3.24,-6.211 3.24,-11.07 V 50.9492 c 0,-4.7695 -0.99,-8.2773 -3.15,-10.6172 -1.98,-2.4336 -4.68,-3.5117 -7.92,-3.5117" /><path
         id="path18"
         style="fill:#a7a5a6;fill-opacity:1;fill-rule:nonzero;stroke:none"
         d="m 1868.94,36.7305 c -3.69,0 -7.11,0.4492 -10.35,1.4414 -3.24,0.8984 -5.94,2.0703 -8.19,3.5976 -2.25,1.3516 -4.23,2.9727 -5.76,4.5 -1.62,1.6211 -3.69,3.961 -6.3,7.1094 v -2.4297 c 0,-4.6797 -1.08,-8.1875 -3.24,-10.6172 -2.16,-2.4336 -4.95,-3.6015 -8.19,-3.6015 -3.42,0 -6.03,1.1679 -8.1,3.6015 -1.98,2.4297 -2.97,5.9375 -2.97,10.6172 V 159.129 c 0,5.043 0.99,8.82 2.97,11.43 1.89,2.523 4.59,3.871 8.1,3.871 3.6,0 6.48,-1.258 8.37,-3.778 2.07,-2.433 3.06,-5.851 3.06,-10.441 V 122.41 c 4.41,4.86 9,8.551 13.59,11.16 4.68,2.52 10.44,3.871 17.28,3.871 7.83,0 14.76,-2.07 20.7,-5.851 5.94,-3.961 10.62,-9.629 13.86,-17.008 3.33,-7.473 4.95,-16.2031 4.95,-26.3711 0,-7.5586 -0.99,-14.4023 -2.79,-20.6992 -1.8,-6.3008 -4.41,-11.7031 -7.92,-16.2929 -3.51,-4.5899 -7.74,-8.0977 -12.69,-10.7071 -4.95,-2.5234 -10.44,-3.7812 -16.38,-3.7812 m -6.03,82.2615 c -4.59,0 -8.55,-1.262 -12.06,-3.871 -3.6,-2.519 -6.3,-6.301 -8.37,-11.16 -2.07,-4.8594 -3.06,-10.6212 -3.06,-17.3712 0,-9.8984 2.16,-17.4609 6.48,-22.7695 4.32,-5.2187 9.99,-7.9219 17.01,-7.9219 6.03,0 11.16,2.7032 15.48,8.1016 4.32,5.4023 6.48,13.1406 6.48,23.3086 0,6.5703 -0.9,12.1523 -2.7,16.9214 -1.8,4.68 -4.41,8.372 -7.65,10.891 -3.33,2.609 -7.2,3.871 -11.61,3.871" /><path
         id="path20"
         style="fill:#a7a5a6;fill-opacity:1;fill-rule:nonzero;stroke:none"
         d="m 1937.16,36.7305 c -3.42,0 -6.3,1.3515 -8.46,3.9609 -2.16,2.6094 -3.24,6.3008 -3.24,11.1602 V 159.309 c 0,4.953 1.08,8.73 3.15,11.25 2.16,2.523 4.95,3.871 8.55,3.871 3.6,0 6.48,-1.258 8.73,-3.778 2.16,-2.523 3.33,-6.3 3.33,-11.343 V 51.8516 c 0,-5.043 -1.17,-8.8203 -3.42,-11.3399 -2.16,-2.5234 -5.13,-3.7812 -8.64,-3.7812" /><path
         id="path22"
         style="fill:#a7a5a6;fill-opacity:1;fill-rule:nonzero;stroke:none"
         d="m 1985.49,36.7305 c -3.51,0 -6.3,1.3515 -8.55,3.9609 -2.16,2.6094 -3.24,6.3008 -3.24,11.1602 V 122.77 c 0,4.859 1.08,8.55 3.24,10.98 2.25,2.52 5.04,3.781 8.55,3.781 3.42,0 6.3,-1.261 8.55,-3.781 2.25,-2.43 3.42,-5.852 3.42,-10.352 V 51.8516 c 0,-5.043 -1.17,-8.7305 -3.42,-11.25 -2.25,-2.5196 -5.13,-3.8711 -8.55,-3.8711 m 0.18,112.3205 c -3.24,0 -6.12,1.078 -8.46,3.238 -2.34,2.07 -3.51,5.133 -3.51,9 0,3.512 1.17,6.391 3.6,8.641 2.43,2.34 5.22,3.422 8.37,3.422 3.06,0 5.85,-1.082 8.19,-3.063 2.43,-2.07 3.6,-5.129 3.6,-9 0,-3.867 -1.17,-6.84 -3.51,-8.91 -2.34,-2.16 -5.04,-3.328 -8.28,-3.328" /><path
         id="path24"
         style="fill:#a7a5a6;fill-opacity:1;fill-rule:nonzero;stroke:none"
         d="m 2063.97,37 c -14.67,0 -26.1,4.4102 -34.29,13.3203 -8.28,9 -12.42,20.8789 -12.42,35.9102 0,10.1679 1.89,19.1675 5.67,26.9995 3.78,7.739 9.27,13.77 16.38,18.09 7.11,4.231 15.66,6.391 25.56,6.391 6.12,0 11.79,-0.992 16.92,-2.789 5.13,-1.891 9.45,-4.32 13.05,-7.293 3.51,-2.969 6.3,-6.117 8.19,-9.449 1.89,-3.418 2.79,-6.481 2.79,-9.45 0,-2.878 -1.08,-5.398 -3.15,-7.468 -2.16,-2.0706 -4.68,-3.1526 -7.74,-3.1526 -1.98,0 -3.6,0.6289 -4.86,1.6211 -1.35,1.0785 -2.79,2.6995 -4.41,5.1285 -2.88,4.59 -5.94,8.102 -9.09,10.442 -3.15,2.25 -7.2,3.418 -12.06,3.418 -7.02,0 -12.69,-2.879 -17.01,-8.637 -4.23,-5.762 -6.39,-13.5 -6.39,-23.4922 0,-4.5898 0.54,-8.9101 1.62,-12.871 1.17,-3.8672 2.79,-7.1993 4.77,-9.9883 2.16,-2.6992 4.68,-4.7696 7.65,-6.211 2.97,-1.4375 6.21,-2.1601 9.72,-2.1601 4.77,0 8.82,1.1719 12.24,3.4219 3.33,2.3398 6.39,5.8476 9,10.5273 1.44,2.8828 2.97,5.043 4.68,6.5703 1.71,1.6211 3.78,2.3399 6.21,2.3399 2.88,0 5.31,-1.0782 7.2,-3.418 1.89,-2.3399 2.88,-4.7695 2.88,-7.3789 0,-3.0625 -0.9,-6.3906 -2.7,-9.9024 -1.8,-3.5078 -4.41,-6.8398 -8.1,-9.9882 -3.6,-3.1524 -8.19,-5.7618 -13.68,-7.6524 C 2077.11,37.8984 2070.9,37 2063.97,37" /><path
         id="path26"
         style="fill:#a7a5a6;fill-opacity:1;fill-rule:nonzero;stroke:none"
         d="m 2204.01,36.7305 c -3.15,0 -5.85,1.2578 -8.01,3.6914 -2.07,2.4297 -3.15,5.9375 -3.15,10.5273 v 2.4297 c -3.15,-3.8672 -6.39,-6.9297 -9.45,-9.2695 -3.06,-2.4297 -6.48,-4.2305 -10.08,-5.4883 -3.6,-1.1719 -7.56,-1.8906 -11.88,-1.8906 -5.67,0 -10.98,1.2578 -15.75,3.7812 -4.86,2.6094 -9.09,6.1172 -12.6,10.7969 -3.51,4.5898 -6.21,10.082 -8.01,16.4727 -1.89,6.2109 -2.79,13.0507 -2.79,20.4296 0,15.4801 3.69,27.5391 10.89,36.1801 7.29,8.73 16.83,13.05 28.62,13.05 6.84,0 12.6,-1.261 17.28,-3.781 4.68,-2.43 9.27,-6.211 13.77,-11.25 v 36.539 c 0,5.133 0.99,8.91 2.88,11.52 1.98,2.613 4.68,3.961 8.28,3.961 3.6,0 6.39,-1.258 8.37,-3.598 1.89,-2.434 2.88,-5.941 2.88,-10.621 V 50.9492 c 0,-4.7695 -0.99,-8.2773 -3.15,-10.6172 -2.07,-2.4336 -4.77,-3.6015 -8.1,-3.6015 m -35.46,82.2615 c -4.32,0 -8.19,-1.262 -11.61,-3.871 -3.42,-2.519 -6.03,-6.211 -7.92,-11.07 -1.89,-4.8596 -2.88,-10.3518 -2.88,-16.7424 0,-6.75 0.99,-12.418 3.06,-17.1875 1.98,-4.6797 4.68,-8.1914 8.1,-10.6211 3.6,-2.4297 7.38,-3.6016 11.43,-3.6016 4.23,0 8.01,1.1719 11.43,3.4219 3.51,2.25 6.21,5.7617 8.28,10.4414 2.07,4.6797 3.06,10.5274 3.06,17.5469 0,6.5703 -0.99,12.2422 -3.06,17.0114 -2.07,4.77 -4.86,8.371 -8.37,10.981 -3.51,2.429 -7.29,3.691 -11.52,3.691" /><path
         id="path28"
         style="fill:#a7a5a6;fill-opacity:1;fill-rule:nonzero;stroke:none"
         d="m 2280.6,36.7305 c -7.2,0 -13.68,1.1679 -19.35,3.6914 -5.76,2.3398 -10.8,5.8476 -14.94,10.3476 -4.23,4.5 -7.38,9.8125 -9.63,15.9297 -2.16,6.211 -3.24,12.961 -3.24,20.4297 0,7.4727 1.17,14.4021 3.33,20.6131 2.16,6.207 5.31,11.52 9.45,15.93 4.14,4.41 9.09,7.828 15.03,10.258 5.85,2.34 12.24,3.601 19.35,3.601 7.2,0 13.77,-1.261 19.62,-3.691 5.76,-2.34 10.8,-5.852 15.03,-10.348 4.14,-4.5 7.29,-9.812 9.45,-16.023 2.25,-6.117 3.33,-12.9573 3.33,-20.3401 0,-7.3789 -1.17,-14.2187 -3.33,-20.5195 -2.16,-6.1211 -5.4,-11.5196 -9.54,-16.0196 -4.23,-4.5 -9.18,-7.8281 -14.94,-10.2578 -5.85,-2.4336 -12.42,-3.6015 -19.62,-3.6015 m 0,82.3515 c -4.68,0 -8.73,-1.262 -12.24,-3.691 -3.51,-2.61 -6.3,-6.301 -8.19,-11.161 -1.89,-4.8589 -2.88,-10.6206 -2.88,-17.1011 0,-6.4766 0.99,-12.1484 2.79,-17.0078 1.89,-4.8594 4.59,-8.5508 8.19,-11.1602 3.42,-2.5195 7.65,-3.7812 12.33,-3.7812 7.2,0 12.96,2.7891 17.19,8.4609 4.23,5.668 6.39,13.5 6.39,23.4883 0,9.9922 -2.16,17.9101 -6.39,23.5821 -4.23,5.578 -9.99,8.371 -17.19,8.371" /><path
         id="path30"
         style="fill:#a7a5a6;fill-opacity:1;fill-rule:nonzero;stroke:none"
         d="m 2468.88,36.7305 c -3.6,0 -6.48,1.3515 -8.82,4.0508 -2.25,2.5195 -3.42,6.4804 -3.42,11.6093 v 41.7578 c 0,5.3125 -0.27,9.5426 -0.63,12.7816 -0.45,3.242 -1.62,5.851 -3.6,8.011 -1.89,2.25 -4.77,3.329 -8.64,3.329 -3.15,0 -6.12,-0.989 -8.91,-2.879 -2.88,-1.981 -4.95,-4.59 -6.57,-7.832 -1.8,-4.227 -2.61,-11.6098 -2.61,-22.227 V 52.3906 c 0,-5.1289 -1.08,-9.0898 -3.42,-11.6992 -2.25,-2.6094 -5.22,-3.9609 -8.91,-3.9609 -3.6,0 -6.57,1.3515 -8.73,3.9609 -2.25,2.6094 -3.33,6.5703 -3.33,11.6992 v 39.5117 c 0,6.2071 -0.27,11.0667 -0.63,14.5777 -0.45,3.422 -1.53,6.301 -3.33,8.461 -1.8,2.25 -4.59,3.329 -8.46,3.329 -7.83,0 -12.87,-2.79 -15.39,-8.368 -2.52,-5.582 -3.69,-13.5934 -3.69,-24.0309 V 52.3906 c 0,-5.1289 -1.08,-9.0898 -3.33,-11.6093 -2.25,-2.6993 -5.22,-4.0508 -8.82,-4.0508 -3.6,0 -6.57,1.3515 -8.82,4.0508 -2.34,2.5195 -3.42,6.4804 -3.42,11.6093 v 70.9184 c 0,4.679 0.99,8.191 3.06,10.621 2.07,2.429 4.77,3.691 8.1,3.691 3.24,0 5.94,-1.172 8.19,-3.422 2.16,-2.25 3.24,-5.398 3.24,-9.449 v -2.34 c 4.05,5.219 8.46,9 13.23,11.34 4.68,2.43 9.9,3.691 15.66,3.691 5.94,0 10.98,-1.261 15.3,-3.781 4.32,-2.43 7.83,-6.211 10.62,-11.25 3.96,5.039 8.28,8.91 12.87,11.34 4.59,2.43 9.63,3.691 15.21,3.691 6.57,0 12.15,-1.351 16.83,-4.05 4.68,-2.61 8.19,-6.481 10.53,-11.43 1.98,-4.5 2.97,-11.52 2.97,-21.152 V 52.3906 c 0,-5.1289 -1.08,-9.0898 -3.33,-11.6992 -2.25,-2.6094 -5.22,-3.9609 -9,-3.9609" /><path
         id="path32"
         style="fill:#a7a5a6;fill-opacity:1;fill-rule:nonzero;stroke:none"
         d="m 2579.13,36.7305 c -2.43,0 -4.86,1.1679 -7.29,3.6015 -2.34,2.4297 -4.86,5.8477 -7.47,10.3477 -5.76,-4.5899 -11.34,-8.0977 -16.74,-10.4375 -5.31,-2.3438 -11.34,-3.5117 -18,-3.5117 -6.12,0 -11.43,1.2578 -16.11,3.7812 -4.59,2.5196 -8.1,5.9375 -10.62,10.2578 -2.52,4.3203 -3.78,8.9102 -3.78,13.9493 0,6.8437 2.16,12.6015 6.21,17.371 4.14,4.6797 9.81,7.9219 16.92,9.629 1.53,0.3632 5.31,1.082 11.25,2.4296 6.03,1.2618 11.07,2.4336 15.39,3.4219 4.23,1.082 8.91,2.3399 13.86,3.8707 -0.27,6.571 -1.53,11.34 -3.78,14.489 -2.25,2.968 -6.84,4.5 -13.86,4.5 -6.03,0 -10.53,-0.809 -13.68,-2.61 -2.97,-1.711 -5.58,-4.41 -7.74,-7.918 -2.25,-3.511 -3.78,-5.851 -4.68,-6.933 -0.9,-1.168 -2.79,-1.617 -5.76,-1.617 -2.7,0 -4.95,0.808 -6.84,2.609 -1.98,1.801 -2.97,4.051 -2.97,6.84 0,4.41 1.44,8.64 4.41,12.691 2.97,4.137 7.56,7.559 13.86,10.258 6.21,2.609 14.04,3.961 23.4,3.961 10.44,0 18.63,-1.352 24.66,-3.871 5.94,-2.52 10.17,-6.57 12.6,-12.238 2.43,-5.493 3.69,-12.872 3.69,-22.1411 0,-5.7617 0,-10.7109 0,-14.7617 -0.09,-4.0469 -0.09,-8.6406 -0.18,-13.5898 0,-4.5899 0.72,-9.4492 2.25,-14.4883 1.44,-5.0391 2.16,-8.3711 2.16,-9.8125 0,-2.5195 -1.17,-4.8594 -3.42,-6.9297 -2.25,-2.0664 -4.86,-3.1484 -7.74,-3.1484 m -16.38,49.8593 c -3.51,-1.3476 -8.55,-2.6992 -15.21,-4.2304 -6.57,-1.4375 -11.25,-2.5196 -13.77,-3.2383 -2.52,-0.7227 -4.95,-2.0703 -7.29,-4.0508 -2.34,-2.1601 -3.51,-4.9492 -3.51,-8.5508 0,-3.7773 1.35,-7.0195 4.14,-9.6289 2.7,-2.6093 6.3,-3.9609 10.71,-3.9609 4.68,0 9,1.082 12.96,3.2422 3.96,2.1601 6.93,4.9492 8.73,8.3672 2.16,3.6914 3.24,9.9023 3.24,18.5429 v 3.5078" /><path
         id="path34"
         style="fill:#a7a5a6;fill-opacity:1;fill-rule:nonzero;stroke:none"
         d="m 2621.97,36.7305 c -3.51,0 -6.39,1.3515 -8.46,3.9609 -2.25,2.6094 -3.33,6.3008 -3.33,11.1602 V 122.77 c 0,4.859 1.08,8.55 3.33,10.98 2.07,2.52 4.95,3.781 8.46,3.781 3.51,0 6.3,-1.261 8.55,-3.781 2.25,-2.43 3.42,-5.852 3.42,-10.352 V 51.8516 c 0,-5.043 -1.17,-8.7305 -3.42,-11.25 -2.25,-2.5196 -5.04,-3.8711 -8.55,-3.8711 m 0.27,112.3205 c -3.33,0 -6.12,1.078 -8.46,3.238 -2.34,2.07 -3.6,5.133 -3.6,9 0,3.512 1.26,6.391 3.69,8.641 2.34,2.34 5.13,3.422 8.37,3.422 3.06,0 5.76,-1.082 8.19,-3.063 2.34,-2.07 3.51,-5.129 3.51,-9 0,-3.867 -1.17,-6.84 -3.42,-8.91 -2.34,-2.16 -5.13,-3.328 -8.28,-3.328" /><path
         id="path36"
         style="fill:#a7a5a6;fill-opacity:1;fill-rule:nonzero;stroke:none"
         d="m 2730.69,36.7305 c -3.51,0 -6.39,1.3515 -8.55,3.9609 -2.25,2.6094 -3.33,6.3008 -3.33,11.1602 v 41.2187 c 0,8.2817 -1.08,14.4887 -3.24,18.8087 -2.25,4.32 -6.57,6.48 -13.05,6.48 -4.23,0 -8.1,-1.257 -11.61,-3.957 -3.42,-2.613 -6.03,-6.211 -7.65,-10.8 -1.08,-3.6918 -1.71,-10.6215 -1.71,-20.7895 V 51.8516 c 0,-5.043 -1.17,-8.8203 -3.33,-11.3399 -2.25,-2.5234 -5.13,-3.7812 -8.64,-3.7812 -3.42,0 -6.3,1.3515 -8.46,3.9609 -2.25,2.6094 -3.33,6.3008 -3.33,11.1602 v 71.5464 c 0,4.774 0.99,8.282 2.97,10.622 1.98,2.339 4.68,3.511 8.1,3.511 2.07,0 3.96,-0.539 5.58,-1.531 1.8,-1.078 3.06,-2.609 4.05,-4.59 1.08,-2.16 1.62,-4.68 1.62,-7.648 v -2.973 c 4.14,5.762 8.73,9.992 13.59,12.691 5.04,2.7 10.71,4.051 17.19,4.051 6.21,0 11.79,-1.441 16.74,-4.32 4.95,-2.789 8.64,-6.84 11.07,-11.973 1.53,-3.058 2.52,-6.386 3.06,-9.898 0.36,-3.508 0.72,-7.918 0.72,-13.4103 V 51.8516 c 0,-5.043 -1.17,-8.7305 -3.33,-11.25 -2.16,-2.5196 -5.04,-3.8711 -8.46,-3.8711" /><path
         id="path38"
         style="fill:#a7a5a6;fill-opacity:1;fill-rule:nonzero;stroke:none"
         d="m 2799.72,36.7305 c -3.33,0 -6.03,0.8086 -8.01,2.4297 -2.07,1.6211 -3.51,3.3281 -4.5,5.3086 -0.9,1.8007 -2.52,5.582 -4.77,11.25 l -22.68,58.4102 c -0.54,1.441 -1.08,2.883 -1.62,4.32 -0.54,1.442 -0.99,2.883 -1.35,4.41 -0.36,1.532 -0.54,2.883 -0.54,3.871 0,1.801 0.45,3.418 1.44,5.129 0.99,1.621 2.34,3.063 4.14,4.051 1.71,1.082 3.6,1.621 5.67,1.621 3.87,0 6.57,-1.172 8.1,-3.601 1.44,-2.34 3.15,-6.301 4.95,-11.879 l 19.17,-56.2502 20.7,58.7692 c 1.71,4.68 3.24,8.012 4.86,9.989 1.53,1.98 3.87,2.972 7.11,2.972 2.97,0 5.58,-1.082 7.74,-3.242 2.07,-2.07 3.15,-4.5 3.15,-7.379 0,-1.078 -0.27,-2.34 -0.63,-3.691 -0.36,-1.528 -0.72,-2.879 -1.26,-4.137 -0.54,-1.262 -0.99,-2.703 -1.71,-4.32 l -22.77,-59.0432 c -0.63,-1.7071 -1.53,-3.8672 -2.52,-6.4805 -0.99,-2.5195 -2.16,-4.7695 -3.42,-6.6563 -1.26,-1.8007 -2.79,-3.2422 -4.59,-4.2304 -1.8,-1.0821 -4.05,-1.6211 -6.66,-1.6211" /><path
         id="path40"
         style="fill:#a7a5a6;fill-opacity:1;fill-rule:nonzero;stroke:none"
         d="m 2901.69,36.7305 c -15.3,0 -27.18,4.5898 -35.55,13.6797 -8.46,9.0898 -12.69,21.3281 -12.69,36.8984 0,7.3828 1.08,14.1324 3.15,20.3394 2.07,6.301 5.04,11.704 9.09,16.114 3.96,4.5 8.91,8.008 14.76,10.347 5.85,2.43 12.33,3.602 19.53,3.602 9.18,0 17.19,-2.07 23.85,-6.121 6.66,-4.141 11.61,-9.36 14.94,-15.84 3.24,-6.48 4.95,-13.051 4.95,-19.8008 0,-6.207 -1.71,-10.2578 -5.13,-12.0586 -3.51,-1.8906 -8.28,-2.789 -14.49,-2.789 h -46.44 c 0,-5.6719 1.17,-10.6211 3.24,-14.9414 2.16,-4.2305 4.95,-7.4688 8.46,-9.7188 3.51,-2.1601 7.38,-3.2422 11.61,-3.2422 2.88,0 5.49,0.3594 7.83,0.9922 2.34,0.7188 4.59,1.8008 6.84,3.3281 2.16,1.4414 4.14,2.9688 6.03,4.7696 1.8,1.7109 4.32,3.9609 7.2,6.8398 1.26,1.1719 2.97,1.7109 5.22,1.7109 2.52,0 4.41,-0.7187 5.94,-2.1601 1.53,-1.3477 2.25,-3.3281 2.25,-5.8477 0,-2.25 -0.81,-4.8632 -2.52,-7.9218 -1.71,-2.8789 -4.14,-5.8477 -7.65,-8.6407 -3.33,-2.6992 -7.65,-4.9492 -12.78,-6.8398 -5.04,-1.8008 -10.98,-2.6992 -17.64,-2.6992 m -2.52,83.6995 c -5.94,0 -10.8,-2.16 -14.58,-6.391 -3.78,-4.23 -6.03,-10.527 -6.93,-18.8984 h 43.02 c -0.54,8.4614 -2.7,14.8474 -6.48,18.9884 -3.87,4.23 -8.82,6.301 -15.03,6.301" /><path
         id="path42"
         style="fill:#a7a5a6;fill-opacity:1;fill-rule:nonzero;stroke:none"
         d="m 3005.82,37 c -14.67,0 -26.19,4.4102 -34.38,13.3203 -8.19,9 -12.33,20.8789 -12.33,35.9102 0,10.1679 1.8,19.1675 5.67,26.9995 3.78,7.739 9.18,13.77 16.29,18.09 7.11,4.231 15.66,6.391 25.56,6.391 6.21,0 11.79,-0.992 17.01,-2.789 5.13,-1.891 9.36,-4.32 13.05,-7.293 3.51,-2.969 6.21,-6.117 8.19,-9.449 1.8,-3.418 2.79,-6.481 2.79,-9.45 0,-2.878 -1.08,-5.398 -3.24,-7.468 -2.07,-2.0706 -4.68,-3.1526 -7.65,-3.1526 -1.98,0 -3.6,0.6289 -4.86,1.6211 -1.35,1.0785 -2.79,2.6995 -4.5,5.1285 -2.88,4.59 -5.85,8.102 -9.09,10.442 -3.15,2.25 -7.11,3.418 -12.06,3.418 -6.93,0 -12.6,-2.879 -16.92,-8.637 -4.32,-5.762 -6.39,-13.5 -6.39,-23.4922 0,-4.5898 0.54,-8.9101 1.62,-12.871 1.08,-3.8672 2.7,-7.1993 4.77,-9.9883 2.07,-2.6992 4.68,-4.7696 7.56,-6.211 2.97,-1.4375 6.21,-2.1601 9.72,-2.1601 4.77,0 8.91,1.1719 12.24,3.4219 3.42,2.3398 6.48,5.8476 9.09,10.5273 1.44,2.8828 2.97,5.043 4.68,6.5703 1.62,1.6211 3.69,2.3399 6.12,2.3399 2.88,0 5.31,-1.0782 7.2,-3.418 1.98,-2.3399 2.88,-4.7695 2.88,-7.3789 0,-3.0625 -0.81,-6.3906 -2.61,-9.9024 -1.8,-3.5078 -4.5,-6.8398 -8.1,-9.9882 -3.6,-3.1524 -8.19,-5.7618 -13.77,-7.6524 C 3018.87,37.8984 3012.66,37 3005.82,37" /><path
         id="path44"
         style="fill:#a7a5a6;fill-opacity:1;fill-rule:nonzero;stroke:none"
         d="m 3099.78,36.7305 c -7.47,0 -13.14,1.3515 -16.92,3.9609 -3.78,2.6094 -6.39,6.1172 -7.47,10.8008 -1.26,4.5898 -1.8,10.707 -1.8,18.4492 v 47.6096 h -3.24 c -3.33,0 -5.94,0.808 -7.74,2.519 -1.8,1.711 -2.7,3.871 -2.7,6.481 0,2.609 0.9,4.679 2.79,6.39 1.89,1.618 4.68,2.43 8.19,2.43 h 2.7 v 14.942 c 0,3.957 0.09,7.109 0.27,9.359 0.18,2.34 0.72,4.226 1.71,5.848 0.9,1.71 2.25,3.152 3.96,4.14 1.71,1.082 3.69,1.531 5.85,1.531 2.97,0 5.76,-1.171 8.19,-3.421 1.53,-1.618 2.61,-3.508 3.06,-5.758 0.45,-2.34 0.63,-5.582 0.63,-9.723 v -16.918 h 8.73 c 3.33,0 5.94,-0.812 7.74,-2.43 1.71,-1.711 2.61,-3.781 2.61,-6.39 0,-3.332 -1.26,-5.762 -3.78,-7.02 -2.52,-1.261 -6.12,-1.98 -10.89,-1.98 h -4.41 V 71.9219 c 0,-3.8711 0.18,-6.8399 0.36,-9 0.36,-2.0703 1.08,-3.7813 2.16,-5.043 1.08,-1.3476 2.97,-1.9805 5.49,-1.9805 1.44,0 3.33,0.2735 5.67,0.7227 2.34,0.5391 4.23,0.8086 5.58,0.8086 1.89,0 3.69,-0.8086 5.13,-2.3399 1.53,-1.7109 2.34,-3.5976 2.34,-6.0273 0,-3.9609 -2.07,-7.0234 -6.21,-9.0937 -4.23,-2.1563 -10.26,-3.2383 -18,-3.2383" /><path
         id="path46"
         style="fill:#a7a5a6;fill-opacity:1;fill-rule:nonzero;stroke:none"
         d="m 3174.12,36.7305 c -7.2,0 -13.68,1.1679 -19.44,3.6914 -5.67,2.3398 -10.71,5.8476 -14.85,10.3476 -4.23,4.5 -7.38,9.8125 -9.54,15.9297 -2.16,6.211 -3.24,12.961 -3.24,20.4297 0,7.4727 1.08,14.4021 3.24,20.6131 2.25,6.207 5.31,11.52 9.45,15.93 4.14,4.41 9.18,7.828 14.94,10.258 5.94,2.34 12.42,3.601 19.44,3.601 7.2,0 13.68,-1.261 19.62,-3.691 5.85,-2.34 10.8,-5.852 15.03,-10.348 4.14,-4.5 7.38,-9.812 9.54,-16.023 2.16,-6.117 3.24,-12.9573 3.24,-20.3401 0,-7.3789 -1.08,-14.2187 -3.33,-20.5195 -2.16,-6.1211 -5.4,-11.5196 -9.54,-16.0196 -4.23,-4.5 -9.18,-7.8281 -14.94,-10.2578 -5.85,-2.4336 -12.33,-3.6015 -19.62,-3.6015 m 0,82.3515 c -4.59,0 -8.73,-1.262 -12.24,-3.691 -3.6,-2.61 -6.3,-6.301 -8.19,-11.161 -1.89,-4.8589 -2.88,-10.6206 -2.88,-17.1011 0,-6.4766 0.99,-12.1484 2.88,-17.0078 1.89,-4.8594 4.5,-8.5508 8.01,-11.1602 3.51,-2.5195 7.65,-3.7812 12.42,-3.7812 7.2,0 12.87,2.7891 17.19,8.4609 4.23,5.668 6.39,13.5 6.39,23.4883 0,9.9922 -2.16,17.9101 -6.39,23.5821 -4.32,5.578 -9.99,8.371 -17.19,8.371" /><path
         id="path48"
         style="fill:#a7a5a6;fill-opacity:1;fill-rule:nonzero;stroke:none"
         d="m 3251.79,36.7305 c -3.42,0 -6.21,1.3515 -8.37,3.8711 -2.25,2.5195 -3.33,6.207 -3.33,11.25 v 68.9374 c 0,11.16 3.87,16.742 11.61,16.742 3.87,0 6.75,-1.351 8.46,-3.961 1.71,-2.519 2.7,-6.39 2.88,-11.519 2.88,5.129 5.76,9 8.73,11.519 3.06,2.61 7.02,3.961 11.97,3.961 5.04,0 9.81,-1.351 14.58,-3.961 4.68,-2.519 7.02,-6.031 7.02,-10.261 0,-3.059 -0.99,-5.579 -3.06,-7.559 -1.89,-1.891 -4.14,-2.969 -6.48,-2.969 -0.81,0 -2.97,0.629 -6.3,1.711 -3.33,1.168 -6.3,1.707 -8.82,1.707 -3.42,0 -6.3,-0.898 -8.46,-2.879 -2.25,-1.89 -3.96,-4.679 -5.13,-8.461 -1.26,-3.777 -2.16,-8.277 -2.52,-13.4098 -0.45,-5.1289 -0.72,-11.4297 -0.72,-18.9883 V 51.8516 c 0,-5.043 -1.17,-8.8203 -3.42,-11.3399 -2.25,-2.5234 -5.13,-3.7812 -8.64,-3.7812" /><path
         id="path50"
         style="fill:#a7a5a6;fill-opacity:1;fill-rule:nonzero;stroke:none"
         d="m 3348.54,36.7305 c -8.46,0 -15.75,1.4414 -21.87,4.1406 -6.12,2.6992 -10.62,6.1211 -13.5,10.168 -2.88,4.0507 -4.41,8.1914 -4.41,12.2422 0,2.789 0.99,5.1289 2.88,7.0195 1.8,1.9805 4.23,2.8789 7.02,2.8789 2.52,0 4.41,-0.6289 5.76,-1.8906 1.35,-1.3477 2.61,-3.0586 3.78,-5.3086 2.52,-4.5 5.4,-7.7383 8.82,-9.9883 3.33,-2.1602 8.01,-3.2422 13.86,-3.2422 4.77,0 8.64,1.082 11.7,3.332 3.06,2.1602 4.59,4.6797 4.59,7.5586 0,4.4102 -1.62,7.5586 -4.77,9.5391 -3.15,2.0703 -8.37,3.9609 -15.57,5.7617 -8.19,2.1602 -14.85,4.3203 -19.98,6.6602 -5.13,2.3398 -9.36,5.3984 -12.33,9.2695 -3.06,3.6875 -4.68,8.4609 -4.68,14.0389 0,4.949 1.44,9.629 4.32,14.039 2.79,4.41 7.02,7.922 12.6,10.621 5.49,2.61 12.15,3.961 20.07,3.961 6.12,0 11.61,-0.722 16.56,-1.98 4.86,-1.352 9,-3.149 12.24,-5.403 3.24,-2.25 5.76,-4.679 7.47,-7.378 1.8,-2.79 2.61,-5.489 2.61,-8.008 0,-2.883 -0.9,-5.133 -2.79,-7.02 -1.8,-1.801 -4.41,-2.703 -7.74,-2.703 -2.43,0 -4.5,0.723 -6.3,2.16 -1.62,1.442 -3.6,3.602 -5.85,6.481 -1.8,2.429 -3.87,4.41 -6.3,5.851 -2.52,1.438 -5.76,2.16 -9.9,2.16 -4.32,0 -7.92,-0.902 -10.71,-2.882 -2.88,-1.887 -4.32,-4.227 -4.32,-7.11 0,-2.609 1.08,-4.679 3.15,-6.386 2.07,-1.622 4.86,-3.063 8.46,-4.141 3.51,-1.082 8.37,-2.4337 14.58,-4.0509 7.38,-1.8008 13.41,-4.0508 18.09,-6.6602 4.68,-2.6093 8.19,-5.6718 10.62,-9.1796 2.43,-3.6016 3.6,-7.6524 3.6,-12.1524 0,-6.8398 -1.53,-12.6875 -4.77,-17.5469 -3.24,-4.8632 -7.92,-8.5507 -14.13,-11.0703 -6.3,-2.5234 -13.86,-3.7812 -22.86,-3.7812" /><path
         id="path52"
         style="fill:#a7a5a6;fill-opacity:1;fill-rule:nonzero;stroke:none"
         d="m 3417.3,36.7305 c -3.6,0 -6.75,1.1679 -9.27,3.6914 -2.7,2.3398 -3.96,5.7578 -3.96,10.0781 0,3.6914 1.26,6.9297 3.69,9.5391 2.52,2.7031 5.58,3.9609 9.27,3.9609 3.6,0 6.75,-1.2578 9.27,-3.9609 2.61,-2.5196 3.87,-5.7578 3.87,-9.5391 0,-4.2305 -1.26,-7.6484 -3.87,-10.0781 -2.52,-2.4336 -5.58,-3.6914 -9,-3.6914" /><path
         id="path54"
         style="fill:#a7a5a6;fill-opacity:1;fill-rule:nonzero;stroke:none"
         d="m 3498.75,36.7305 c -7.2,0 -13.68,1.1679 -19.44,3.6914 -5.76,2.3398 -10.62,5.8476 -14.85,10.3476 -4.23,4.5 -7.47,9.8125 -9.63,15.9297 -2.16,6.211 -3.24,12.961 -3.24,20.4297 0,7.4727 1.08,14.4021 3.33,20.6131 2.25,6.207 5.31,11.52 9.45,15.93 4.14,4.41 9.09,7.828 14.94,10.258 5.85,2.34 12.33,3.601 19.44,3.601 7.2,0 13.68,-1.261 19.53,-3.691 5.85,-2.34 10.89,-5.852 15.03,-10.348 4.23,-4.5 7.38,-9.812 9.54,-16.023 2.16,-6.117 3.33,-12.9573 3.33,-20.3401 0,-7.3789 -1.17,-14.2187 -3.33,-20.5195 -2.25,-6.1211 -5.4,-11.5196 -9.63,-16.0196 -4.14,-4.5 -9.09,-7.8281 -14.94,-10.2578 -5.76,-2.4336 -12.33,-3.6015 -19.53,-3.6015 m 0,82.3515 c -4.68,0 -8.73,-1.262 -12.24,-3.691 -3.6,-2.61 -6.3,-6.301 -8.19,-11.161 -1.89,-4.8589 -2.88,-10.6206 -2.88,-17.1011 0,-6.4766 0.9,-12.1484 2.79,-17.0078 1.98,-4.8594 4.59,-8.5508 8.1,-11.1602 3.51,-2.5195 7.65,-3.7812 12.42,-3.7812 7.2,0 12.87,2.7891 17.1,8.4609 4.32,5.668 6.39,13.5 6.39,23.4883 0,9.9922 -2.07,17.9101 -6.39,23.5821 -4.23,5.578 -9.9,8.371 -17.1,8.371" /><path
         id="path56"
         style="fill:#a7a5a6;fill-opacity:1;fill-rule:nonzero;stroke:none"
         d="m 3576.42,36.7305 c -3.42,0 -6.21,1.3515 -8.46,3.8711 -2.16,2.5195 -3.24,6.207 -3.24,11.25 v 68.9374 c 0,11.16 3.87,16.742 11.52,16.742 3.96,0 6.75,-1.351 8.55,-3.961 1.71,-2.519 2.7,-6.39 2.88,-11.519 2.79,5.129 5.76,9 8.73,11.519 2.97,2.61 6.93,3.961 11.88,3.961 5.13,0 9.9,-1.351 14.58,-3.961 4.68,-2.519 7.11,-6.031 7.11,-10.261 0,-3.059 -1.08,-5.579 -3.06,-7.559 -1.98,-1.891 -4.14,-2.969 -6.48,-2.969 -0.81,0 -2.97,0.629 -6.3,1.711 -3.33,1.168 -6.3,1.707 -8.82,1.707 -3.51,0 -6.3,-0.898 -8.55,-2.879 -2.16,-1.89 -3.87,-4.679 -5.13,-8.461 -1.17,-3.777 -2.07,-8.277 -2.52,-13.4098 -0.45,-5.1289 -0.72,-11.4297 -0.72,-18.9883 V 51.8516 c 0,-5.043 -1.08,-8.8203 -3.33,-11.3399 -2.25,-2.5234 -5.13,-3.7812 -8.64,-3.7812" /><path
         id="path58"
         style="fill:#a7a5a6;fill-opacity:1;fill-rule:nonzero;stroke:none"
         d="m 3678.21,0.0117188 c -8.19,0 -15.48,1.1679712 -21.87,3.5078112 -6.48,2.51953 -11.43,5.49219 -14.94,9.35937 -3.42,3.6914 -5.22,7.6524 -5.22,11.6133 0,3.0586 0.99,5.4883 2.97,7.3789 1.98,1.9805 4.32,2.8789 7.11,2.8789 3.51,0 6.57,-1.6211 9.18,-4.7695 1.26,-1.711 2.61,-3.3321 3.96,-4.9492 1.35,-1.711 2.88,-3.1524 4.5,-4.3204 1.62,-1.1718 3.69,-2.0703 6.03,-2.6093 2.25,-0.6328 4.95,-0.9024 7.92,-0.9024 6.12,0 10.98,0.9024 14.31,2.7031 3.42,1.7969 5.76,4.2266 7.2,7.4688 1.26,3.2383 2.16,6.6602 2.34,10.3477 0.27,3.6914 0.36,9.5429 0.54,17.6406 -3.6,-5.3086 -7.92,-9.3594 -12.69,-12.1485 -4.77,-2.789 -10.44,-4.1406 -17.01,-4.1406 -8.01,0 -14.94,2.0703 -20.88,6.3008 -5.94,4.3203 -10.53,10.168 -13.68,17.8203 -3.15,7.6484 -4.86,16.3789 -4.86,26.457 0,7.4727 0.99,14.1326 2.97,20.1606 1.89,5.941 4.68,10.98 8.28,15.121 3.6,4.14 7.74,7.289 12.42,9.359 4.77,2.07 9.9,3.152 15.57,3.152 6.66,0 12.51,-1.441 17.46,-4.14 4.95,-2.61 9.45,-6.93 13.68,-12.602 v 3.332 c 0,4.321 1.08,7.559 3.06,9.989 2.07,2.339 4.68,3.601 7.83,3.601 4.59,0 7.65,-1.621 9.18,-4.68 1.44,-3.152 2.25,-7.652 2.25,-13.589 V 47.3516 c 0,-8.1914 -0.9,-15.3008 -2.52,-21.2422 -1.71,-5.9375 -4.41,-10.7969 -8.1,-14.668 -3.69,-3.87109 -8.64,-6.74999 -14.58,-8.64062 C 3694.59,1 3687.12,0.0117188 3678.21,0.0117188 M 3679.47,118.992 c -6.75,0 -12.24,-2.703 -16.29,-8.101 -4.14,-5.403 -6.21,-13.0512 -6.21,-22.9496 0,-9.9922 2.16,-17.6406 6.39,-22.7695 4.14,-5.1328 9.63,-7.7422 16.2,-7.7422 3.96,0 7.74,1.1719 11.25,3.332 3.51,2.25 6.3,5.5781 8.55,9.9883 2.25,4.5 3.33,9.9023 3.33,16.1992 0,10.0821 -2.16,17.9998 -6.48,23.5818 -4.23,5.668 -9.81,8.461 -16.74,8.461" /><path
         id="path60"
         style="fill:#a7a5a6;fill-opacity:1;fill-rule:nonzero;stroke:none"
         d="m 2661.39,237.43 c -38.43,0 -71.28,14.218 -98.46,42.66 -27.18,28.351 -40.68,62.64 -40.68,102.781 0,40.141 13.5,74.34 40.68,102.781 27.18,28.438 60.03,42.657 98.46,42.657 38.43,0 71.19,-14.219 98.37,-42.657 27.18,-28.441 40.86,-62.64 40.86,-102.781 0,-40.141 -13.68,-74.43 -40.86,-102.781 -27.18,-28.442 -59.94,-42.66 -98.37,-42.66 m -53.66,48.492 c 15.74,-10.383 33.62,-15.551 53.66,-15.551 28.98,0 53.37,10.801 73.35,32.578 19.98,21.781 29.97,48.422 29.97,79.922 0,28.391 -8.12,52.899 -24.35,73.34 l 7.79,10 -20.34,17.187 -6.4,-8.207 c -17.22,13.508 -37.19,20.27 -60.02,20.27 -28.98,0 -53.46,-10.891 -73.44,-32.672 -19.98,-21.687 -29.97,-48.418 -29.97,-79.918 0,-31.301 9.87,-57.801 29.6,-79.512 l -9.08,-11.66 20.34,-17.187 8.89,11.41 m 57.44,14.687 c -14.65,0 -27.42,3.313 -38.31,9.879 l 21.28,27.325 c 5.3,-2.954 11.46,-4.442 18.47,-4.442 18.99,0 28.98,9.18 30.06,27.359 h 35.19 c -2.52,-19.082 -10.26,-33.839 -23.22,-44.55 -11.97,-10.438 -26.46,-15.571 -43.47,-15.571 m -57.97,27.942 c -11.05,14.738 -16.55,33.289 -16.55,55.578 0,24.84 6.48,44.641 19.35,59.672 12.78,14.937 30.96,22.41 54.45,22.41 15.88,0 29.53,-3.871 40.87,-11.68 l -20.08,-25.793 c -4.65,3.082 -10.62,4.621 -17.91,4.621 -27.18,0 -40.86,-16.109 -40.86,-48.418 0,-9.82 1.49,-18.449 4.45,-25.941 l -23.72,-30.449 m 124.66,80.961 h -27.87 l 19.57,25.129 c 4.12,-7.282 6.9,-15.661 8.3,-25.129" /><path
         id="path62"
         style="fill:#a7a5a6;fill-opacity:1;fill-rule:nonzero;stroke:none"
         d="m 2598.84,274.512 -20.34,17.187 9.08,11.66 19.62,25.192 23.72,30.449 54.32,69.738 20.08,25.793 16.09,20.66 6.4,8.207 20.34,-17.187 -7.79,-10 -16.8,-21.57 -19.57,-25.129 -55.85,-71.699 -21.28,-27.325 -19.13,-24.566 -8.89,-11.41" /><path
         id="path64"
         style="fill:#51ade5;fill-opacity:1;fill-rule:nonzero;stroke:none"
         d="M 5159.35,3202.65 C 5159.35,1826.08 4043.46,710.191 2666.9,710.191 1290.34,710.191 174.438,1826.08 174.438,3202.65 c 0,1376.54 1115.902,2492.45 2492.462,2492.45 1376.56,0 2492.45,-1115.91 2492.45,-2492.45" /><path
         id="path66"
         style="fill:#100f0d;fill-opacity:1;fill-rule:nonzero;stroke:none"
         d="M 2666.89,5520.68 C 1388.74,5520.68 348.867,4480.8 348.867,3202.64 348.867,1924.49 1388.74,884.621 2666.89,884.621 c 1278.15,0 2318.05,1039.869 2318.05,2318.019 0,1278.16 -1039.9,2318.04 -2318.05,2318.04 m 0,-4984.93 C 1196.36,535.75 0,1732.1 0,3202.64 c 0,1470.54 1196.36,2666.9 2666.89,2666.9 1470.53,0 2666.89,-1196.36 2666.89,-2666.9 0,-1470.54 -1196.36,-2666.89 -2666.89,-2666.89" /><path
         id="path68"
         style="fill:#100f0d;fill-opacity:1;fill-rule:nonzero;stroke:none"
         d="m 1020.97,2164.35 27.28,-47.68 393.31,229.46 -21.96,38.34 z m 788.41,550.09 -404.21,-221.35 42.98,-75.13 403.44,222.77 z m 480.81,263.3 -444.47,-243.41 42.12,-73.59 443.6,244.94 z m -394.64,-330.47 15.57,-27.19 437.63,255.32 -9.61,16.8 z m 1797.51,1293.64 c 1.53,-3.89 2.7,-7.91 3.64,-11.97 -0.85,4.07 -2.05,8.08 -3.64,11.97 m 3.67,-12.1 -0.03,0.13 0.03,-0.13 M 830.777,2413.3 464.84,2214 l 39.98,-74.9 367.934,200.88 z m 538.053,59.9 -399.432,-218.76 43.852,-76.61 398.64,220.11 z m -488.369,-146.71 -368.328,-201.11 42.808,-80.18 370.414,202.84 z m 52.613,-91.94 -370.812,-203.06 42.332,-79.31 372.398,205.64 z m -321.156,-296.06 31.09,-58.25 369.482,215.56 -27.779,48.53 z m 3427.482,2064.72 -0.02,0.11 0.02,-0.11 m -685.34,-148.66 c -0.87,4.07 -2.09,8.09 -3.65,11.98 1.52,-3.89 2.67,-7.91 3.65,-11.98 M 777.281,2506.78 413.355,2310.42 l 44.165,-82.74 365.539,199.11 z m 2576.809,1347.66 -0.03,0.11 0.03,-0.11 m 1421.87,32.07 c 0.03,14.6 -1.5,29.2 -2.19,43.64 -2.19,14.36 -5.35,28.56 -8.26,42.59 6.95,-57.24 0.46,-115.03 -18.88,-167.79 -19.51,-52.68 -50.61,-100.77 -91.1,-139.23 -40.15,-38.88 -89.55,-67.71 -142.89,-85.45 -53.49,-17.71 -110.95,-23.09 -168.54,-20.35 14.2,-2.2 28.53,-4.22 42.96,-5.99 14.38,-2.05 28.91,-0.89 43.5,-1.47 14.69,-0.77 29.02,2.31 43.59,3.87 14.65,1.19 28.79,5.02 43.01,8.73 56.9,14.84 109.9,44.93 152.7,85.73 42.54,40.99 75.1,92.66 91.88,149.15 4.93,13.85 6.51,28.69 9.88,42.91 2.66,14.39 2.9,29.18 4.34,43.66 m -737.86,79.82 c 3.33,11.84 3.87,24.64 1.3,36.88 2.32,-9.78 3.15,-19.93 2.45,-30.11 7.98,17.81 9.14,38.64 1.45,58.18 -11.65,29.49 -40,47.54 -69.95,47.54 -6.63,0 -13.29,-1.22 -19.89,-3.05 13.55,-1.07 26.6,-4.63 38,-10.8 20.59,-10.79 36.03,-28.96 44.26,-49.68 -8.06,21.02 -26.04,37.43 -46.57,44.36 -20.71,6.98 -43.24,4.1 -60.41,-5.91 -11.13,-6.41 -19.47,-15.15 -25.66,-24.87 -5.93,-16.52 -6.41,-35.08 0.5,-52.66 15.2,-38.53 58.99,-57.49 97.38,-42.31 16.41,6.47 28.95,18.24 37.14,32.43 m -685.31,-148.81 c 3.32,11.85 3.88,24.67 1.3,36.92 2.31,-9.77 3.15,-19.98 2.44,-30.16 l 0.44,0.79 c 8.01,18.4 8.35,38.79 0.99,57.44 -7.36,18.67 -21.54,33.34 -39.92,41.33 -9.59,4.17 -19.74,6.28 -29.88,6.28 -6.77,0 -13.47,-1.27 -20.06,-3.11 13.56,-1.07 26.64,-4.63 38.04,-10.79 20.59,-10.79 36.03,-28.98 44.27,-49.69 -8.05,21.03 -26.05,37.43 -46.59,44.35 -20.69,6.99 -43.23,4.11 -60.4,-5.89 -11.16,-6.45 -19.53,-15.22 -25.73,-24.97 -6.1,-17.1 -6.14,-35.52 0.6,-52.56 7.35,-18.66 21.52,-33.32 39.91,-41.32 18.39,-8 38.79,-8.37 57.45,-0.98 15.94,6.27 28.67,17.74 37.14,32.36 m -338.48,-66.83 c 7.99,18.4 8.34,38.8 1,57.44 v 0.02 c -7.37,18.66 -21.54,33.33 -39.93,41.31 -9.58,4.17 -19.73,6.27 -29.9,6.27 -6.73,0 -13.43,-1.25 -20.02,-3.1 13.54,-1.06 26.62,-4.63 38.01,-10.79 20.61,-10.78 36.04,-28.96 44.27,-49.69 -8.06,21.03 -26.03,37.44 -46.58,44.35 -20.67,7 -43.22,4.12 -60.39,-5.89 -11.17,-6.44 -19.52,-15.2 -25.74,-24.95 -6.08,-17.09 -6.13,-35.53 0.58,-52.57 7.36,-18.68 21.56,-33.34 39.92,-41.34 18.4,-7.99 38.83,-8.32 57.44,-0.98 15.94,6.28 28.71,17.75 37.13,32.36 3.36,11.86 3.9,24.66 1.32,36.9 2.33,-9.77 3.16,-19.95 2.46,-30.14 l 0.43,0.8 m 1231.42,352.55 c -5.92,-16.53 -6.42,-35.08 0.52,-52.66 15.17,-38.49 58.87,-57.53 97.38,-42.29 16.37,6.45 28.94,18.24 37.12,32.42 3.36,11.84 3.89,24.63 1.3,36.87 2.31,-9.75 3.16,-19.93 2.45,-30.1 7.99,17.8 9.15,38.64 1.44,58.18 -11.63,29.49 -39.99,47.54 -69.93,47.54 -6.64,0 -13.28,-1.23 -19.9,-3.06 13.56,-1.06 26.61,-4.62 37.99,-10.8 20.61,-10.78 36.05,-28.96 44.29,-49.68 -8.07,21.03 -26.03,37.43 -46.61,44.35 -20.67,7 -43.22,4.11 -60.4,-5.87 -11.1,-6.44 -19.44,-15.17 -25.65,-24.9 m -250.64,-450.78 c -13.78,-18.73 -32.02,-33.71 -48.45,-50.12 l -51.29,-47.46 -104.02,-93.33 c -69.69,-61.84 -140.4,-122.53 -210.91,-183.34 -70.68,-60.68 -142.65,-119.79 -214.86,-178.51 -70.28,-57.05 -141.61,-112.86 -215.34,-165.08 -12.79,13.74 -27.03,24.13 -41.48,34.52 -16.81,11.6 -34.21,22.08 -52.09,31.71 -35.76,19.24 -73.29,34.97 -111.99,46.89 -38.72,11.81 -78.86,19.16 -119.22,21.15 -40.31,2.19 -80.94,-1.62 -119.75,-11.91 39.39,7.66 79.66,9.47 119.31,5.59 39.69,-3.56 78.53,-13.26 116.23,-25.53 37.6,-12.76 73.94,-29.21 108.3,-48.94 33.69,-19.81 68.41,-42.6 92.54,-70.54 l 5.49,-6.38 6.54,4.5 c 77.03,53.13 151.13,110.07 224.18,168.23 72.97,58.26 143.77,119.13 214.23,180.29 70.55,61.07 139.33,124.14 207.31,188.08 34.03,31.89 67.7,64.17 100.63,97.25 l 49.09,49.9 c 15.79,17.08 32.83,33.44 45.55,53.03 m 448.21,-151.75 c -123.1,-7.72 -376.92,118.54 -376.92,118.54 -142.73,-89.67 -702.03,-680.21 -935.58,-758.34 -44.46,49.25 -324.54,307.99 -721.26,57.92 l -5.52,9.19 1869.03,1032.01 23.29,12.85 -7.53,13.6 -36.51,-20.15 -1856.28,-1024.99 -42.69,70.98 1592.48,872.05 66.31,36.34 -2.78,5.12 -4.64,8.5 -40.09,-21.94 -44.39,-24.31 -1574.9,-862.44 -45.55,75.77 1298.02,708.71 86.41,47.17 -3.65,6.7 -3.61,6.59 c 7.47,5.84 13.7,13 18.49,21.31 3.34,11.86 3.9,24.68 1.3,36.92 2.33,-9.78 3.19,-19.97 2.46,-30.15 l 0.44,0.78 c 7.98,18.4 8.33,38.8 0.99,57.45 v 0.02 c -7.36,18.63 -21.53,33.31 -39.92,41.31 -9.59,4.17 -19.74,6.26 -29.9,6.26 -6.75,0 -13.44,-1.25 -20.03,-3.09 13.54,-1.07 26.64,-4.63 38.01,-10.8 20.62,-10.79 36.06,-28.97 44.28,-49.68 -8.06,21.01 -26.03,37.43 -46.59,44.35 -20.67,6.99 -43.22,4.1 -60.38,-5.9 -11.17,-6.44 -19.55,-15.21 -25.76,-24.98 -6.08,-17.07 -6.13,-35.5 0.59,-52.54 14.55,-36.86 55.17,-55.48 92.36,-43.73 l -36.25,-19.8 -43.37,-23.67 -1281.91,-699.91 -42.7,71.04 1009.65,549.89 84.43,45.99 12.89,7.02 -5.05,9.24 -2.39,4.39 -3.11,-1.69 -67.7,-36.89 -44.22,-24.07 -992.5,-540.56 -44.25,73.6 720.19,388.56 82.44,44.5 13.96,7.53 1.08,0.58 -0.24,0.4 -5.49,10.21 -1.66,3.05 -5.37,-2.91 -65.49,-35.32 -44.73,-24.16 -702.7,-379.12 -45.43,75.52 421.58,225.57 88.56,47.39 -2.52,4.67 -3.7,6.95 c 8.21,6.05 15.02,13.7 20.19,22.63 3.33,11.88 3.89,24.68 1.28,36.94 2.33,-9.78 3.19,-19.98 2.46,-30.18 l 0.46,0.82 c 7.98,18.38 8.34,38.79 0.99,57.44 v 0.02 c -7.37,18.63 -21.54,33.31 -39.92,41.31 -9.62,4.17 -19.76,6.26 -29.92,6.26 -6.74,0 -13.44,-1.25 -20.03,-3.09 13.55,-1.07 26.64,-4.63 38.03,-10.8 20.61,-10.79 36.04,-28.97 44.26,-49.68 -8.06,21.01 -26.03,37.43 -46.59,44.35 -20.68,6.99 -43.21,4.1 -60.37,-5.9 -11.16,-6.44 -19.51,-15.19 -25.74,-24.95 -6.1,-17.1 -6.13,-35.53 0.58,-52.57 7.38,-18.67 21.55,-33.34 39.93,-41.33 14.14,-6.14 29.42,-7.67 44.2,-4.77 l -32.12,-17.19 -42.42,-22.69 -407.18,-217.86 -32.85,54.6 c 0,0 91.08,44.23 85.54,86.56 -5.57,42.32 3.08,232.17 58.04,262.19 13.08,7.13 139.99,37.7 326.77,80.32 l -20.76,51.68 c -6.55,-0.74 -13.01,-1.11 -19.41,-1.11 -56.89,0 -104.83,28.63 -114.74,72.86 -6.96,31.11 6.49,63.23 32.95,88 -4.23,-5.93 -7.92,-12.31 -10.73,-19.21 -5.96,-14.57 -8.12,-31.4 -4.69,-47.39 l 0.66,-1.96 c 4,-15.13 12.67,-28.71 23.8,-38.91 11.7,-10.68 25.71,-17.82 40.09,-22.48 29.1,-8.92 59.66,-7.56 87.8,-0.3 2.33,0.64 4.55,1.6 6.84,2.32 25.46,8.09 49.21,21.42 67.45,40.47 7.75,7.93 14.48,17.24 19.44,27.32 -3,-16.7 -11.28,-33.17 -24.52,-48.16 -16.24,-18.37 -38.63,-32.66 -64.17,-41.8 l 19.64,-48.94 -19.21,-7.73 c 94.88,21.59 204.05,46.06 321.01,72.03 l -20.61,51.36 c -6.95,-0.81 -13.86,-1.3 -20.69,-1.3 -20.98,0 -41.12,3.87 -58.87,11.54 -29.77,12.8 -49.45,34.62 -55.42,61.37 -6.01,26.78 2.5,54.88 23.96,79.15 2.52,2.84 5.58,5.27 8.37,7.91 -3.96,-5.68 -7.46,-11.71 -10.13,-18.27 -5.95,-14.58 -8.1,-31.4 -4.67,-47.39 l 0.63,-1.94 c 4,-15.12 12.69,-28.73 23.8,-38.93 11.71,-10.68 25.74,-17.82 40.12,-22.47 29.08,-8.93 59.65,-7.57 87.79,-0.31 2.31,0.63 4.5,1.59 6.79,2.31 25.46,8.07 49.24,21.42 67.51,40.48 7.73,7.93 14.46,17.25 19.43,27.31 -3.01,-16.7 -11.28,-33.15 -24.54,-48.15 -16.07,-18.18 -38.13,-32.41 -63.39,-41.56 l 20.07,-49.97 -12.43,-5 c 101.71,22.54 208.81,46.13 317.08,69.86 l -20.98,52.21 c -8.17,-1.14 -16.33,-1.92 -24.38,-1.92 -20.95,0 -41.11,3.87 -58.87,11.55 -29.75,12.8 -49.43,34.61 -55.41,61.37 -6.01,26.76 2.53,54.88 23.97,79.15 2.51,2.83 5.57,5.26 8.36,7.91 -3.95,-5.67 -7.44,-11.72 -10.11,-18.28 -5.95,-14.58 -8.12,-31.39 -4.68,-47.38 l 0.62,-1.92 c 4.01,-15.13 12.69,-28.74 23.83,-38.95 11.67,-10.68 25.71,-17.82 40.09,-22.48 29.08,-8.93 59.66,-7.56 87.8,-0.3 2.3,0.62 4.48,1.58 6.76,2.28 25.5,8.08 49.28,21.43 67.53,40.51 7.77,7.93 14.48,17.27 19.46,27.36 -3.01,-16.72 -11.29,-33.2 -24.55,-48.21 -15.34,-17.34 -36.1,-31.22 -59.92,-40.39 l 19.72,-49.1 -26.4,-10.6 c 107.7,23.59 216.35,47.28 321.93,70.22 l -21.89,54.49 c -5.73,-0.55 -11.43,-0.94 -17.01,-0.94 -56.9,0 -104.85,28.63 -114.74,72.86 -6,26.76 2.5,54.87 23.95,79.15 2.5,2.84 5.59,5.28 8.38,7.92 -3.95,-5.67 -7.46,-11.72 -10.1,-18.29 -5.98,-14.58 -8.14,-31.38 -4.7,-47.38 l 0.64,-1.96 c 4.03,-15.11 12.69,-28.71 23.81,-38.9 11.68,-10.7 25.71,-17.83 40.1,-22.49 29.09,-8.92 59.64,-7.56 87.79,-0.31 3.33,0.92 6.54,2.23 9.8,3.34 24.31,8.17 46.97,21.14 64.49,39.46 7.62,7.78 14.25,16.88 19.19,26.74 -7.38,-38.2 -42.16,-73.54 -90.59,-90.22 l 20.58,-51.22 -19.64,-7.88 c 112.88,24.51 221.77,48.07 321.77,69.63 l -22.78,56.71 c -5.92,-0.6 -11.81,-1 -17.63,-1 -20.99,0 -41.13,3.9 -58.89,11.55 -29.75,12.81 -49.42,34.62 -55.41,61.38 -6.01,26.78 2.51,54.89 23.98,79.15 2.49,2.84 5.56,5.27 8.34,7.91 -3.94,-5.67 -7.45,-11.7 -10.1,-18.27 -5.97,-14.58 -8.11,-31.39 -4.67,-47.39 l 0.62,-1.95 c 4.02,-15.12 12.69,-28.71 23.79,-38.91 11.69,-10.7 25.75,-17.83 40.11,-22.48 29.1,-8.93 59.67,-7.57 87.79,-0.32 3.32,0.91 6.52,2.22 9.76,3.33 24.35,8.17 47.02,21.15 64.53,39.48 7.61,7.76 14.25,16.85 19.18,26.7 -7.38,-38.15 -42.09,-73.43 -90.41,-90.13 l 21.17,-52.72 -24.5,-9.84 c 271.72,58.6 473.98,101.65 501.7,107.04 93.02,18.13 360.36,-95.37 370.55,-365.91 10.17,-270.53 -256.44,-394.18 -379.55,-401.88 m -403.92,502.61 c -0.88,4.07 -2.09,8.07 -3.66,11.97 1.51,-3.88 2.67,-7.9 3.66,-11.97 m 342.65,74.38 c -0.86,4.07 -2.08,8.07 -3.64,11.96 1.51,-3.89 2.67,-7.89 3.64,-11.96 M 2665.08,3717.78 c 1.53,-3.9 2.69,-7.92 3.67,-11.99 -0.87,4.08 -2.09,8.09 -3.67,11.99 m 346.31,62.4 0.03,-0.15 -0.03,0.15 m 1370.66,297.4 -0.02,0.12 0.02,-0.12 m -1713.3,-371.79 v -0.11 0.11 m 342.64,74.39 c -0.87,4.08 -2.07,8.08 -3.65,11.97 1.54,-3.89 2.69,-7.89 3.65,-11.97 m -1555.53,-1375.69 21.47,-37.49 398.01,232.18 -16.06,28.06 z m 293.82,414.27 -41.46,72.45 -404.74,-220.45 41.7,-72.86 z m -498.64,-56.36 44.72,-78.16 404.75,220.43 -43.82,76.59 z m -53.33,93.14 45.6,-79.66 405.65,218.86 -44.79,78.28 z m 1307.98,1100.62 c 24.69,-9.65 52.86,-11.41 79.98,-6.76 16.09,3 31.91,8.49 46.63,16.19 9.94,5.21 19.47,11.27 27.89,18.91 8.91,7.98 16.47,17.91 21.84,28.85 1.24,9.17 1.01,18.4 -1.03,27.48 -5.98,26.76 -25.64,48.55 -55.42,61.38 -28.1,12.12 -62.19,14.69 -96.15,7.42 -19.19,-7.84 -36.73,-19.16 -50.54,-33.68 -6.3,-6.51 -11.69,-13.86 -15.91,-21.63 -8.01,-14.73 -11.64,-31.05 -8.06,-46.61 5.16,-23.84 26.21,-42.33 50.77,-51.55 M 723.031,2601.57 361.266,2407.99 l 44.757,-83.86 363.532,196.15 z M 4177.16,4301.75 c 17.78,-7.64 37.91,-11.53 58.91,-11.53 8.18,0 16.49,0.8 24.84,2 l 23.24,-57.81 38.42,15.43 -21.2,52.74 c 44.86,17.55 76.68,51.4 83.72,87.78 -4.95,-9.84 -11.57,-18.92 -19.16,-26.68 -17.56,-18.34 -40.21,-31.32 -64.6,-39.49 -3.22,-1.1 -6.39,-2.4 -9.67,-3.32 -28.17,-7.24 -58.74,-8.61 -87.81,0.32 -14.36,4.65 -28.43,11.78 -40.1,22.48 -11.13,10.2 -19.79,23.8 -23.81,38.92 l -0.63,1.95 c -3.44,15.99 -1.28,32.8 4.67,47.38 2.82,6.92 6.51,13.29 10.72,19.23 -26.44,-24.77 -39.91,-56.89 -32.94,-88.01 6,-26.77 25.66,-48.56 55.4,-61.39 m 32.31,35.57 c 24.69,-9.64 52.89,-11.4 80.01,-6.76 16.73,3.14 33.14,8.93 48.3,17.11 9.33,5.05 18.27,10.79 26.2,17.98 8.84,7.91 16.34,17.75 21.71,28.57 1.34,9.21 1.18,18.52 -0.89,27.76 -11.95,53.47 -79.58,84.04 -151.2,68.96 -19.33,-7.86 -37,-19.2 -50.9,-33.83 -6.31,-6.48 -11.68,-13.84 -15.91,-21.6 -8.02,-14.73 -11.66,-31.07 -8.06,-46.63 5.15,-23.84 26.22,-42.34 50.74,-51.56 M 2846.45,4032.39 c 24.67,-9.64 52.86,-11.4 79.99,-6.76 16.08,3 31.91,8.49 46.58,16.19 9.96,5.22 19.52,11.26 27.92,18.91 8.94,7.97 16.48,17.92 21.85,28.85 1.24,9.18 0.99,18.41 -1.03,27.48 -5.99,26.76 -25.67,48.56 -55.42,61.38 -28.15,12.15 -62.31,14.68 -96.21,7.41 -19.18,-7.84 -36.68,-19.15 -50.48,-33.67 -6.66,-6.87 -12.38,-14.69 -16.7,-22.98 -7.49,-14.35 -10.73,-30.18 -7.28,-45.26 5.18,-23.83 26.21,-42.32 50.78,-51.55 m -1587.06,-1367.97 -44.81,78.3 -400.85,-216.27 45.704,-79.86 z m 1927.8,1444.2 c 24.7,-9.64 52.88,-11.4 80.01,-6.76 16.09,3.01 31.93,8.5 46.62,16.2 9.94,5.21 19.48,11.27 27.89,18.9 8.92,7.97 16.47,17.93 21.85,28.88 1.23,9.16 1,18.38 -1.04,27.45 -11.97,53.47 -79.6,84.09 -151.23,68.94 -19.33,-7.86 -36.97,-19.19 -50.87,-33.82 -6.68,-6.87 -12.38,-14.68 -16.68,-22.96 -7.5,-14.36 -10.78,-30.2 -7.3,-45.27 5.16,-23.84 26.21,-42.33 50.75,-51.56 m 681.53,152.47 c 24.68,-9.65 52.89,-11.4 80.02,-6.76 16.71,3.13 33.13,8.93 48.3,17.12 9.31,5.05 18.26,10.77 26.2,17.96 8.83,7.92 16.32,17.77 21.7,28.59 1.33,9.21 1.17,18.52 -0.88,27.76 -11.98,53.47 -79.48,84.1 -151.25,68.93 -19.33,-7.86 -36.98,-19.19 -50.86,-33.81 -6.69,-6.88 -12.4,-14.69 -16.72,-22.97 -7.48,-14.36 -10.74,-30.19 -7.28,-45.26 5.17,-23.84 26.22,-42.34 50.77,-51.56 m -340.76,-76.23 c 24.7,-9.65 52.88,-11.4 79.99,-6.77 16.76,3.13 33.18,8.95 48.34,17.15 9.32,5.02 18.25,10.75 26.2,17.94 8.81,7.93 16.31,17.79 21.68,28.6 1.33,9.19 1.19,18.52 -0.87,27.75 -11.97,53.48 -79.52,84.07 -151.25,68.93 -19.34,-7.86 -36.98,-19.19 -50.86,-33.81 -6.68,-6.88 -12.39,-14.68 -16.68,-22.96 -7.5,-14.36 -10.79,-30.19 -7.32,-45.28 5.16,-23.84 26.22,-42.32 50.77,-51.55 M 759.563,2621.1 l 46.449,-81.14 400.848,216.25 -45.66,79.8 z m 985.027,289.91 41.45,-72.39 444.79,242.86 -41.17,71.94 z m 537.89,80.21 -43.94,76.76 -444.79,-242.84 44.24,-77.31 z m -1129,-141.73 -33.3,58.19 -400.821,-216.33 32.493,-56.76 z m 487.22,243.08 44.72,-78.14 446.07,240.66 -43.87,76.61 z m -44.24,-6.07 -34.2,59.77 -405.62,-218.91 33.36,-58.33 z m 96.68,-85.56 43.75,-76.43 445.06,242.39 -42.76,74.71 z M 682.914,2671.67 323.926,2477.91 l 30.035,-56.23 361.367,193.35 z m 1397.006,673.52 -35.18,61.49 -446.04,-240.74 34.28,-59.89 z m -278.25,-617.28 -44.27,77.38 -404.52,-220.86 44.57,-77.86 z m -492.85,-149.85 -41.72,72.89 -178.4,-97.16 c 19.56,3.12 39.36,-7.55 46.92,-26.75 8.74,-22.16 -2.15,-47.2 -24.32,-55.94 -22.16,-8.76 -47.22,2.14 -55.96,24.31 -6.23,15.8 -2.35,32.98 8.35,44.76 l -196.545,-107.05 41.957,-73.29 z m -347.14,-310.12 -44.867,78.4 399.717,218.23 44.59,-77.89 -399.44,-218.74" /><path
         id="path70"
         style="fill:#ffffff;fill-opacity:1;fill-rule:nonzero;stroke:none"
         d="m 4773.75,3930.15 c -2.17,14.36 -5.33,28.56 -8.24,42.59 6.95,-57.24 0.46,-115.03 -18.9,-167.79 -19.51,-52.68 -50.58,-100.77 -91.1,-139.23 -40.13,-38.88 -89.55,-67.71 -142.87,-85.45 -53.5,-17.71 -110.95,-23.09 -168.54,-20.35 14.22,-2.2 28.54,-4.22 42.96,-5.99 14.37,-2.05 28.93,-0.89 43.5,-1.47 14.68,-0.77 29.02,2.31 43.57,3.87 14.68,1.19 28.81,5.02 43.03,8.73 56.89,14.84 109.9,44.93 152.69,85.73 42.55,40.99 75.1,92.66 91.87,149.15 4.95,13.85 6.55,28.69 9.92,42.91 2.64,14.39 2.89,29.18 4.32,43.66 0.03,14.6 -1.51,29.2 -2.21,43.64 m -827.11,-327.81 -51.29,-47.46 -104.02,-93.33 c -69.69,-61.84 -140.38,-122.53 -210.91,-183.34 -70.68,-60.68 -142.65,-119.79 -214.88,-178.51 -70.26,-57.05 -141.59,-112.86 -215.32,-165.08 -12.8,13.74 -27.01,24.13 -41.47,34.52 -16.81,11.6 -34.24,22.09 -52.11,31.71 -35.74,19.24 -73.27,34.97 -111.97,46.89 -38.75,11.81 -78.87,19.16 -119.23,21.15 -40.33,2.19 -80.94,-1.62 -119.74,-11.91 39.38,7.64 79.66,9.47 119.29,5.59 39.7,-3.56 78.53,-13.26 116.25,-25.53 37.6,-12.76 73.94,-29.21 108.29,-48.94 33.69,-19.81 68.42,-42.6 92.53,-70.54 l 5.5,-6.38 6.53,4.49 c 77.06,53.14 151.14,110.08 224.19,168.24 72.97,58.26 143.77,119.13 214.23,180.29 70.57,61.07 139.33,124.14 207.31,188.08 34.03,31.89 67.7,64.17 100.63,97.25 l 49.09,49.9 c 15.79,17.08 32.84,33.44 45.56,53.03 -13.79,-18.73 -32.05,-33.71 -48.46,-50.12 m -2095.06,-961.61 -42.2,73.71 -404.21,-221.35 42.98,-75.13 z m -439.68,-242.79 -43.07,75.26 -399.432,-218.74 43.862,-76.63 z m -450.22,-130 399.44,218.74 -44.59,77.89 -399.714,-218.23 z m -52.578,91.89 399.708,218.23 -41.71,72.89 -178.4,-97.16 c 19.57,3.12 39.36,-7.55 46.93,-26.75 8.73,-22.16 -2.16,-47.2 -24.33,-55.94 -22.17,-8.76 -47.23,2.14 -55.96,24.31 -6.23,15.8 -2.35,32.98 8.35,44.76 L 867.148,2433.12 Z m -49.668,86.76 399.956,217.83 -44.81,78.3 -400.853,-216.27 z m -53.422,93.37 400.848,216.25 -45.66,79.8 -401.637,-214.91 z m 391.708,315.59 45.6,-79.67 405.65,218.86 -44.8,78.28 z m 458.97,125.71 -405.65,-218.86 44.72,-78.16 404.75,220.43 z m 51.54,-90.05 -404.75,-220.44 41.7,-72.87 404.5,220.86 z m 49.17,-85.92 -404.52,-220.85 44.57,-77.87 404.21,221.36 z m 2531.4,1181.19 7.52,-13.6 -23.27,-12.85 -1869.03,-1032.01 -64.88,-35.81 -443.59,-244.94 15.56,-27.19 -35.78,-20.9 -16.05,28.06 -403.41,-222.75 21.46,-37.49 -35.77,-20.87 -21.96,38.34 -398.64,-220.12 27.29,-47.68 -35.76,-20.87 -27.779,48.53 -372.801,-205.84 -77.793,-42.96 -7.5,13.59 77.977,43.06 372.398,205.64 -43.918,76.73 -370.816,-203.06 -67.195,-36.8 -7.469,13.63 67.347,36.88 370.414,202.84 -44.882,78.45 -368.34,-201.1 -56.457,-30.84 -7.446,13.65 56.583,30.9 367.941,200.88 -41.984,73.31 -365.93,-199.29 -46.32,-25.21 -7.411,13.62 46.407,25.27 365.543,199.11 -45.778,79.99 -363.926,-196.36 -35.304,-19.03 -7.383,13.66 35.367,19.08 363.528,196.15 -46.528,81.29 -361.762,-193.58 -24.125,-12.91 -7.32,13.7 24.133,12.9 361.367,193.37 -32.422,56.62 36.465,19.68 32.481,-56.76 401.618,214.9 -33.29,58.19 36.46,19.68 33.36,-58.33 406.46,217.48 -34.2,59.76 36.45,19.67 34.27,-59.89 446.94,239.14 55.45,29.68 407.18,217.86 42.42,22.69 32.12,17.19 c -14.77,-2.9 -30.07,-1.37 -44.19,4.78 -18.39,7.98 -32.56,22.65 -39.93,41.32 -6.72,17.04 -6.69,35.48 -0.59,52.57 6.23,9.76 14.58,18.51 25.73,24.95 17.17,10 39.7,12.89 60.39,5.9 20.55,-6.92 38.52,-23.34 46.58,-44.35 1.58,-3.89 2.8,-7.91 3.67,-11.99 -0.98,4.07 -2.14,8.1 -3.67,11.99 -8.22,20.71 -23.65,38.89 -44.25,49.68 -11.4,6.17 -24.49,9.73 -38.04,10.8 6.59,1.84 13.29,3.09 20.05,3.09 10.14,0 20.29,-2.09 29.9,-6.26 18.37,-8 32.57,-22.68 39.92,-41.31 v -0.02 c 7.35,-18.65 7,-39.06 -0.99,-57.44 l -0.46,-0.82 c 0.71,10.2 -0.13,20.4 -2.45,30.18 2.59,-12.26 2.04,-25.07 -1.29,-36.94 -5.17,-8.93 -11.98,-16.58 -20.19,-22.63 l 3.7,-6.95 2.52,-4.67 -88.56,-47.39 -421.58,-225.57 -55.74,-29.83 -446.92,-239.13 44.72,-78.14 446.07,240.66 57.29,30.92 702.69,379.12 44.75,24.16 65.48,35.32 5.4,2.91 1.65,-3.05 5.48,-10.21 0.22,-0.4 -1.04,-0.58 -13.99,-7.53 -82.42,-44.5 -720.2,-388.56 -57.6,-31.08 -446.07,-240.67 43.76,-76.43 445.07,242.39 59.09,32.19 992.5,540.56 44.21,24.07 67.73,36.89 3.09,1.69 2.39,-4.39 5.05,-9.23 -12.87,-7.03 -84.46,-45.99 -1009.64,-549.89 -59.39,-32.35 -445.05,-242.41 41.43,-72.39 444.79,242.86 60.92,33.25 1281.91,699.91 43.37,23.68 36.25,19.79 c -37.2,-11.75 -77.81,6.87 -92.36,43.73 -6.72,17.04 -6.67,35.47 -0.59,52.56 6.23,9.75 14.59,18.52 25.74,24.96 17.18,10 39.73,12.89 60.4,5.91 20.58,-6.91 38.54,-23.35 46.61,-44.36 1.55,-3.89 2.76,-7.9 3.62,-11.97 -0.95,4.06 -2.12,8.08 -3.62,11.97 -8.26,20.71 -23.67,38.89 -44.3,49.68 -11.39,6.17 -24.45,9.73 -38.01,10.8 6.61,1.84 13.28,3.09 20.03,3.09 10.15,0 20.31,-2.09 29.91,-6.26 18.37,-8 32.55,-22.68 39.91,-41.31 v -0.02 c 7.34,-18.65 6.99,-39.05 -0.99,-57.45 l -0.45,-0.78 c 0.74,10.18 -0.12,20.37 -2.45,30.15 2.6,-12.24 2.06,-25.06 -1.3,-36.92 -4.79,-8.31 -11.01,-15.47 -18.48,-21.31 l 3.6,-6.59 3.63,-6.7 -86.37,-47.17 -1298.03,-708.71 -61.23,-33.43 -444.8,-242.84 44.24,-77.31 444.49,243.39 62.85,34.42 1574.89,862.44 44.39,24.31 40.07,21.94 4.65,-8.5 2.79,-5.12 -66.33,-36.34 -1592.46,-872.05 -63.14,-34.58 -444.47,-243.41 42.12,-73.59 443.59,244.94 64.59,35.66 1856.28,1024.99 z m -148.85,396.11 c 4.01,-15.12 12.68,-28.72 23.8,-38.92 11.67,-10.7 25.72,-17.83 40.09,-22.48 29.09,-8.93 59.67,-7.56 87.81,-0.32 3.29,0.92 6.46,2.22 9.68,3.32 24.38,8.17 47.06,21.15 64.6,39.49 7.59,7.76 14.22,16.86 19.16,26.68 7.93,15.75 11.52,33.45 7.54,50.85 3.51,-16.23 0.25,-32.52 -6.94,-46.99 -5.37,-10.82 -12.87,-20.66 -21.69,-28.57 -7.95,-7.19 -16.9,-12.93 -26.22,-17.98 -15.16,-8.18 -31.57,-13.97 -48.28,-17.11 -27.12,-4.64 -55.34,-2.88 -80.03,6.76 -24.52,9.22 -45.59,27.72 -50.74,51.56 -3.6,15.56 0.04,31.9 8.06,46.63 4.22,7.76 9.62,15.12 15.93,21.6 13.9,14.63 31.54,25.97 50.88,33.83 6.05,2.46 12.24,4.62 18.57,6.37 26.57,6.93 55.42,8.24 82.37,0.03 26.55,-7.92 51.54,-27.86 58.09,-56.13 -6.18,28.29 -30.69,48.93 -57.19,58.76 -26.82,10.36 -56.74,12.07 -85.44,7.1 -28.55,-5.43 -56.84,-17.18 -79.33,-37.69 -5.8,-5.47 -11.23,-11.56 -15.97,-18.23 -4.21,-5.94 -7.92,-12.3 -10.7,-19.23 -5.97,-14.58 -8.13,-31.39 -4.7,-47.38 l 0.65,-1.95 m -340.78,-76.24 c 4.02,-15.12 12.69,-28.71 23.81,-38.91 11.68,-10.7 25.74,-17.83 40.1,-22.48 29.1,-8.93 59.66,-7.57 87.79,-0.32 3.32,0.91 6.5,2.22 9.76,3.33 24.35,8.17 47.02,21.15 64.53,39.48 7.61,7.76 14.24,16.87 19.18,26.7 7.93,15.76 11.5,33.44 7.54,50.82 3.49,-16.23 0.24,-32.5 -6.94,-46.97 -5.36,-10.82 -12.87,-20.67 -21.7,-28.59 -7.93,-7.19 -16.89,-12.91 -26.2,-17.96 -15.17,-8.19 -31.61,-13.99 -48.31,-17.12 -27.14,-4.64 -55.32,-2.89 -80.01,6.76 -24.55,9.22 -45.6,27.72 -50.77,51.56 -3.46,15.07 -0.19,30.9 7.3,45.26 4.3,8.28 10.01,16.09 16.7,22.97 13.89,14.62 31.53,25.95 50.87,33.81 6.04,2.47 12.26,4.63 18.59,6.39 26.57,6.93 55.41,8.24 82.35,0.03 26.56,-7.93 51.58,-27.87 58.12,-56.14 -6.2,28.3 -30.69,48.93 -57.2,58.77 -26.82,10.35 -56.75,12.07 -85.46,7.1 -28.53,-5.44 -56.81,-17.18 -79.29,-37.7 -6.11,-5.72 -11.72,-12.15 -16.6,-19.18 -3.94,-5.67 -7.45,-11.7 -10.11,-18.27 -5.96,-14.58 -8.11,-31.39 -4.67,-47.39 l 0.62,-1.95 m -340.76,-76.23 c 4.02,-15.13 12.7,-28.72 23.82,-38.91 11.68,-10.7 25.71,-17.83 40.1,-22.49 29.08,-8.92 59.64,-7.56 87.79,-0.31 3.33,0.92 6.53,2.23 9.8,3.34 24.31,8.17 46.96,21.14 64.5,39.46 7.61,7.78 14.22,16.88 19.18,26.74 7.93,15.75 11.48,33.43 7.51,50.79 3.5,-16.22 0.24,-32.49 -6.94,-46.96 -5.36,-10.81 -12.85,-20.67 -21.7,-28.6 -7.91,-7.19 -16.86,-12.92 -26.18,-17.94 -15.15,-8.2 -31.6,-14.02 -48.34,-17.15 -27.12,-4.63 -55.29,-2.88 -79.98,6.77 -24.56,9.23 -45.62,27.71 -50.78,51.55 -3.47,15.09 -0.18,30.92 7.32,45.28 4.29,8.28 10,16.08 16.67,22.96 13.88,14.62 31.53,25.95 50.86,33.81 6.06,2.47 12.28,4.63 18.63,6.39 26.55,6.93 55.41,8.23 82.32,0.02 26.57,-7.92 51.58,-27.85 58.12,-56.13 -6.19,28.3 -30.69,48.93 -57.2,58.76 -26.82,10.36 -56.73,12.08 -85.45,7.1 -28.55,-5.43 -56.8,-17.17 -79.3,-37.69 -6.09,-5.7 -11.69,-12.14 -16.58,-19.17 -3.95,-5.67 -7.46,-11.72 -10.12,-18.29 -5.96,-14.58 -8.12,-31.38 -4.68,-47.38 l 0.63,-1.95 m -340.77,-76.2 c 4.01,-15.13 12.69,-28.74 23.82,-38.95 11.69,-10.68 25.72,-17.82 40.1,-22.48 29.08,-8.93 59.66,-7.56 87.8,-0.3 2.3,0.62 4.5,1.58 6.77,2.28 25.5,8.08 49.27,21.43 67.54,40.51 7.75,7.94 14.47,17.27 19.44,27.36 7.72,15.59 11.18,33.02 7.24,50.16 3.47,-16.11 0.28,-32.26 -6.79,-46.66 -5.36,-10.95 -12.91,-20.89 -21.85,-28.88 -8.4,-7.63 -17.95,-13.69 -27.89,-18.9 -14.71,-7.7 -30.53,-13.19 -46.62,-16.2 -27.13,-4.64 -55.33,-2.88 -80,6.76 -24.55,9.23 -45.59,27.72 -50.75,51.56 -3.48,15.07 -0.22,30.91 7.28,45.27 4.31,8.28 10.02,16.09 16.69,22.96 13.88,14.63 31.54,25.96 50.86,33.82 6.06,2.47 12.29,4.62 18.62,6.38 26.57,6.93 55.42,8.24 82.34,0.03 26.55,-7.92 51.56,-27.85 58.11,-56.14 -6.19,28.3 -30.68,48.93 -57.18,58.77 -26.85,10.35 -56.76,12.07 -85.46,7.1 -28.55,-5.43 -56.83,-17.18 -79.32,-37.7 -6.09,-5.71 -11.7,-12.15 -16.57,-19.17 -3.96,-5.67 -7.45,-11.72 -10.12,-18.28 -5.95,-14.58 -8.12,-31.39 -4.68,-47.38 l 0.62,-1.92 m -340.75,-76.24 c 4,-15.14 12.69,-28.75 23.8,-38.95 11.7,-10.68 25.74,-17.82 40.13,-22.47 29.07,-8.93 59.64,-7.57 87.79,-0.31 2.31,0.63 4.5,1.59 6.77,2.31 25.49,8.07 49.25,21.42 67.5,40.48 7.75,7.93 14.47,17.25 19.45,27.31 7.71,15.6 11.19,33.06 7.27,50.23 3.48,-16.13 0.27,-32.3 -6.81,-46.7 -5.36,-10.93 -12.93,-20.88 -21.85,-28.85 -8.4,-7.65 -17.96,-13.69 -27.9,-18.91 -14.7,-7.7 -30.52,-13.19 -46.6,-16.19 -27.13,-4.65 -55.32,-2.88 -80.01,6.76 -24.55,9.23 -45.58,27.72 -50.75,51.55 -3.46,15.08 -0.22,30.91 7.27,45.26 4.33,8.29 10.04,16.11 16.7,22.98 13.8,14.52 31.3,25.83 50.46,33.67 6.19,2.54 12.55,4.73 19.03,6.53 26.56,6.93 55.4,8.23 82.34,0.03 26.55,-7.91 51.56,-27.86 58.12,-56.13 -6.21,28.3 -30.69,48.92 -57.18,58.76 -26.86,10.35 -56.76,12.07 -85.45,7.1 -28.58,-5.44 -56.86,-17.19 -79.34,-37.7 -6.08,-5.73 -11.71,-12.15 -16.57,-19.18 -3.95,-5.68 -7.45,-11.71 -10.13,-18.27 -5.93,-14.58 -8.1,-31.4 -4.67,-47.39 l 0.63,-1.92 m -340.74,-76.27 c 4,-15.13 12.67,-28.71 23.79,-38.91 11.71,-10.68 25.72,-17.82 40.12,-22.48 29.08,-8.92 59.64,-7.56 87.78,-0.3 2.33,0.64 4.55,1.6 6.84,2.32 25.47,8.09 49.21,21.42 67.45,40.47 7.75,7.93 14.46,17.24 19.44,27.32 7.71,15.6 11.19,33.04 7.27,50.22 3.48,-16.13 0.27,-32.3 -6.79,-46.7 -5.4,-10.94 -12.95,-20.87 -21.86,-28.85 -8.42,-7.64 -17.95,-13.7 -27.88,-18.91 -14.73,-7.7 -30.53,-13.19 -46.64,-16.19 -27.12,-4.65 -55.3,-2.89 -79.98,6.76 -24.56,9.22 -45.61,27.71 -50.77,51.55 -3.6,15.56 0.05,31.88 8.06,46.61 4.22,7.77 9.61,15.12 15.91,21.63 13.81,14.52 31.34,25.84 50.54,33.68 6.16,2.54 12.49,4.73 18.94,6.52 26.56,6.93 55.41,8.23 82.36,0.03 26.55,-7.91 51.54,-27.86 58.11,-56.13 -6.2,28.3 -30.71,48.92 -57.18,58.76 -26.85,10.35 -56.77,12.07 -85.47,7.09 -28.56,-5.43 -56.83,-17.19 -79.33,-37.69 -5.81,-5.48 -11.21,-11.58 -15.95,-18.24 -4.23,-5.93 -7.91,-12.31 -10.73,-19.21 -5.95,-14.57 -8.12,-31.4 -4.69,-47.39 l 0.66,-1.96 m 1944.62,39.3 c 3.33,11.84 3.86,24.63 1.28,36.87 2.31,-9.75 3.15,-19.93 2.45,-30.1 7.99,17.8 9.15,38.64 1.46,58.18 -11.67,29.49 -40.02,47.54 -69.97,47.54 -6.62,0 -13.26,-1.23 -19.88,-3.06 13.56,-1.06 26.61,-4.62 37.99,-10.8 20.62,-10.78 36.04,-28.96 44.29,-49.68 1.51,-3.89 2.67,-7.89 3.64,-11.96 -0.87,4.07 -2.08,8.07 -3.64,11.96 -8.06,21.03 -26.05,37.43 -46.61,44.35 -20.67,7 -43.22,4.11 -60.4,-5.87 -11.1,-6.44 -19.44,-15.17 -25.65,-24.9 -5.92,-16.53 -6.41,-35.08 0.52,-52.66 15.17,-38.49 58.89,-57.53 97.37,-42.29 16.39,6.45 28.94,18.24 37.15,32.42 m -337.47,-9.43 c -11.65,29.49 -40,47.54 -69.95,47.54 -6.62,0 -13.29,-1.22 -19.88,-3.05 13.54,-1.07 26.61,-4.63 37.98,-10.8 20.6,-10.79 36.04,-28.96 44.27,-49.68 1.52,-3.88 2.69,-7.9 3.65,-11.97 -0.87,4.07 -2.08,8.07 -3.65,11.97 -8.06,21.02 -26.04,37.43 -46.58,44.36 -20.69,6.98 -43.22,4.1 -60.4,-5.91 -11.12,-6.41 -19.47,-15.15 -25.68,-24.85 -5.91,-16.54 -6.39,-35.1 0.52,-52.68 15.22,-38.53 58.97,-57.49 97.38,-42.31 16.39,6.47 28.95,18.24 37.14,32.43 3.33,11.84 3.87,24.64 1.28,36.88 2.34,-9.78 3.17,-19.93 2.48,-30.11 7.97,17.81 9.13,38.64 1.44,58.18 m -686.32,-206.21 c 8,18.4 8.34,38.79 0.97,57.44 -7.33,18.67 -21.53,33.34 -39.91,41.33 -9.58,4.17 -19.74,6.28 -29.89,6.28 -6.74,0 -13.46,-1.27 -20.03,-3.11 13.54,-1.07 26.62,-4.63 38.03,-10.79 20.58,-10.79 36.02,-28.98 44.26,-49.69 1.52,-3.89 2.67,-7.91 3.66,-11.98 -0.88,4.07 -2.1,8.09 -3.66,11.98 -8.06,21.03 -26.05,37.43 -46.58,44.35 -20.69,6.99 -43.22,4.11 -60.41,-5.89 -11.15,-6.45 -19.53,-15.22 -25.74,-24.97 -6.09,-17.1 -6.13,-35.52 0.6,-52.56 7.36,-18.66 21.54,-33.32 39.94,-41.32 18.36,-8 38.78,-8.37 57.43,-0.98 15.96,6.27 28.69,17.74 37.12,32.36 3.34,11.86 3.9,24.67 1.33,36.92 2.31,-9.77 3.14,-19.98 2.43,-30.16 l 0.45,0.79 m -343.11,-75.18 c 0.72,10.19 -0.12,20.37 -2.45,30.14 2.6,-12.24 2.05,-25.04 -1.32,-36.9 -8.43,-14.61 -21.19,-26.08 -37.12,-32.36 -18.63,-7.34 -39.05,-7.01 -57.45,0.98 -18.38,8 -32.55,22.66 -39.92,41.34 -6.73,17.04 -6.67,35.48 -0.58,52.57 6.22,9.75 14.57,18.51 25.74,24.95 17.16,10.01 39.7,12.89 60.39,5.89 20.56,-6.92 38.52,-23.32 46.58,-44.35 1.59,-3.89 2.8,-7.89 3.65,-11.97 -0.97,4.08 -2.13,8.08 -3.65,11.97 -8.21,20.73 -23.66,38.91 -44.27,49.69 -11.39,6.16 -24.47,9.73 -38.02,10.79 6.61,1.85 13.3,3.1 20.03,3.1 10.18,0 20.32,-2.1 29.9,-6.27 18.4,-7.98 32.56,-22.65 39.93,-41.31 v -0.02 c 7.35,-18.64 6.99,-39.04 -1,-57.44 l -0.44,-0.8" /></g></g></svg>