<?xml version="1.0" encoding="UTF-8"?>
<!DOCTYPE svg PUBLIC "-//W3C//DTD SVG 1.1//EN" "http://www.w3.org/Graphics/SVG/1.1/DTD/svg11.dtd">
<!-- Creator: CorelDRAW X6 -->
<svg xmlns="http://www.w3.org/2000/svg" xml:space="preserve" width="77.3021mm" height="53.7544mm" version="1.1" style="shape-rendering:geometricPrecision; text-rendering:geometricPrecision; image-rendering:optimizeQuality; fill-rule:evenodd; clip-rule:evenodd"
viewBox="0 0 5123 3562"
 xmlns:xlink="http://www.w3.org/1999/xlink">
 <defs>
  <style type="text/css">
   <![CDATA[
    .fil2 {fill:white}
    .fil1 {fill:url(#id0)}
    .fil0 {fill:url(#id1)}
    .fil3 {fill:url(#id2)}
    .fil11 {fill:url(#id3);fill-rule:nonzero}
    .fil8 {fill:url(#id4);fill-rule:nonzero}
    .fil10 {fill:url(#id5);fill-rule:nonzero}
    .fil9 {fill:url(#id6);fill-rule:nonzero}
    .fil12 {fill:url(#id7);fill-rule:nonzero}
    .fil13 {fill:url(#id8);fill-rule:nonzero}
    .fil4 {fill:url(#id9);fill-rule:nonzero}
    .fil6 {fill:url(#id10);fill-rule:nonzero}
    .fil7 {fill:url(#id11);fill-rule:nonzero}
    .fil5 {fill:url(#id12);fill-rule:nonzero}
   ]]>
  </style>
  <linearGradient id="id0" gradientUnits="userSpaceOnUse" x1="778.936" y1="1724.47" x2="5122.67" y2="1724.47">
   <stop offset="0" style="stop-color:yellow"/>
   <stop offset="1" style="stop-color:red"/>
  </linearGradient>
  <linearGradient id="id1" gradientUnits="userSpaceOnUse" xlink:href="#id0" x1="778.936" y1="1724.48" x2="5122.67" y2="1724.48">
  </linearGradient>
  <linearGradient id="id2" gradientUnits="userSpaceOnUse" xlink:href="#id0" x1="2756.41" y1="2437.75" x2="2764.32" y2="2437.75">
  </linearGradient>
  <radialGradient id="id3" gradientUnits="objectBoundingBox" cx="50%" cy="50.0004%" r="46.0003%" fx="50%" fy="50.0004%">
   <stop offset="0" style="stop-color:red"/>
   <stop offset="1" style="stop-color:yellow"/>
  </radialGradient>
  <radialGradient id="id4" gradientUnits="objectBoundingBox" xlink:href="#id3" cx="50.0003%" cy="50%" r="46%" fx="50.0003%" fy="50%">
  </radialGradient>
  <radialGradient id="id5" gradientUnits="objectBoundingBox" xlink:href="#id3" cx="50%" cy="50.0013%" r="46.0001%" fx="50%" fy="50.0013%">
  </radialGradient>
  <radialGradient id="id6" gradientUnits="objectBoundingBox" xlink:href="#id3" cx="49.9995%" cy="50%" r="46%" fx="49.9995%" fy="50%">
  </radialGradient>
  <radialGradient id="id7" gradientUnits="objectBoundingBox" xlink:href="#id3" cx="50%" cy="50%" r="46.0003%" fx="50%" fy="50%">
  </radialGradient>
  <radialGradient id="id8" gradientUnits="objectBoundingBox" xlink:href="#id3" cx="50%" cy="50%" r="44.9997%" fx="50%" fy="50%">
  </radialGradient>
  <radialGradient id="id9" gradientUnits="objectBoundingBox" xlink:href="#id3" cx="50%" cy="50.0004%" r="45.0003%" fx="50%" fy="50.0004%">
  </radialGradient>
  <radialGradient id="id10" gradientUnits="objectBoundingBox" xlink:href="#id3" cx="50%" cy="50.0004%" r="45.0001%" fx="50%" fy="50.0004%">
  </radialGradient>
  <radialGradient id="id11" gradientUnits="objectBoundingBox" xlink:href="#id3" cx="50%" cy="50.0006%" r="45.001%" fx="50%" fy="50.0006%">
  </radialGradient>
  <radialGradient id="id12" gradientUnits="objectBoundingBox" xlink:href="#id3" cx="50%" cy="50.0006%" r="45.0004%" fx="50%" fy="50.0006%">
  </radialGradient>
 </defs>
 <g id="Ebene_x0020_1">
  <metadata id="CorelCorpID_0Corel-Layer"/>
  <g id="_751235728">
   <path class="fil0" d="M3821 993c162,-292 325,-438 651,-438 359,0 651,262 651,585 0,584 -651,1169 -1302,1754 -395,-354 -789,-708 -1039,-1063 -26,530 -464,952 -1001,952 -553,0 -1002,-448 -1002,-1002 0,-553 449,-1002 1002,-1002 292,0 555,125 739,325 20,-306 303,-549 649,-549 326,0 489,146 652,438z"/>
   <path class="fil1" d="M1781 1036c412,0 745,334 745,745 0,412 -333,745 -745,745 -411,0 -745,-333 -745,-745 0,-411 334,-745 745,-745zm2040 -43c162,-292 325,-438 651,-438 359,0 651,262 651,585 0,584 -651,1169 -1302,1754 -395,-354 -789,-708 -1039,-1063 -26,530 -464,952 -1001,952 -553,0 -1002,-448 -1002,-1002 0,-553 449,-1002 1002,-1002 292,0 555,125 739,325 20,-306 303,-549 649,-549 326,0 489,146 652,438zm0 169c125,-224 250,-337 500,-337 276,0 501,202 501,450 0,449 -501,899 -1001,1349 -501,-450 -1001,-900 -1001,-1349 0,-248 224,-450 500,-450 250,0 375,113 501,337z"/>
   <path class="fil2" d="M3821 1162c125,-224 250,-337 500,-337 276,0 501,202 501,450 0,449 -501,899 -1001,1349 -501,-450 -1001,-900 -1001,-1349 0,-248 224,-450 500,-450 250,0 375,113 501,337z"/>
   <path class="fil2" d="M1781 1036c412,0 745,334 745,745 0,412 -333,745 -745,745 -411,0 -745,-333 -745,-745 0,-411 334,-745 745,-745z"/>
   <path class="fil3" d="M2763 2435c-1,2 1,6 -2,7 -2,-2 -5,-6 -2,-8 2,-1 3,1 4,1z"/>
   <g>
    <path class="fil4" d="M1653 3095c0,-71 58,-129 130,-129 71,0 129,58 129,129l0 338c0,71 -58,129 -129,129 -72,0 -130,-58 -130,-129l0 -338z"/>
    <path class="fil5" d="M1909 467c0,72 -58,130 -130,130 -71,0 -129,-58 -129,-130l0 -338c0,-71 58,-129 129,-129 72,0 130,58 130,129l0 338z"/>
    <path class="fil6" d="M2334 2996c-35,-62 -14,-141 48,-176 61,-36 140,-14 176,47l162 281c35,61 14,140 -48,176 -62,35 -140,14 -176,-48l-162 -280z"/>
    <path class="fil7" d="M1228 566c35,62 14,141 -48,176 -61,36 -140,15 -176,-47l-161 -280c-36,-62 -15,-141 47,-176 62,-36 141,-15 176,47l162 280z"/>
    <path class="fil8" d="M2800 2519c-62,-35 -83,-114 -48,-176 36,-62 114,-83 176,-47l348 200c62,36 83,115 47,176 -35,62 -114,83 -176,48l-347 -201z"/>
    <path class="fil9" d="M762 1043c62,36 83,114 48,176 -35,62 -114,83 -176,48l-348 -201c-61,-36 -83,-114 -47,-176 35,-62 114,-83 176,-48l347 201z"/>
    <path class="fil10" d="M592 1649c72,0 130,58 130,130 0,71 -58,129 -130,129l-463 0c-71,0 -129,-58 -129,-129 0,-72 58,-130 129,-130l463 0z"/>
    <path class="fil11" d="M1005 2872c36,-62 115,-83 177,-47 62,35 83,114 47,176l-159 276c-36,61 -115,82 -177,47 -62,-36 -83,-115 -47,-177l159 -275z"/>
    <path class="fil12" d="M2557 691c-36,61 -115,82 -177,47 -61,-36 -82,-115 -47,-177l160 -275c35,-62 114,-83 176,-47 62,35 83,114 47,176l-159 276z"/>
    <path class="fil13" d="M636 2296c62,-35 141,-14 176,48 36,62 14,140 -47,176l-347 200c-61,35 -140,14 -176,-48 -35,-61 -14,-140 48,-176l346 -200z"/>
   </g>
  </g>
 </g>
</svg>
